<svg width="16" height="16" xmlns="http://www.w3.org/2000/svg">
    <g fill="none" fill-rule="evenodd">
        <path d="M8 .5c2.071 0 3.946.84 5.303 2.197A7.477 7.477 0 0 1 15.5 8c0 2.071-.84 3.946-2.197 5.303A7.477 7.477 0 0 1 8 15.5a7.477 7.477 0 0 1-5.303-2.197A7.477 7.477 0 0 1 .5 8c0-2.071.84-3.946 2.197-5.303A7.477 7.477 0 0 1 8 .5z" stroke="#999"/>
        <text font-family="HyundaiSansTextJP-Regular, Hyundai Sans Text JP" font-size="12" fill="#999">
                            <tspan x="5" y="13">?</tspan>
                        </text>
        <path d="M0 0h16v16H0z"/>
    </g>
</svg>
