<?xml version="1.0" encoding="UTF-8"?>
<svg width="24px" height="24px" viewBox="0 0 24 24" version="1.1" xmlns="http://www.w3.org/2000/svg" xmlns:xlink="http://www.w3.org/1999/xlink">
    <title>549247DD-B077-4404-A251-6825DE8D8683</title>
    <g id="❇️-icon" stroke="none" stroke-width="1" fill="none" fill-rule="evenodd">
        <g id="[PC/MO]Icon" transform="translate(-1157.000000, -549.000000)">
            <g id="common-/-content-/-ic_link" transform="translate(1157.000000, 549.000000)">
                <rect id="Rectangle" x="0" y="0" width="24" height="24"></rect>
                <g id="Group" transform="translate(4.000000, 4.000000)" stroke="#666666">
                    <path d="M8.8,11.7544739 L5.42767506,15.0813175 C4.18601931,16.3062275 2.17289757,16.3062275 0.931241817,15.0813175 C-0.310413939,13.8564075 -0.310413939,11.8704361 0.931241817,10.6455261 L4.30356675,7.31868249 C5.54522251,6.0937725 7.55834424,6.0937725 8.8,7.31868249" id="Path"></path>
                    <path d="M7.2,4.24552607 L10.5723249,0.918682488 C11.8139807,-0.306227496 13.8271024,-0.306227496 15.0687582,0.918682488 C16.3104139,2.14359247 16.3104139,4.12956395 15.0687582,5.35447393 L11.6964332,8.68131751 C10.4547775,9.9062275 8.44165576,9.9062275 7.2,8.68131751" id="Path"></path>
                </g>
            </g>
        </g>
    </g>
</svg>