<?xml version="1.0" encoding="UTF-8"?>
<svg width="16px" height="16px" viewBox="0 0 16 16" version="1.1" xmlns="http://www.w3.org/2000/svg" xmlns:xlink="http://www.w3.org/1999/xlink">
    <title>6DBC264C-BD90-45EC-8A5A-4F5B224C4750</title>
    <g id="02_Component-Guideline" stroke="none" stroke-width="1" fill="none" fill-rule="evenodd">
        <g id="Input-Field" transform="translate(-804.000000, -1598.000000)">
            <g id="Input-/-Line-/-Common-/-Error-02" transform="translate(500.000000, 1582.000000)">
                <g id="Icon-/-Form-/-Cross" transform="translate(304.000000, 16.000000)">
                    <rect id="Bounding-box" fill="#D8D8D8" opacity="0" x="0" y="0" width="16" height="16"></rect>
                    <path d="M8,0 C12.418278,0 16,3.581722 16,8 C16,12.418278 12.418278,16 8,16 C3.581722,16 0,12.418278 0,8 C0,3.581722 3.581722,0 8,0 Z M10.4,4.4 L8,6.8 L5.6,4.4 L4.4,5.6 L6.8,8 L4.4,10.4 L5.6,11.6 L8,9.2 L10.4,11.6 L11.6,10.4 L9.2,8 L11.6,5.6 L10.4,4.4 Z" id="Combined-Shape" fill="#E63312"></path>
                </g>
            </g>
        </g>
    </g>
</svg>