<?xml version="1.0" encoding="UTF-8"?>
<svg width="48px" height="48px" viewBox="0 0 48 48" version="1.1" xmlns="http://www.w3.org/2000/svg" xmlns:xlink="http://www.w3.org/1999/xlink">
    <title>pictogram / payment / ic_cash@2x</title>
    <g id="pictogram-/-payment-/-ic_cash" stroke="none" stroke-width="1" fill="none" fill-rule="evenodd">
        <rect id="Rectangle" x="0" y="0" width="48" height="48"></rect>
        <g id="Group" transform="translate(5.000000, 13.000000)" fill-rule="nonzero">
            <polygon id="Path-28" fill="#666666" points="23.62 8.16 25.48 10.64 24.999506 11.5999998 18.3995062 11.5945658 18.4004942 10.3945662 23.799 10.399 22.66 8.88"></polygon>
            <path d="M11.017379,0 C16.0603926,0 20.3120337,3.38292334 21.62,7.9998627 L20.5746901,8.00011922 C19.2984501,3.9429507 15.502139,1 11.017379,1 C5.48580592,1 1.00157991,5.4771525 1.00157991,11 C1.00157991,16.5228475 5.48580592,21 11.017379,21 C15.5016464,21 19.2976161,18.0576958 20.5742694,14.0012177 L21.6197333,14.0010786 C20.3114558,18.6175365 16.0600498,22 11.017379,22 C4.93264861,22 0,17.0751322 0,11 C0,4.92486775 4.93264861,0 11.017379,0 Z" id="Combined-Shape-Copy-3" stroke="#0793EA" stroke-width="0.2" fill="#0793EA"></path>
            <path d="M26.602621,0 C32.6873514,0 37.62,4.92486775 37.62,11 C37.62,17.0751322 32.6873514,22 26.602621,22 C24.2735856,22 22.1133425,21.2784539 20.3339042,20.0470397 C20.5696278,19.8054773 20.7943971,19.5549503 21.009305,19.2959465 C22.6062116,20.3720287 24.5309652,21 26.602621,21 C32.1341941,21 36.6184201,16.5228475 36.6184201,11 C36.6184201,5.4771525 32.1341941,1 26.602621,1 C24.5310844,1 22.6064332,1.62789898 21.0091752,2.70347385 C20.7943971,2.44504974 20.5696278,2.19452267 20.3355729,1.95304815 C22.1135609,0.72147315 24.2737033,-1.64079276e-15 26.602621,0 Z" id="Combined-Shape" stroke="#666666" stroke-width="0.2" fill="#666666"></path>
            <path d="M14.202569,6.79659958 L14.9765004,7.42986898 L12.2673101,10.7405996 L13.7824,10.7411 L13.7824,11.9411 L11.6273101,11.9405996 L11.6273101,12.3765996 L13.7824,12.3775 L13.7824,13.5775 L11.6273101,13.5765996 L11.6275,15.7362 L10.4275,15.7362 L10.4273101,13.5765996 L8.2184,13.5775 L8.2184,12.3775 L10.4273101,12.3765996 L10.4273101,11.9405996 L8.2184,11.9411 L8.2184,10.7411 L9.73231012,10.7405996 L7.02431012,7.42976361 L7.79833639,6.79659958 L10.999,10.71 L14.202569,6.79659958 Z" id="Combined-Shape" fill="#0793EA"></path>
        </g>
    </g>
</svg>