<?xml version="1.0" encoding="UTF-8"?>
<svg width="32px" height="32px" viewBox="0 0 32 32" version="1.1" xmlns="http://www.w3.org/2000/svg" xmlns:xlink="http://www.w3.org/1999/xlink">
    <title>3DFD5425-D441-49D9-81BB-9EAEBC659755</title>
    <g id="❇️-icon" stroke="none" stroke-width="1" fill="none" fill-rule="evenodd">
        <g id="[PC/MO]Icon" transform="translate(-600.000000, -2175.000000)">
            <g id="Group-2" transform="translate(600.000000, 2175.000000)">
                <rect id="Rectangle" x="0" y="0" width="32" height="32"></rect>
                <g id="Group" transform="translate(2.000000, 1.000000)" stroke="#191919">
                    <path d="M22.4994847,0.5 C23.6042821,0.5 24.6044249,0.94767115 25.3283631,1.67152646 C26.0522806,2.39536105 26.5,3.39535805 26.5,4.5 C26.5,5.60464195 26.0522806,6.60463895 25.3283631,7.32847354 C24.6044249,8.05232885 23.6042821,8.5 22.4994847,8.5 C21.3951372,8.5 20.395234,8.0522824 19.6714352,7.32840063 C18.9476843,6.60456687 18.5,5.60460213 18.5,4.5 C18.5,3.39539787 18.9476843,2.39543313 19.6714352,1.67159937 C20.395234,0.947717603 21.3951372,0.5 22.4994847,0.5 Z" id="Stroke-5"></path>
                    <path d="M23.4994847,21.5 C24.6042821,21.5 25.6044249,21.9476712 26.3283631,22.6715265 C27.0522806,23.395361 27.5,24.395358 27.5,25.5 C27.5,26.604642 27.0522806,27.604639 26.3283631,28.3284735 C25.6044249,29.0523288 24.6042821,29.5 23.4994847,29.5 C22.3951372,29.5 21.395234,29.0522824 20.6714352,28.3284006 C19.9476843,27.6045669 19.5,26.6046021 19.5,25.5 C19.5,24.3953979 19.9476843,23.3954331 20.6714352,22.6715994 C21.395234,21.9477176 22.3951372,21.5 23.4994847,21.5 Z" id="Stroke-5-Copy"></path>
                    <path d="M4.49948471,11.5 C5.60427552,11.5 6.60440985,11.9477241 7.32834286,12.6716571 C8.05227588,13.3955902 8.5,14.3957245 8.5,15.5005153 C8.5,16.6051961 8.05235419,17.6050126 7.32852323,18.3286778 C6.60456606,19.0524692 5.60435391,19.5 4.49948471,19.5 C3.3950654,19.5 2.39509293,19.0524228 1.67127507,18.3286049 C0.947610692,17.6049406 0.5,16.6051562 0.5,15.5005153 C0.5,14.3957643 0.947688995,13.3956622 1.67145541,12.6717301 C2.39524911,11.9477706 3.39514375,11.5 4.49948471,11.5 L4.49948471,11.5 Z" id="Stroke-9"></path>
                    <line x1="18.9790048" y1="5.5625" x2="7.5" y2="13.5" id="Path-59"></line>
                    <line x1="19.5" y1="23.5" x2="8.5" y2="16.5" id="Path-59"></line>
                </g>
            </g>
        </g>
    </g>
</svg>