<svg xmlns="http://www.w3.org/2000/svg" width="80" height="80" viewBox="0 0 80 80">
    <defs>
        <filter id="p4dqxs25da" color-interpolation-filters="auto">
            <feColorMatrix in="SourceGraphic" values="0 0 0 0 0.000000 0 0 0 0 0.000000 0 0 0 0 0.000000 0 0 0 1.000000 0"/>
        </filter>
    </defs>
    <g fill="none" fill-rule="evenodd">
        <g>
            <g transform="translate(-140.000000, -116.000000) translate(140.000000, 116.000000)">
                <rect width="79" height="79" x=".5" y=".5" stroke="#CCC" rx="39.5"/>
                <g filter="url(#p4dqxs25da)">
                    <g>
                        <path stroke="#00AAD2" stroke-width="1.6" d="M32.2 6.8v6.323c-1.067.171-2.03.68-2.768 1.412-.915.91-1.485 2.164-1.485 3.548s.57 2.639 1.485 3.548c.738.733 1.701 1.241 2.768 1.413h0V29.2H3.8V6.8h28.4z" transform="translate(22.000000, 22.000000)"/>
                        <path fill="#00AAD2" d="M21.45 22.5v3h-2.4v-3h2.4zm0-6v3h-2.4v-3h2.4zm0-6v3h-2.4v-3h2.4z" transform="translate(22.000000, 22.000000)"/>
                    </g>
                </g>
            </g>
        </g>
    </g>
</svg>
