<svg width="24" height="24" xmlns="http://www.w3.org/2000/svg">
    <g fill="none" fill-rule="evenodd">
        <path stroke="#999" d="m18.97 3.701-14.328 8.24 14.328 8.417"/>
        <path d="M18.97 6.746a3.058 3.058 0 0 1-3.045-3.045c0-1.73 1.373-3.104 3.045-3.104a3.058 3.058 0 0 1 3.045 3.045c0 1.731-1.373 3.104-3.045 3.104" fill="#FFF"/>
        <path d="M18.97 6.784a3.108 3.108 0 0 1-3.141-3.142A3.108 3.108 0 0 1 18.97.5a3.108 3.108 0 0 1 3.142 3.142 3.108 3.108 0 0 1-3.142 3.142" fill="#FFF"/>
        <path d="M18.97 0a3.618 3.618 0 0 0-3.642 3.642 3.618 3.618 0 0 0 3.642 3.642 3.618 3.618 0 0 0 3.642-3.642A3.618 3.618 0 0 0 18.97 0m0 1a2.614 2.614 0 0 1 2.642 2.642 2.615 2.615 0 0 1-2.642 2.642 2.615 2.615 0 0 1-2.642-2.642A2.614 2.614 0 0 1 18.97 1" fill="#999"/>
        <path d="M18.97 23.5a3.108 3.108 0 0 1-3.141-3.142 3.108 3.108 0 0 1 3.142-3.141 3.108 3.108 0 0 1 3.142 3.14A3.108 3.108 0 0 1 18.97 23.5" fill="#FFF"/>
        <path d="M18.97 16.716a3.618 3.618 0 0 0-3.642 3.642A3.618 3.618 0 0 0 18.97 24a3.618 3.618 0 0 0 3.642-3.642 3.618 3.618 0 0 0-3.642-3.642m0 1a2.614 2.614 0 0 1 2.642 2.642A2.615 2.615 0 0 1 18.97 23a2.615 2.615 0 0 1-2.642-2.642 2.614 2.614 0 0 1 2.642-2.642" fill="#999"/>
        <path d="M4.642 15.082A3.109 3.109 0 0 1 1.5 11.94a3.11 3.11 0 0 1 3.143-3.142 3.108 3.108 0 0 1 3.142 3.142 3.108 3.108 0 0 1-3.142 3.14" fill="#FFF"/>
        <path d="M4.642 8.299A3.618 3.618 0 0 0 1 11.94a3.618 3.618 0 0 0 3.642 3.641 3.618 3.618 0 0 0 3.642-3.642A3.618 3.618 0 0 0 4.642 8.3m0 1a2.614 2.614 0 0 1 2.642 2.642 2.615 2.615 0 0 1-2.642 2.641A2.615 2.615 0 0 1 2 11.94 2.614 2.614 0 0 1 4.642 9.3" fill="#999"/>
    </g>
</svg>
