<svg width="48" height="48" viewBox="0 0 48 48" xmlns="http://www.w3.org/2000/svg">
    <g fill="none" fill-rule="evenodd">
        <path d="M0 0h48v48H0z"/>
        <g stroke-width="2">
            <g transform="translate(21.5 24)" stroke="#0793EA">
                <circle cx="11" cy="11" r="10"/>
                <path stroke-linecap="square" d="m7 11.657 2.828 2.828 5.511-5.803"/>
            </g>
            <path d="M20 42.736 17.273 45l-2.728-2.264L11.818 45l-2.727-2.264L6.364 45H5V6.019A3.019 3.019 0 0 1 8.019 3H31.98A3.019 3.019 0 0 1 35 6.019V22" stroke="#666" stroke-linejoin="round"/>
            <path stroke="#666" d="M13.5 27h8M13.5 32h6"/>
            <g stroke="#0793EA" stroke-linejoin="round">
                <path d="M16.5 17h8M20.5 17v7M24.5 12l-4 5-4-5M16.5 20h8"/>
            </g>
        </g>
    </g>
</svg>
