<svg width="24" height="24" xmlns="http://www.w3.org/2000/svg">
    <g fill="none" fill-rule="evenodd">
        <path d="M0 0h24v24H0z"/>
        <path d="m16.415 18.496 1.222-.705a.351.351 0 0 0 .139-.477l-1.696-2.937a.351.351 0 0 0-.482-.118l-1.347.777c-.728.42-1.645.196-2.048-.501l-1.233-2.136-1.23-2.13c-.403-.698-.139-1.605.59-2.025l1.374-.794a.352.352 0 0 0 .14-.477l-1.696-2.937a.352.352 0 0 0-.483-.118l-1.25.722c-1.689.975-2.301 3.076-1.368 4.693l4.62 8.001c.934 1.617 3.06 2.137 4.748 1.162z" fill="#000"/>
    </g>
</svg>
