<svg width="24" height="24" xmlns="http://www.w3.org/2000/svg">
    <g fill="none" fill-rule="evenodd">
        <path d="M0 0h24v24H0z"/>
        <path d="M13.698 21.568c2.76-.127 5.146-.697 5.29-4.715M4.964 7.965a6.965 6.965 0 0 1 13.931 0" stroke="#191919" stroke-linecap="round" stroke-linejoin="round"/>
        <path d="M14.067 20.782c-.002-.358-.309-.646-.685-.646H9.75c-.378 0-.685.291-.685.65v1.564c0 .358.307.65.685.65h3.641c.38 0 .687-.294.685-.654l-.01-1.564z" fill="#FFF"/>
        <path d="M14.067 20.782c-.002-.358-.309-.646-.685-.646H9.75c-.378 0-.685.291-.685.65v1.564c0 .358.307.65.685.65h3.641c.38 0 .687-.294.685-.654l-.01-1.564z" stroke="#191919" stroke-linecap="round" stroke-linejoin="round"/>
        <path d="M4.612 16.743c-.5 0-2.136-.155-2.136-2.136v-4.093c0-1.632 1.102-2.013 1.759-2.095l1.647-.022-.048 8.346H4.612z" fill="#0793EA"/>
        <path d="m5.875 7.92-1.698.026C3.057 8.086 2 8.816 2 10.515v4.092c0 1.915 1.34 2.612 2.612 2.612h1.263c.24 0 .435-.195.435-.436V8.355a.436.436 0 0 0-.435-.435m-.518.96v7.386h-.745c-.757 0-1.659-.288-1.659-1.66v-4.091c0-.95.435-1.493 1.294-1.617l1.11-.018" fill="#191919"/>
        <path d="m18.025 8.356 1.22.04c.502 0 2.136.155 2.136 2.136v4.092c0 1.633-1.101 2.015-1.758 2.097l-1.598.021V8.356z" fill="#0793EA"/>
        <path d="M19.247 7.92h-1.263a.436.436 0 0 0-.436.435v8.428c0 .241.196.436.436.436l1.698-.026c1.119-.139 2.177-.87 2.177-2.569v-4.092c0-1.915-1.341-2.612-2.612-2.612m0 .953c.756 0 1.659.288 1.659 1.659v4.092c0 .95-.436 1.493-1.294 1.617l-1.11.017V8.873h.745M9.68 12.118a.715.715 0 1 1-1.43 0 .715.715 0 0 1 1.43 0M12.645 12.118a.715.715 0 1 1-1.43 0 .715.715 0 0 1 1.43 0M15.509 12.118a.715.715 0 1 1-1.431 0 .715.715 0 0 1 1.43 0" fill="#191919"/>
    </g>
</svg>
