<svg width="16" height="16" xmlns="http://www.w3.org/2000/svg">
    <g fill="none" fill-rule="evenodd">
        <path fill="none" d="M0 0h16v16H0z"/>
        <path d="M4.532 1c-.879-.001-1.61.755-1.95 1.565l-1.17 2.792c-.013.027-.02.061-.032.088C.328 5.908-.057 6.793.007 7.781l.446 2.943c.09.477.39.73.948.77l-.002 1.894c0 .327.256.6.564.6l1.083.001c.308 0 .564-.272.565-.598l.001-1.888 8.782.009-.002 1.887c0 .327.256.6.564.6l1.083.001c.308 0 .564-.272.565-.599l.001-1.894h-.012c.557-.04.852-.292.949-.769l.451-2.942c.065-.98-.319-1.874-1.37-2.338a.474.474 0 0 0-.032-.089l-1.164-2.794c-.333-.804-1.07-1.568-1.947-1.568l-.968-.001L4.532 1z" fill="#0793EA"/>
        <path d="M3.61 6.476c-.147 0-.282.008-.41.024l.795-2.489C4.13 3.596 4.468 3 4.831 3h6.338c.362 0 .701.596.836 1.011L12.8 6.5a3.359 3.359 0 0 0-.41-.024H3.61z" fill="#FFF"/>
    </g>
</svg>
