<svg width="64" height="64" xmlns="http://www.w3.org/2000/svg">
    <g fill="none" fill-rule="evenodd">
        <path d="M0 0h64v64H0z"/>
        <g transform="translate(10 10)">
            <path d="M0 0h44v44H0z"/>
            <circle stroke="#666" stroke-width="2" stroke-linecap="round" stroke-linejoin="round" cx="16.5" cy="16.5" r="2.5"/>
            <path d="M11 26.813C11.09 23.586 13.518 21 16.499 21 19.537 21 22 23.686 22 27" stroke="#666" stroke-width="2"/>
            <path stroke="#666" stroke-width="2" stroke-linejoin="round" d="m25 16 10 .056M25 20l10 .056"/>
            <g transform="translate(28 28)" stroke="#0793EA" stroke-width="2">
                <circle cx="11" cy="11" r="10"/>
                <path d="m6.71 10.733 3.457 3.457 6.223-6.223"/>
            </g>
            <path d="M24.25 35H3V8.431C3 6.536 4.679 5 6.75 5h32.5C41.321 5 43 6.536 43 8.431v16.104" stroke="#666" stroke-width="2"/>
        </g>
    </g>
</svg>
