<?xml version="1.0" encoding="UTF-8"?>
<svg width="16px" height="16px" viewBox="0 0 16 16" version="1.1" xmlns="http://www.w3.org/2000/svg" xmlns:xlink="http://www.w3.org/1999/xlink">
    <title>7561A96E-3E77-47E5-B960-781167419379</title>
    <g id="03_Template" stroke="none" stroke-width="1" fill="none" fill-rule="evenodd">
        <g id="[PC]-Result-Message" transform="translate(-961.000000, -476.000000)">
            <g id="Result-Message" transform="translate(686.000000, 198.000000)">
                <g id="ResultMessage-/-PC-/-OrderNumber" transform="translate(203.000000, 250.000000)">
                    <g id="Car" transform="translate(72.000000, 28.000000)">
                        <rect id="Rectangle" x="0" y="0" width="16" height="16"></rect>
                        <path d="M11.6750487,2.5 C12.02625,2.50022474 12.3481291,2.68405409 12.5282055,2.97839654 L12.5888675,3.0938125 L14.3249375,7 L15,7 L15,8 L14.5,8 L14.5,13 C14.4994138,13.5125928 14.1136504,13.9349281 13.6165638,13.9931519 L13.5,14 L12,14 C11.4874072,13.9994138 11.0650719,13.6136504 11.0068481,13.1165638 L11,13 L11,12 L5,12 L5,13 C4.99941377,13.5125928 4.6136504,13.9349281 4.1165638,13.9931519 L4,14 L2.5,14 C1.98740718,13.9994138 1.56507192,13.6136504 1.5068481,13.1165638 L1.5,13 L1.5,8 L1,8 L1,7 L1.6750625,7 L3.4111325,3.093875 C3.55397633,2.77301796 3.8527121,2.5535386 4.1948393,2.50854907 L4.32495125,2.5 L11.6750487,2.5 Z M13,9 L11,9 L11,10.2 L13,10.2 L13,9 Z M5,9 L3,9 L3,10.2 L5,10.2 L5,9 Z M11.1382614,4 L4.60094619,4 L3.4,7 L12.4,6.99401855 L11.1382614,4 Z" id="Combined-Shape" fill="#191919" fill-rule="nonzero"></path>
                    </g>
                </g>
            </g>
        </g>
    </g>
</svg>