<?xml version="1.0" encoding="UTF-8"?>
<svg width="48px" height="48px" viewBox="0 0 48 48" version="1.1" xmlns="http://www.w3.org/2000/svg" xmlns:xlink="http://www.w3.org/1999/xlink">
    <title>pictogram / payment / ic_card@2x</title>
    <defs>
        <path d="M0.831046648,0 C0.372402979,0 0,0.373354294 0,0.833169581 L0,0.833169581 L0,4.16683042 C0,4.62762822 0.372402979,5 0.831046648,5 L0.831046648,5 L4.16895335,5 C4.62759702,5 5,4.62762822 5,4.16683042 L5,4.16683042 L5,0.833169581 C5,0.373354294 4.62759702,0 4.16895335,0 L4.16895335,0 L0.831046648,0 Z" id="path-1"></path>
    </defs>
    <g id="pictogram-/-payment-/-ic_card" stroke="none" stroke-width="1" fill="none" fill-rule="evenodd">
        <rect id="Rectangle" x="0" y="0" width="48" height="48"></rect>
        <g id="Group" transform="translate(10.000000, 14.000000)">
            <path d="M0,10.3827273 L0,20 L26,20 C27.1045695,20 28,19.1045695 28,18 L28,1.81818182 L28,1.81818182 C28,0.814545455 27.1646667,0 26.1333333,0 L1.86666667,0 C0.835333333,0 0,0.814545455 0,1.81818182 L0,4.92818182 L23.8308,4.92818182" id="Stroke-1" stroke="#666666" stroke-width="1.2"></path>
            <g id="Group-6" transform="translate(3.000000, 12.000000)">
                <mask id="mask-2" fill="white">
                    <use xlink:href="#path-1"></use>
                </mask>
                <g id="Clip-5"></g>
                <path d="M0.83124265,-0.00019650226 L4.16914935,-0.00019650226 C4.62877303,-0.00019650226 5.000196,0.373157791 5.000196,0.832973079 L5.000196,4.16663392 C5.000196,4.62743172 4.62877303,4.9998035 4.16914935,4.9998035 L0.83124265,4.9998035 C0.372598981,4.9998035 0.000196001568,4.62743172 0.000196001568,4.16663392 L0.000196001568,0.832973079 C0.000196001568,0.373157791 0.372598981,-0.00019650226 0.83124265,-0.00019650226 Z" id="Stroke-4" stroke="#0793EA" stroke-width="2" mask="url(#mask-2)"></path>
            </g>
        </g>
    </g>
</svg>