<svg width="80" height="80" xmlns="http://www.w3.org/2000/svg" xmlns:xlink="http://www.w3.org/1999/xlink">
    <defs>
        <path id="a" d="M0 0h80v80H0z"/>
        <path id="c" d="M0 0h9.892v6.99H0z"/>
    </defs>
    <g fill="none" fill-rule="evenodd">
        <mask id="b" fill="#fff">
            <use xlink:href="#a"/>
        </mask>
        <path mask="url(#b)" d="M0 1h80v80H0z"/>
        <g mask="url(#b)">
            <path d="M24.276 64.187h31.448c.62 0 1.035.411 1.035 1.028v4.112c0 .411.207.617.62.617H64c.414 0 .62-.206.62-.617V49.383c0-2.056-1.861-3.907-3.93-3.907H19.31c-2.069 0-3.93 1.851-3.93 3.907v19.944c0 .411.206.617.62.617h6.62c.414 0 .621-.206.621-.617v-4.112c0-.617.414-1.028 1.035-1.028M64 72h-6.62c-1.45 0-2.69-1.234-2.69-2.673v-3.084H25.31v3.084c0 1.44-1.24 2.673-2.69 2.673H16c-1.448 0-2.69-1.234-2.69-2.673V49.383c0-3.29 2.69-5.962 6-5.962h41.38c3.31 0 6 2.672 6 5.962v19.944C66.69 70.767 65.448 72 64 72" stroke="#333" stroke-width=".5" fill="#333"/>
            <path d="M48.276 61.514H31.724c-.62 0-1.034-.411-1.034-1.028s.413-1.028 1.034-1.028h16.552c.62 0 1.034.411 1.034 1.028s-.413 1.028-1.034 1.028M23.862 50.206c-1.448 0-2.69 1.233-2.69 2.672 0 1.44 1.242 2.673 2.69 2.673s2.69-1.233 2.69-2.673c0-1.439-1.242-2.672-2.69-2.672m0 7.401c-2.483 0-4.758-2.056-4.758-4.728 0-2.468 2.068-4.73 4.758-4.73s4.759 2.057 4.759 4.73c0 2.467-2.276 4.728-4.759 4.728M56.138 50.206c-1.448 0-2.69 1.233-2.69 2.672 0 1.44 1.242 2.673 2.69 2.673s2.69-1.233 2.69-2.673c0-1.439-1.242-2.672-2.69-2.672m0 7.401c-2.483 0-4.759-2.056-4.759-4.728 0-2.468 2.07-4.73 4.759-4.73 2.69 0 4.758 2.057 4.758 4.73-.206 2.467-2.275 4.728-4.758 4.728" stroke="#333" stroke-width=".5" fill="#333"/>
            <g transform="translate(10 38.075)">
                <mask id="d" fill="#fff">
                    <use xlink:href="#c"/>
                </mask>
                <path d="M3.517 2.056c-.827 0-1.448.617-1.448 1.44 0 .822.62 1.439 1.448 1.439h2.897c.62 0 1.034-.206 1.241-.823.207-.411.207-1.028 0-1.439-.207-.411-.62-.617-1.241-.617H3.517zm2.897 4.935H3.517C1.655 6.99 0 5.346 0 3.495 0 1.645 1.655 0 3.517 0h2.897C7.655 0 8.69.617 9.31 1.645c.62 1.028.828 2.467.207 3.495-.62 1.028-1.862 1.85-3.103 1.85z" stroke="#333" stroke-width=".5" fill="#333" mask="url(#d)"/>
            </g>
            <path d="M61.724 45.477c-.414 0-.827-.206-1.034-.617l-5.38-12.954c-.414-1.233-1.655-1.85-2.896-1.85H27.586c-1.241 0-2.482.822-2.896 1.85L19.31 44.86c-.207.617-.827.822-1.448.617-.62-.206-.828-.823-.62-1.44l5.379-12.953c.827-1.85 2.896-3.084 4.965-3.084h24.828a5.229 5.229 0 0 1 4.758 3.084l5.38 12.953c.207.617 0 1.028-.621 1.44h-.207z" stroke="#333" stroke-width=".5" fill="#333"/>
            <path d="M62.552 40.748c-.207.41-.414 1.028 0 1.439.414.41.827.822 1.241.822h2.897c.827 0 1.448-.617 1.448-1.439 0-.822-.62-1.44-1.448-1.44h-2.897c-.62 0-1.034.206-1.241.618m3.93 4.317h-2.896c-1.241 0-2.483-.616-3.103-1.85-.621-1.234-.621-2.467.207-3.495.62-1.028 1.655-1.645 2.896-1.645h2.897c1.862 0 3.517 1.645 3.517 3.495s-1.655 3.495-3.517 3.495" stroke="#333" stroke-width=".5" fill="#333"/>
        </g>
        <g mask="url(#b)" fill="#0793EA">
            <path d="M38.154 18.977a7.74 7.74 0 0 0 1.354-1.827l.626-1.17H46.44v-2.158h2.214v2.16h2.483v-2.159h2.214v2.16h3.455L59.29 13.5l-2.483-2.484-15.346-.001h-1.327l-.625-1.17A7.748 7.748 0 1 0 25.84 17.15a7.75 7.75 0 0 0 12.314 1.828M25.628 6.451c3.889-3.89 10.196-3.892 14.087-.002A9.993 9.993 0 0 1 41.46 8.8l16.263.002L62.42 13.5l-4.696 4.696-16.263-.001c-2.592 4.853-8.63 6.685-13.483 4.092s-6.687-8.63-4.095-13.483a10 10 0 0 1 1.745-2.353" stroke="#0793EA" stroke-width=".5"/>
            <path d="M29.543 11.931a2.213 2.213 0 1 0 3.13 3.131 2.213 2.213 0 0 0-3.13-3.13"/>
        </g>
    </g>
</svg>
