<svg xmlns="http://www.w3.org/2000/svg" width="18" height="18" viewBox="0 0 18 18">
    <g fill="none" fill-rule="evenodd">
        <g>
            <g>
                <path fill="#000" d="M4.25 7.5h9.5c1.105 0 2 .895 2 2v4H2.25v-4c0-1.105.895-2 2-2z" transform="translate(-20.000000, -738.000000) translate(20.000000, 738.000000)"/>
                <path fill="#FFF" d="M11.25 11.25H12.75V12.25H11.25zM5.25 11.25H6.75V12.25H5.25z" transform="translate(-20.000000, -738.000000) translate(20.000000, 738.000000)"/>
                <path fill="#000" d="M2.25 12H4.5v2c0 .552-.448 1-1 1h-.25c-.552 0-1-.448-1-1v-2zM13.5 12h2.25v2c0 .552-.448 1-1 1h-.25c-.552 0-1-.448-1-1v-2zM5.367 3h7.266c.497 0 .92.366.99.859l.627 4.391H3.75l.627-4.391c.07-.493.493-.859.99-.859z" transform="translate(-20.000000, -738.000000) translate(20.000000, 738.000000)"/>
                <path fill="#FFF" d="M6.354 4.507h5.08c.494 0 .914.361.989.85L12.75 7.5H5.043l.322-2.142c.074-.489.494-.85.99-.85z" transform="translate(-20.000000, -738.000000) translate(20.000000, 738.000000)"/>
                <path fill="#000" d="M13.5 6.75h2.25c.414 0 .75.336.75.75s-.336.75-.75.75H13.5v-1.5z" transform="translate(-20.000000, -738.000000) translate(20.000000, 738.000000)"/>
                <path fill="#000" d="M1.5 6.75h2.25c.414 0 .75.336.75.75s-.336.75-.75.75H1.5v-1.5z" transform="translate(-20.000000, -738.000000) translate(20.000000, 738.000000) translate(3.000000, 7.500000) scale(-1, 1) translate(-3.000000, -7.500000)"/>
            </g>
        </g>
    </g>
</svg>
