<?xml version="1.0" encoding="UTF-8"?>
<svg width="48px" height="48px" viewBox="0 0 48 48" version="1.1" xmlns="http://www.w3.org/2000/svg" xmlns:xlink="http://www.w3.org/1999/xlink">
    <title>8BD13543-D7BD-4A7B-AF8F-08228DEF8CCA</title>
    <g id="home-&gt;-common-0924_ic-upd" stroke="none" stroke-width="1" fill="none" fill-rule="evenodd">
        <g id="PC-JP-DS-FE-CO-Main_01basic-0" transform="translate(-1372.000000, -24.000000)">
            <g id="ic_bag" transform="translate(1372.000000, 24.000000)">
                <rect id="Rectangle" x="0" y="0" width="48" height="48"></rect>
                <g id="ic_shopping" transform="translate(14.000000, 12.000000)" stroke="#FFFFFF">
                    <path d="M19.5,7.5 L19.5,21 C19.5,21.4142136 19.3321068,21.7892136 19.0606602,22.0606602 C18.7892136,22.3321068 18.4142136,22.5 18,22.5 L18,22.5 L2,22.5 C1.58578644,22.5 1.21078644,22.3321068 0.939339828,22.0606602 C0.667893219,21.7892136 0.5,21.4142136 0.5,21 L0.5,21 L0.5,7.5 L19.5,7.5 Z" id="Rectangle"></path>
                    <path d="M6,5 L6,3.96078326 C6,1.77330307 7.790861,0 10,0 C12.209139,0 14,1.77330307 14,3.96078326 L14,5" id="Path"></path>
                </g>
            </g>
        </g>
    </g>
</svg>