<svg width="24" height="24" xmlns="http://www.w3.org/2000/svg">
    <g fill="none" fill-rule="evenodd">
        <path d="M7.501 4a4.27 4.27 0 0 0-3.2 1.412C3.462 6.337 3 7.615 3 9.012c0 1.473.539 2.79 1.747 4.271 1.168 1.432 2.906 2.936 4.917 4.678l.004.003c.703.609 1.5 1.299 2.33 2.036.835-.738 1.633-1.43 2.338-2.04 2.011-1.741 3.749-3.245 4.917-4.677C20.46 11.803 21 10.485 21 9.011c0-1.396-.462-2.674-1.301-3.599A4.27 4.27 0 0 0 16.499 4c-.907 0-1.739.293-2.473.87-.655.514-1.111 1.165-1.378 1.62a.746.746 0 0 1-1.296 0c-.267-.455-.723-1.106-1.378-1.62A3.922 3.922 0 0 0 7.501 4z" fill-rule="nonzero" stroke="#191919" stroke-linejoin="round"/>
        <path d="M0 0h24v24H0z"/>
    </g>
</svg>
