<?xml version="1.0" encoding="UTF-8"?>
<svg width="24px" height="24px" viewBox="0 0 24 24" version="1.1" xmlns="http://www.w3.org/2000/svg" xmlns:xlink="http://www.w3.org/1999/xlink">
    <title>4F7685AD-FAF9-4279-A741-F5E52C3E7865</title>
    <g id="❇️-icon" stroke="none" stroke-width="1" fill="none" fill-rule="evenodd">
        <g id="[PC/MO]Icon" transform="translate(-552.000000, -2496.000000)">
            <g id="pictogram-/-3d-configurator-/-ic_testdrive" transform="translate(552.000000, 2496.000000)">
                <rect id="Rectangle" x="0" y="0" width="24" height="24"></rect>
                <g id="car" transform="translate(1.505795, 4.285467)">
                    <path d="M10.4347826,14.6086957 C7.56844195,14.6086957 4.7021013,14.490592 1.83576064,14.2543846 C0.798382189,14.1689155 1.27472674e-16,13.3020345 0,12.2611412 L0,8.60869565 L0,8.60869565 L2.08695652,5.2173913 L2.83464249,2.03972594 C3.01779549,1.26123195 3.64712137,0.666706172 4.43476122,0.52806499 C6.43476835,0.176021663 8.43477548,0 10.4347826,0 C12.4347864,0 14.4347901,0.17602107 16.4347939,0.52806321 C17.2224258,0.666702314 17.8517453,1.26122193 18.0349173,2.03970302 L18.7826087,5.2173913 L18.7826087,5.2173913 L20.8695652,8.60869565 L20.8695652,12.261137 C20.8695678,13.302022 20.0711922,14.1688961 19.0338236,14.254383 C16.1674766,14.4905914 13.3011296,14.6086957 10.4347826,14.6086957 Z" id="Path-4" stroke="#666666" stroke-linecap="round"></path>
                    <path d="M0,5.56521739 C4.01392132,6.02898551 7.49218219,6.26086957 10.4347826,6.26086957 C13.377383,6.26086957 16.8556439,6.02898551 20.8695652,5.56521739" id="Path-5" stroke="#666666" fill="#FFFFFF" stroke-linecap="square" stroke-linejoin="round"></path>
                    <line x1="16" y1="9.46086957" x2="17.3913043" y2="9.32173913" id="Path-6" stroke="#0793EA" stroke-linecap="square" stroke-linejoin="round"></line>
                    <line x1="5.56521739" y1="9.46086957" x2="4.17391304" y2="9.32173913" id="Path-6" stroke="#0793EA" stroke-linecap="square" stroke-linejoin="round"></line>
                    <path d="M5.39130435,14.8043478 C5.39130435,15.0804902 5.16744672,15.3043478 4.89130435,15.3043478 L2.89130435,15.3043478 C2.61516197,15.3043478 2.39130435,15.0804902 2.39130435,14.8043478" id="Path" stroke="#666666" stroke-linejoin="bevel"></path>
                    <path d="M18.3913043,14.8043478 C18.3913043,15.0804902 18.1674467,15.3043478 17.8913043,15.3043478 L15.8913043,15.3043478 C15.615162,15.3043478 15.3913043,15.0804902 15.3913043,14.8043478" id="Path-Copy" stroke="#666666" stroke-linejoin="bevel"></path>
                </g>
            </g>
        </g>
    </g>
</svg>