<svg xmlns="http://www.w3.org/2000/svg" width="18" height="18" viewBox="0 0 18 18">
    <g fill="none" fill-rule="evenodd">
        <g>
            <g>
                <path d="M0 0H18V18H0z" transform="translate(-20.000000, -568.000000) translate(20.000000, 568.000000)"/>
                <path fill="#000" d="M8.975 1.125c1.545 0 3.09.583 4.268 1.75 2.357 2.334 2.198 5.97 0 8.451l-.467.532c-1.958 2.244-3.05 3.72-3.8 5.203-.806-1.597-2.012-3.187-4.268-5.735-2.197-2.48-2.357-6.117 0-8.45 1.179-1.168 2.724-1.751 4.267-1.751zM9 4.5c1.45 0 2.625 1.175 2.625 2.625S10.45 9.75 9 9.75 6.375 8.575 6.375 7.125 7.55 4.5 9 4.5z" transform="translate(-20.000000, -568.000000) translate(20.000000, 568.000000)"/>
            </g>
        </g>
    </g>
</svg>
