<?xml version="1.0" encoding="UTF-8"?>
<svg width="24px" height="24px" viewBox="0 0 24 24" version="1.1" xmlns="http://www.w3.org/2000/svg" xmlns:xlink="http://www.w3.org/1999/xlink">
    <title>CD765A29-1A67-4C1F-ABD5-776CF544324B</title>
    <g id="❇️-icon" stroke="none" stroke-width="1" fill="none" fill-rule="evenodd">
        <g id="[PC/MO]Icon" transform="translate(-453.000000, -549.000000)">
            <g id="common-/-content-/-ic_clock_24_w" transform="translate(453.000000, 549.000000)">
                <rect id="Rectangle" x="0" y="0" width="24" height="24"></rect>
                <path d="M12,2.5 C14.6232478,2.5 16.9982291,3.56339452 18.7174082,5.28257361 C20.4366118,7.00177728 21.5,9.37678881 21.5,12 C21.5,14.6232112 20.4366118,16.9982227 18.7174082,18.7174264 C16.9982291,20.4366055 14.6232478,21.5 12,21.5 C9.37675216,21.5 7.00177092,20.4366055 5.28259184,18.7174264 C3.56338817,16.9982227 2.5,14.6232112 2.5,12 C2.5,9.37678881 3.56338817,7.00177728 5.28259184,5.28257361 C7.00177092,3.56339452 9.37675216,2.5 12,2.5 Z" id="Stroke-1" stroke="#FFFFFF"></path>
                <polyline id="Stroke-3" stroke="#FFFFFF" points="12 6 12 12.8646478 16 17"></polyline>
            </g>
        </g>
    </g>
</svg>