<svg width="76" height="76" xmlns="http://www.w3.org/2000/svg">
    <g fill="none" fill-rule="evenodd">
        <path d="M23 1c12.15 0 22 9.85 22 22s-9.85 22-22 22S1 35.15 1 23 10.85 1 23 1zM50.402 31.153A21.983 21.983 0 0 1 53 31c12.15 0 22 9.85 22 22s-9.85 22-22 22-22-9.85-22-22c0-.88.052-1.747.152-2.6" stroke="#666" stroke-width="2"/>
        <path d="M15 27c2.236 5.09 5.057 6.028 7.861 6 2.804-.028 5.366-.61 8.139-6" stroke="#0793EA" stroke-width="2" stroke-linecap="square"/>
        <path d="M47 45a2 2 0 1 1-.001 4.001A2 2 0 0 1 47 45M17 16a2 2 0 1 1-.001 4.001A2 2 0 0 1 17 16M59 45a2 2 0 1 1-.001 4.001A2 2 0 0 1 59 45M29 16a2 2 0 1 1-.001 4.001A2 2 0 0 1 29 16" fill="#666"/>
        <path d="M45 61c2.236-5.09 5.057-6.028 7.861-6 2.804.028 5.366.61 8.139 6" stroke="#0793EA" stroke-width="2" stroke-linecap="square"/>
    </g>
</svg>
