<svg xmlns="http://www.w3.org/2000/svg" width="16" height="156" viewBox="0 0 16 156">
    <g fill="none" fill-rule="evenodd">
        <g>
            <g>
                <path stroke="#CCC" stroke-dasharray="2" d="M-55.125 78L70.875 78" transform="translate(-1009.000000, -300.000000) translate(1009.000000, 300.000000) translate(7.875000, 78.000000) rotate(90.000000) translate(-7.875000, -78.000000)"/>
                <path fill="#CCC" fill-rule="nonzero" d="M7.875 149c3.463 0 6.34 2.515 6.9 5.818l.028.182H16v1h-2.125c0-3.314-2.686-6-6-6s-6 2.686-6 6H0v-1h.946l.028-.182c.549-3.226 3.305-5.7 6.66-5.814l.241-.004zm-6-149c0 3.314 2.686 6 6 6s6-2.686 6-6H16v1h-1.197l-.027.182c-.549 3.226-3.305 5.7-6.66 5.814L7.875 7c-3.463 0-6.34-2.515-6.9-5.818L.945 1H0V0h1.875z" transform="translate(-1009.000000, -300.000000) translate(1009.000000, 300.000000)"/>
            </g>
            <path fill="#CCC" fill-rule="nonzero" d="M1009 300v1H701v154h308v1H700V300h309zm81 0v156h-65v-1h64V301h-64v-1h65z" transform="translate(-1009.000000, -300.000000)"/>
        </g>
    </g>
</svg>
