<?xml version="1.0" encoding="UTF-8"?>
<svg width="16px" height="16px" viewBox="0 0 16 16" version="1.1" xmlns="http://www.w3.org/2000/svg" xmlns:xlink="http://www.w3.org/1999/xlink">
    <title>A7255AE0-D1FF-4A42-A153-B80458D4B93C</title>
    <g id="❇️-icon" stroke="none" stroke-width="1" fill="none" fill-rule="evenodd">
        <g id="[PC/MO]Icon" transform="translate(-1157.000000, -615.000000)">
            <g id="common-/-content-/-ic_attachments" transform="translate(1157.000000, 615.000000)">
                <rect id="Rectangle" x="0" y="0" width="16" height="16"></rect>
                <path d="M5.07106145,9.35855864 L12.0335374,9.35855864 C12.5828561,9.35855864 13.0281669,8.91084787 13.0281669,8.35857864 C13.0281669,7.80628942 12.5828561,7.35857864 12.0335374,7.35857864 L3.0817826,7.35857864 C2.01015062,7.35857864 1.14142136,8.25400927 1.14142136,9.35857864 C1.14142136,10.463148 2.01014938,11.3585786 3.0817826,11.3585786 L12.1575031,11.3585786 C13.8054756,11.3585786 15.1414214,10.0154329 15.1414214,8.35857864 C15.1414214,6.70172439 13.8054756,5.35857864 12.1575031,5.35857864 L5.19502709,5.35857864" id="Path" stroke="#666666" transform="translate(8.141421, 8.358579) rotate(135.000000) translate(-8.141421, -8.358579) "></path>
            </g>
        </g>
    </g>
</svg>