<svg width="80" height="80" xmlns="http://www.w3.org/2000/svg">
    <g fill="none" fill-rule="evenodd">
        <path d="M0 0h80v80H0z"/>
        <path d="M49 62.237V65h7V46.91h3.88V31.24C59.627 29.08 58.333 28 56 28h-7.91c-2.137.732-3.206 1.812-3.206 3.24v15.67H49v15.327z" fill="#0793EA"/>
        <path d="M48.41 27.057c2.726-.076 5.454-.076 8.181 0 2.387.065 4.294 1.997 4.404 4.39l.005.22v16.332h-3.994V65h-2V46L59 45.998V31.667c0-1.364-1.011-2.481-2.301-2.601l-.163-.01c-2.69-.075-5.382-.075-8.07 0-1.314.036-2.378 1.1-2.46 2.441l-.006.17v14.332l4.004.001v19h-2V48H44V31.667c0-2.494 1.95-4.543 4.41-4.61z" fill="#333" fill-rule="nonzero"/>
        <path d="M56 19.5c0-1.93-1.57-3.5-3.5-3.5S49 17.57 49 19.5c0 1.931 1.57 3.5 3.5 3.5s3.5-1.569 3.5-3.5z" stroke="#333" stroke-width="2" fill="#0793EA"/>
        <path d="M40 27v2l-2.102.007-.773.008-.727.012-.705.016c-1.45.037-2.601 1.118-2.688 2.45l-.005.162V46h5.008v19h-2V48H31V31.655c0-2.438 1.95-4.428 4.422-4.601l.219-.01 1.258-.026 1.462-.014.828-.003L40 27zM28 27v2l-2.102.007-.773.008-.727.012-.705.016c-1.45.037-2.601 1.118-2.688 2.45l-.005.162V46h5.008v19h-2V48H19V31.655c0-2.438 1.95-4.428 4.422-4.601l.219-.01 1.258-.026 1.462-.014.828-.003L28 27z" fill="#333" fill-rule="nonzero"/>
        <path d="M43 19.5c0-1.93-1.57-3.5-3.5-3.5S36 17.57 36 19.5c0 1.931 1.57 3.5 3.5 3.5s3.5-1.569 3.5-3.5zM31 19.5c0-1.93-1.57-3.5-3.5-3.5S24 17.57 24 19.5c0 1.931 1.57 3.5 3.5 3.5s3.5-1.569 3.5-3.5z" stroke="#1D1D1B" stroke-width="2"/>
    </g>
</svg>
