<?xml version="1.0" encoding="utf-8"?>
<!-- Generator: Adobe Illustrator 25.4.1, SVG Export Plug-In . SVG Version: 6.00 Build 0)  -->
<svg version="1.1" id="레이어_1" xmlns="http://www.w3.org/2000/svg" xmlns:xlink="http://www.w3.org/1999/xlink" x="0px"
	 y="0px" viewBox="0 0 64 64" style="enable-background:new 0 0 64 64;" xml:space="preserve">
<style type="text/css">
	.st0{fill:#666666;}
	.st1{fill:#0793EA;}
	.st2{fill:none;}
</style>
<g>
	<g>
		<path class="st0" d="M35.6,60c-0.2,0-0.5-0.1-0.6-0.2l-3-2.5l-3,2.5c-0.4,0.3-0.9,0.3-1.3,0l-3-2.5l-3,2.5c-0.4,0.3-0.9,0.3-1.3,0
			l-3-2.5l-3,2.5C14.2,59.9,14,60,13.8,60H12c-0.6,0-1-0.4-1-1V10c0-2.8,2.2-5,5-5h32c2.8,0,5,2.2,5,5v49c0,0.6-0.4,1-1,1h-1.8
			c-0.2,0-0.5-0.1-0.6-0.2l-3-2.5l-3,2.5c-0.4,0.3-0.9,0.3-1.3,0l-3-2.5l-3,2.5C36.1,59.9,35.9,60,35.6,60z M50.5,58H51V10
			c0-1.7-1.3-3-3-3H16c-1.7,0-3,1.3-3,3v48h0.5l3.4-2.8c0.4-0.3,0.9-0.3,1.3,0l3,2.5l3-2.5c0.4-0.3,0.9-0.3,1.3,0l3,2.5l3-2.5
			c0.4-0.3,0.9-0.3,1.3,0l3,2.5l3-2.5c0.4-0.3,0.9-0.3,1.3,0l3,2.5l3-2.5c0.4-0.3,0.9-0.3,1.3,0L50.5,58z"/>
		<polygon class="st1" points="37.8,18.6 36.2,17.4 32,22.7 27.8,17.4 26.2,18.6 29.9,23.3 27.5,23.3 27.5,25.3 31,25.3 31,26.6 
			27.5,26.6 27.5,28.6 31,28.6 31,32 33,32 33,28.6 36.5,28.6 36.5,26.6 33,26.6 33,25.3 36.5,25.3 36.5,23.3 34.1,23.3 		"/>
		<rect x="22" y="37.5" class="st0" width="20" height="2"/>
		<rect x="22" y="43.5" class="st0" width="20" height="2"/>
	</g>
	<rect class="st2" width="64" height="64"/>
</g>
</svg>
