<svg width="80" height="80" xmlns="http://www.w3.org/2000/svg">
    <g fill="none" fill-rule="evenodd">
        <path d="M0 0h80v80H0z"/>
        <g transform="translate(14 13)" stroke="#333" stroke-width="2">
            <rect x="4" y="23" width="44" height="30" rx="2"/>
            <path d="M19.386 1.05c.87-.159 1.66.079 2.376.682 1.671 1.406 2.954 4.473 3.972 9.102-5.524-.731-9.177-1.76-10.89-3.201-.344-.29-.596-.59-.732-.919a1.499 1.499 0 0 1-.079-.882c.171-.874.891-1.805 2.043-2.848 1.193-1.08 2.286-1.748 3.31-1.934zM32.614 1.05c-.87-.159-1.66.079-2.376.682-1.671 1.406-2.954 4.473-3.972 9.102 5.524-.731 9.177-1.76 10.89-3.201.344-.29.596-.59.732-.919.116-.278.14-.573.079-.882-.171-.874-.891-1.805-2.043-2.848-1.193-1.08-2.286-1.748-3.31-1.934z"/>
            <rect fill="#0793EA" x="1" y="12.983" width="50" height="10" rx="2"/>
            <path d="M30 52.983h-8v-41a.997.997 0 0 1 1-1h6a.997.997 0 0 1 1 1v41z" fill="#FFF"/>
        </g>
    </g>
</svg>
