<svg width="48" height="24" viewBox="0 0 48 24" xmlns="http://www.w3.org/2000/svg" xmlns:xlink="http://www.w3.org/1999/xlink">
    <defs>
        <path id="a" d="M0 0h28v20H0z"/>
    </defs>
    <g fill="none" fill-rule="evenodd">
        <path fill="none" d="M0 0h48v24H0z"/>
        <g transform="translate(10 2)">
            <mask id="b" fill="#fff">
                <use xlink:href="#a"/>
            </mask>
            <path d="M25.715 0H2.285C1.025 0 0 .991 0 2.208v3.438h23.492v-.952H.966V2.208c0-.692.592-1.256 1.319-1.256h23.43c.727 0 1.32.564 1.32 1.256v15.411a1.44 1.44 0 0 1-1.45 1.429H.966v-8.683H0V20h25.586C26.916 20 28 18.932 28 17.619V2.208C28 .991 26.975 0 25.715 0" fill="#666" mask="url(#b)"/>
            <path d="M7 12a1 1 0 0 1 1 1v3a1 1 0 0 1-1 1H4a1 1 0 0 1-1-1v-3a1 1 0 0 1 1-1h3zm0 1H4v3h3v-3z" fill="#0793EA" fill-rule="nonzero" mask="url(#b)"/>
        </g>
    </g>
</svg>
