<?xml version="1.0" encoding="utf-8"?>
<!-- Generator: Adobe Illustrator 25.4.1, SVG Export Plug-In . SVG Version: 6.00 Build 0)  -->
<svg version="1.1" id="레이어_1" xmlns="http://www.w3.org/2000/svg" xmlns:xlink="http://www.w3.org/1999/xlink" x="0px"
	 y="0px" viewBox="0 0 64 64" style="enable-background:new 0 0 64 64;" xml:space="preserve">
<style type="text/css">
	.st0{fill:#666666;}
	.st1{fill:#0793EA;}
	.st2{fill:none;}
</style>
<rect x="22.2" y="18" class="st0" width="20" height="2"/>
<rect x="22.2" y="24" class="st0" width="20" height="2"/>
<rect x="22.2" y="30" class="st0" width="20" height="2"/>
<path class="st0" d="M34,57H11V12c0-2.8,2.2-5,5-5h32c2.8,0,5,2.2,5,5v22h-2V12c0-1.7-1.3-3-3-3H16c-1.7,0-3,1.3-3,3v43h21V57z"/>
<path class="st1" d="M59.5,43.5l-4.9-4.9c-0.7-0.7-2-0.7-2.7,0L38.6,51.9c-0.4,0.3-0.6,0.8-0.6,1.3V59c0,0.6,0.4,1,1,1h6.2
	c0.3,0,0.5-0.1,0.7-0.3l13.6-13.6c0.4-0.3,0.6-0.8,0.6-1.3S59.9,43.9,59.5,43.5z M44.8,58H40v-4.8l9.9-9.9l4.8,4.8L44.8,58z
	 M56.1,46.7l-4.8-4.8l1.9-1.9l4.8,4.8L56.1,46.7z"/>
<rect class="st2" width="64" height="64"/>
<rect x="0" y="0.1" class="st2" width="64" height="64"/>
</svg>
