<svg width="64" height="64" xmlns="http://www.w3.org/2000/svg">
    <g fill="none" fill-rule="evenodd">
        <path d="M0 0h64v64H0z"/>
        <g stroke-width="2">
            <path d="M13 47V20.71l19.417-7.294a3.143 3.143 0 0 1 2.213 0L54 20.712h0V35" stroke="#666" stroke-linecap="square"/>
            <path d="M24.5 44h1a.5.5 0 1 1 0 1h-1a.5.5 0 1 1 0-1z" stroke="#666" fill="#0793EA" stroke-linejoin="bevel"/>
            <path d="M35 44h-.989c-3.516 0-7.033-.156-10.55-.468A1.612 1.612 0 0 1 22 41.919v-4.901l2.402-3.947.724-3.108a3.217 3.217 0 0 1 2.612-2.456A39.255 39.255 0 0 1 34.01 27c2.091 0 4.182.169 6.274.507a3.217 3.217 0 0 1 2.612 2.456l.723 3.108 1.294 2.429" stroke="#666" stroke-linecap="square" stroke-linejoin="bevel"/>
            <path d="M22 33c4.616.667 8.616 1 12 1 3.384 0 7.384-.333 12-1" stroke="#666" fill="#FFF" stroke-linecap="square" stroke-linejoin="round"/>
            <path stroke="#666" stroke-linecap="square" stroke-linejoin="round" d="m40 37.6 1.99-.199M28 37.6l-1.99-.198"/>
            <path d="M45.269 56H40v-4.957c0-.2.08-.391.22-.532l11.29-11.29a.753.753 0 0 1 1.065 0l4.205 4.204a.753.753 0 0 1 0 1.064L45.269 56z" stroke="#0793EA" stroke-linecap="round" stroke-linejoin="round"/>
            <path stroke="#0793EA" stroke-linecap="square" stroke-linejoin="round" d="m49 42 5 5"/>
        </g>
    </g>
</svg>
