<svg width="48" height="48" viewBox="0 0 48 48" xmlns="http://www.w3.org/2000/svg">
    <g fill="none" fill-rule="evenodd">
        <path d="M0 0h48v48H0z"/>
        <path d="M21.972 45H4V6.2A3.2 3.2 0 0 1 7.2 3H32a4 4 0 0 1 4 4v18.02" stroke="#666" stroke-width="2"/>
        <g stroke="#0793EA" stroke-linejoin="round" stroke-width="2">
            <path d="M32.269 45H27v-4.957c0-.2.08-.391.22-.532l11.29-11.29a.753.753 0 0 1 1.065 0l4.205 4.204a.753.753 0 0 1 0 1.064L32.269 45z" stroke-linecap="round"/>
            <path stroke-linecap="square" d="m36 31 4.46 4.46"/>
        </g>
        <path stroke="#666" stroke-width="2" stroke-linecap="square" d="M14 11h12M14 16h12M14 21h12"/>
    </g>
</svg>
