<svg width="64" height="64" xmlns="http://www.w3.org/2000/svg">
    <g fill="none" fill-rule="evenodd">
        <path d="M29.616 8.195a5 5 0 0 1 5.688 2.268L57.63 48.368a5 5 0 0 1-4.307 7.538H10a4.999 4.999 0 0 1-4.374-7.422L26.62 10.578a4.984 4.984 0 0 1 2.994-2.383z" fill="#FFF"/>
        <path d="M29.616 8.195a5 5 0 0 1 5.688 2.268L57.63 48.368a5 5 0 0 1-4.307 7.538H10a4.999 4.999 0 0 1-4.374-7.422L26.62 10.578a4.984 4.984 0 0 1 2.994-2.383z" stroke="#CCC" stroke-width="2"/>
        <path d="M31.32 23.906a1.5 1.5 0 0 1 1.5 1.5v15a1.5 1.5 0 0 1-3 0v-15a1.5 1.5 0 0 1 1.5-1.5M31.32 43.906a1.5 1.5 0 1 1-.001 3 1.5 1.5 0 0 1 0-3" fill="#0793EA"/>
    </g>
</svg>
