<svg width="80" height="80" xmlns="http://www.w3.org/2000/svg">
    <g fill="none" fill-rule="evenodd">
        <path d="M0 0h80v80H0z"/>
        <path stroke="#333" stroke-width="3" d="M43.083 65H5V15h70V41.301"/>
        <path d="m5 20 29.234 25.82c3.632 2.45 6.974 2.45 10.027 0C47.315 43.371 57.354 34.764 74.38 20M27.168 40 4.971 56.972M50.971 40l7.197 5.972" stroke="#333" stroke-width="3"/>
        <path d="m62 46.686-4.525 4.526 2.15 2.15 4.525-4.526a4.964 4.964 0 0 1 7.014 0 4.964 4.964 0 0 1 0 7.014l-4.525 4.526 2.15 2.15L73.313 58a8.003 8.003 0 0 0 0-11.314 8.003 8.003 0 0 0-11.314 0zm-3.394 16.97 9.05-9.05-2.262-2.263-9.05 9.051 2.262 2.263zm-5.77 3.508a4.964 4.964 0 0 1 0-7.014l4.525-4.526-2.15-2.15L50.687 58a8.003 8.003 0 0 0 0 11.314 8.003 8.003 0 0 0 11.314 0l4.525-4.526-2.15-2.15-4.525 4.526a4.964 4.964 0 0 1-7.014 0z" fill="#0793EA"/>
    </g>
</svg>
