<svg width="96" height="96" xmlns="http://www.w3.org/2000/svg">
    <g fill="none" fill-rule="evenodd">
        <path d="M0 0h96v96H0z"/>
        <path stroke="#191919" stroke-width="3" stroke-linecap="round" stroke-linejoin="round" d="M31.066 25.969H16.901M16.901 25.969l7.634 31.549c.276 1.288 1.472 2.208 2.852 2.208h44.794c1.288 0 2.484-.92 2.76-2.208l6.99-28.054c.184-.828 0-1.747-.552-2.391-.552-.644-1.379-1.104-2.207-1.104h-8.186M16.901 25.969l-2.575-10.762C14.05 13.92 12.854 13 11.474 13H2"/>
        <path d="M65.19 81.341c-4.046 0-7.265-3.219-7.265-7.174 0-3.956 3.31-7.175 7.266-7.175 3.955 0 7.266 3.22 7.266 7.175 0 3.955-3.22 7.174-7.266 7.174" fill="#FFF"/>
        <path d="M65.19 65.613c-4.782 0-8.645 3.863-8.645 8.554 0 4.69 3.863 8.554 8.646 8.554 4.783 0 8.646-3.863 8.646-8.554 0-4.691-3.863-8.554-8.646-8.554m0 2.759c3.219 0 5.887 2.576 5.887 5.795 0 3.22-2.668 5.795-5.887 5.795-3.22 0-5.887-2.575-5.887-5.795 0-3.22 2.576-5.795 5.887-5.795" fill="#191919"/>
        <path d="M33.826 81.341c-4.047 0-7.267-3.219-7.267-7.174 0-3.956 3.311-7.175 7.267-7.175 3.955 0 7.266 3.22 7.266 7.175 0 3.955-3.22 7.174-7.266 7.174" fill="#FFF"/>
        <path d="M33.826 65.613c-4.784 0-8.646 3.863-8.646 8.554 0 4.69 3.863 8.554 8.646 8.554 4.782 0 8.645-3.863 8.645-8.554 0-4.691-3.862-8.554-8.645-8.554m0 2.759c3.218 0 5.886 2.576 5.886 5.795 0 3.22-2.668 5.795-5.886 5.795-3.22 0-5.887-2.575-5.887-5.795 0-3.22 2.668-5.795 5.887-5.795" fill="#191919"/>
        <path d="M51.026 44.09c-7.542 0-13.705-6.072-13.705-13.522s6.163-13.52 13.705-13.52 13.613 6.161 13.613 13.52c0 7.358-6.071 13.521-13.613 13.521" fill="#FFF"/>
        <path d="M51.026 15.76c-8.278 0-15.085 6.622-15.085 14.9s6.715 14.901 15.085 14.901c8.278 0 15.085-6.623 15.085-14.9 0-8.279-6.807-14.902-15.085-14.902m0 2.76c6.807 0 12.325 5.426 12.325 12.141 0 6.714-5.518 12.141-12.325 12.141-6.807 0-12.325-5.427-12.325-12.14 0-6.716 5.518-12.143 12.325-12.143" fill="#0793E9"/>
        <path stroke="#0793E9" stroke-width="3" stroke-linecap="round" stroke-linejoin="round" d="M44.587 30.568h12.877M51.026 24.129v12.877"/>
    </g>
</svg>
