<svg width="80" height="80" xmlns="http://www.w3.org/2000/svg">
    <g fill="none" fill-rule="evenodd">
        <g>
            <path opacity=".198" d="M0 0h80v80H0z"/>
            <path d="M45 8h19.5c1.38 0 2.5 1.154 2.5 2.578v60.844C67 72.846 65.88 74 64.5 74h-49c-1.38 0-2.5-1.154-2.5-2.578V10.578C13 9.154 14.12 8 15.5 8H35" stroke="#333" stroke-width="2.5"/>
            <rect stroke="#333" stroke-width="2.5" x="36.25" y="3.25" width="7.5" height="11.5" rx="2.5"/>
            <rect fill="#333" x="22" y="55" width="36" height="2.5" rx="1.25"/>
            <rect fill="#333" x="22" y="62" width="36" height="2.5" rx="1.25"/>
        </g>
        <path d="M28 23h24v24H28z"/>
        <path d="M49.6 33.8a1.2 1.2 0 0 1 1.2 1.2v9.6a1.2 1.2 0 0 1-1.2 1.2h-1.2a1.2 1.2 0 0 1-1.2-1.2v-1.2H32.8v1.2a1.2 1.2 0 0 1-1.2 1.2h-1.2a1.2 1.2 0 0 1-1.2-1.2V35a1.2 1.2 0 0 1 1.2-1.2h19.2zm-3 2.4a1.8 1.8 0 1 0 0 3.6 1.8 1.8 0 0 0 0-3.6zm-13.2 0a1.8 1.8 0 1 0 0 3.6 1.8 1.8 0 0 0 0-3.6z" fill="#0793EA"/>
        <path d="m47.463 27.56 2.107 7.68H30.43l1.874-7.498 15.16-.182z" stroke="#0793EA" stroke-width="1.92"/>
    </g>
</svg>
