<?xml version="1.0" encoding="utf-8"?>
<!-- Generator: Adobe Illustrator 25.4.1, SVG Export Plug-In . SVG Version: 6.00 Build 0)  -->
<svg version="1.1" id="레이어_1" xmlns="http://www.w3.org/2000/svg" xmlns:xlink="http://www.w3.org/1999/xlink" x="0px"
	 y="0px" viewBox="0 0 64 64" style="enable-background:new 0 0 64 64;" xml:space="preserve">
<style type="text/css">
	.st0{fill:#0793EA;}
	.st1{fill:#666666;}
	.st2{fill:none;}
</style>
<g>
	<g id="ic_contract-completion">
		<path class="st0" d="M51,64c-7.2,0-13-5.8-13-13s5.8-13,13-13s13,5.8,13,13S58.2,64,51,64z M51,40c-6.1,0-11,4.9-11,11
			s4.9,11,11,11s11-4.9,11-11S57.1,40,51,40z"/>
		<polygon class="st0" points="49.2,55.9 44.3,51 45.7,49.6 49.2,53.1 56.3,46 57.7,47.4 		"/>
		<path class="st1" d="M34.2,52H11c-3.3,0-6-2.7-6-5.9V12.9C5,9.7,7.7,7,11,7h43c3.3,0,6,2.7,6,5.9V36h-2V12.9c0-2.2-1.8-3.9-4-3.9
			H11c-2.2,0-4,1.8-4,3.9v33.2c0,2.2,1.8,3.9,4,3.9h23.2V52z"/>
		<g id="Group" transform="translate(15.000000, 21.000000)">
			<path class="st1" d="M3.3,14h-2c-1.9-0.6-2.2-3.3-2.3-4.2c-0.3-2.9,0.9-4.3,2-5C5,1.2,9.3-0.7,13.8-1c4.5-0.2,8.2,1,11,3.8
				c1.2,0.8,2.6,1.4,4.3,1.8c0.3,0.1,0.7,0.2,1.1,0.3C32.8,5.5,36,6.2,36,9.7c0,0.6,0,1,0,1.4c0,0.9,0.1,1.7-0.5,2.2
				c-0.6,0.6-1.6,0.7-3.2,0.7v-2c0.4,0,1.3,0,1.7-0.1c0-0.2,0-0.5,0-0.8c0-0.4,0-0.9,0-1.5c0-1.7-1.3-2.2-4.2-2.8
				c-0.4-0.1-0.7-0.2-1.1-0.3c-2-0.5-3.7-1.2-5-2.1l-0.2-0.1C21.1,1.9,18,0.8,14,1S6,3,2.4,6.3L2.2,6.5C1.6,6.8,0.8,7.5,1,9.6
				c0.2,1.8,0.6,2.3,0.8,2.4h1.5V14z"/>
			<path class="st1" d="M8.5,16C6.6,16,5,14.4,5,12.5S6.6,9,8.5,9s3.5,1.6,3.5,3.5S10.4,16,8.5,16z M8.5,11C7.7,11,7,11.7,7,12.5
				S7.7,14,8.5,14s1.5-0.7,1.5-1.5S9.3,11,8.5,11z"/>
			<path class="st1" d="M26.5,16c-1.9,0-3.5-1.6-3.5-3.5S24.6,9,26.5,9s3.5,1.6,3.5,3.5S28.4,16,26.5,16z M26.5,11
				c-0.8,0-1.5,0.7-1.5,1.5s0.7,1.5,1.5,1.5s1.5-0.7,1.5-1.5S27.3,11,26.5,11z"/>
			<rect x="14" y="11.5" class="st1" width="7" height="2"/>
		</g>
	</g>
	<rect class="st2" width="64" height="64"/>
</g>
</svg>
