<?xml version="1.0" encoding="UTF-8"?>
<svg width="24px" height="24px" viewBox="0 0 24 24" version="1.1" xmlns="http://www.w3.org/2000/svg" xmlns:xlink="http://www.w3.org/1999/xlink">
    <title>E1963571-D368-4AE9-831D-016CF29555B1</title>
    <g id="❇️-icon" stroke="none" stroke-width="1" fill="none" fill-rule="evenodd">
        <g id="[PC/MO]Icon" transform="translate(-912.000000, -2396.000000)">
            <g id="common-/-shopping-/-ic_delivery_24px" transform="translate(912.000000, 2396.000000)">
                <rect id="Rectangle" x="0" y="0" width="24" height="24"></rect>
                <g id="Group-2" transform="translate(1.000000, 5.000000)">
                    <path d="M16.8888889,2.45265247 L19.8314934,2.45265247 C20.0870585,2.45265247 20.3168763,2.61820472 20.411791,2.87067729 L21.5046387,5.77765247 L21.5046387,10.6696139 C21.5046387,11.3782165 20.9302027,11.9526525 20.2216001,11.9526525 L19.7013889,11.9526525 L19.7013889,11.9526525" id="Path" stroke="#666666" stroke-linecap="square" stroke-linejoin="round"></path>
                    <ellipse id="Oval" stroke="#666666" cx="16.25" cy="12.0754421" rx="1.91666667" ry="1.92455792"></ellipse>
                    <ellipse id="Oval" stroke="#666666" cx="6.87962963" cy="12.0754421" rx="1.91666667" ry="1.92455792"></ellipse>
                    <line x1="12.6296296" y1="11.8616023" x2="10.0740741" y2="11.8616023" id="Path" stroke="#666666" stroke-linejoin="round"></line>
                    <path d="M4.99490741,11.8616023 L3.45092593,11.8616023 C3.10983896,11.8616023 2.83333333,11.5863517 2.83333333,11.246813" id="Path" stroke="#666666" stroke-linecap="square" stroke-linejoin="round"></path>
                    <path d="M2.83333333,0.765885464 C2.83333333,0.342898602 3.10983896,0 3.45092593,0 L15.1851852,0 L15.1851852,10.2643089" id="Path" stroke="#666666" stroke-linecap="square" stroke-linejoin="round"></path>
                    <line x1="1.7037037" y1="6.00427869" x2="6.81481481" y2="6.00427869" id="Path" stroke="#0793EA" stroke-linejoin="round"></line>
                    <line x1="3.40740741" y1="3.84261097" x2="6.81481481" y2="3.84261097" id="Path-Copy" stroke="#0793EA" stroke-linejoin="round"></line>
                    <line x1="0" y1="8.11940635" x2="6.81481481" y2="8.11940635" id="Path" stroke="#0793EA" stroke-linejoin="round"></line>
                </g>
            </g>
        </g>
    </g>
</svg>