<svg width="96" height="96" viewBox="0 0 96 96" xmlns="http://www.w3.org/2000/svg">
    <g fill="none" fill-rule="evenodd">
        <path d="M0 0h96v96H0z"/>
        <path d="M40 71a7 7 0 1 1 0 14 7 7 0 0 1 0-14zM71 71a7 7 0 1 1 0 14 7 7 0 0 1 0-14z" stroke="#666" stroke-width="3"/>
        <path d="m4 11.519 14.021.012 9.397 46.533a8 8 0 0 0 7.888 6.417l39.863-.23a8 8 0 0 0 7.799-6.432l7.472-37.376H77.043M34 20.5H21" stroke="#666" stroke-width="3" stroke-linejoin="round"/>
        <g stroke="#0793EA" stroke-width="3">
            <path d="M55 15a14.95 14.95 0 0 1 10.606 4.394A14.95 14.95 0 0 1 70 30a14.95 14.95 0 0 1-4.394 10.606A14.95 14.95 0 0 1 55 45a14.95 14.95 0 0 1-10.606-4.394A14.95 14.95 0 0 1 40 30a14.95 14.95 0 0 1 4.394-10.606A14.95 14.95 0 0 1 55 15z"/>
            <path stroke-linecap="square" d="M49 29.5h13M55.5 36V23"/>
        </g>
    </g>
</svg>
