<?xml version="1.0" encoding="utf-8"?>
<!-- Generator: Adobe Illustrator 25.4.1, SVG Export Plug-In . SVG Version: 6.00 Build 0)  -->
<svg version="1.1" id="레이어_1" xmlns="http://www.w3.org/2000/svg" xmlns:xlink="http://www.w3.org/1999/xlink" x="0px"
	 y="0px" viewBox="0 0 64 64" style="enable-background:new 0 0 64 64;" xml:space="preserve">
<style type="text/css">
	.st0{fill:#666666;}
	.st1{fill:#0793EA;}
	.st2{fill-rule:evenodd;clip-rule:evenodd;fill:#FFFFFF;}
	.st3{fill:none;}
</style>
<g>
	<path class="st0" d="M13.8,60H12c-0.6,0-1-0.4-1-1V10c0-2.8,2.1-5,4.6-5h32.7c2.6,0,4.6,2.2,4.6,5v24h-2V10c0-1.7-1.2-3-2.6-3H15.6
		C14.2,7,13,8.3,13,10v48h0.5l3.4-2.8c0.4-0.3,0.9-0.3,1.3,0l3,2.5l3-2.5c0.4-0.3,0.9-0.3,1.3,0l3,2.5l3-2.5c0.4-0.3,0.9-0.3,1.3,0
		l3.6,3L35,59.8l-3-2.5l-3,2.5c-0.4,0.3-0.9,0.3-1.3,0l-3-2.5l-3,2.5c-0.4,0.3-0.9,0.3-1.3,0l-3-2.5l-3,2.5
		C14.3,59.9,14.1,60,13.8,60z"/>
	<polygon class="st0" points="37.8,18.6 36.2,17.4 32,22.7 27.8,17.4 26.2,18.6 29.9,23.3 27.5,23.3 27.5,25.3 31,25.3 31,26.6 
		27.5,26.6 27.5,28.6 31,28.6 31,32 33,32 33,28.6 36.5,28.6 36.5,26.6 33,26.6 33,25.3 36.5,25.3 36.5,23.3 34.1,23.3 	"/>
	<path class="st1" d="M51,64c-7.2,0-13-5.8-13-13s5.8-13,13-13s13,5.8,13,13S58.2,64,51,64z M51,40c-6.1,0-11,4.9-11,11
		s4.9,11,11,11s11-4.9,11-11S57.1,40,51,40z"/>
	<g>
		<polyline id="Path-10_00000014627467703554903060000010942931179917217692_" class="st2" points="45,50.3 49.2,54.5 57,46.7 		"/>
		<polygon class="st1" points="49.2,55.9 44.3,51 45.7,49.6 49.2,53.1 56.3,46 57.7,47.4 		"/>
	</g>
	<rect x="22" y="37.5" class="st0" width="17" height="2"/>
	<rect x="22" y="43.5" class="st0" width="14" height="2"/>
	<rect class="st3" width="64" height="64"/>
</g>
</svg>
