<?xml version="1.0" encoding="UTF-8"?>
<svg width="24px" height="24px" viewBox="0 0 24 24" version="1.1" xmlns="http://www.w3.org/2000/svg" xmlns:xlink="http://www.w3.org/1999/xlink">
    <title>F5C6C3AE-ADF7-46E1-9017-2BDF7868BA63</title>
    <g id="02_Component-Guide" stroke="none" stroke-width="1" fill="none" fill-rule="evenodd">
        <g id="[PC]-Text-Input" transform="translate(-796.000000, -872.000000)">
            <g id="Input/Line/Common/Error" transform="translate(500.000000, 860.000000)">
                <g id="Icon-/-Form-/-Cross" transform="translate(296.000000, 12.000000)">
                    <rect id="Bounding-box" fill="#D8D8D8" opacity="0" x="4" y="4" width="16" height="16"></rect>
                    <path d="M12,4 C16.418278,4 20,7.581722 20,12 C20,16.418278 16.418278,20 12,20 C7.581722,20 4,16.418278 4,12 C4,7.581722 7.581722,4 12,4 Z M14.4,8.4 L12,10.8 L9.6,8.4 L8.4,9.6 L10.8,12 L8.4,14.4 L9.6,15.6 L12,13.2 L14.4,15.6 L15.6,14.4 L13.2,12 L15.6,9.6 L14.4,8.4 Z" id="Combined-Shape" fill="#E63312"></path>
                </g>
            </g>
        </g>
    </g>
</svg>