<svg width="64" height="64" viewBox="0 0 64 64" xmlns="http://www.w3.org/2000/svg">
    <g fill="none" fill-rule="evenodd">
        <path d="M0 0h64v64H0z"/>
        <g stroke-width="2">
            <path d="M32.283 51H3V12a4 4 0 0 1 4-4h45a4 4 0 0 1 4 4v15.448" stroke="#666"/>
            <path stroke="#666" d="M3 17.25 29.5 34l26.093-16.75M3 39.888 19.113 26.5M47.113 32.888l-6.922-5.752"/>
            <path d="m50.466 49.813-4.962 4.962a4.679 4.679 0 1 1-6.617-6.616l4.963-4.963a4.679 4.679 0 0 1 6.616 0" stroke="#0793EA"/>
            <path d="m47.985 39.06 4.962-4.962a4.679 4.679 0 1 1 6.617 6.617l-4.962 4.963a4.679 4.679 0 0 1-6.617 0" stroke="#0793EA"/>
        </g>
    </g>
</svg>
