<?xml version="1.0" encoding="UTF-8"?>
<svg width="24px" height="24px" viewBox="0 0 24 24" version="1.1" xmlns="http://www.w3.org/2000/svg" xmlns:xlink="http://www.w3.org/1999/xlink">
    <title>7D563CF5-158C-45CF-AD58-518956F0B07F</title>
    <g id="pc_쿠폰함_v01" stroke="none" stroke-width="1" fill="none" fill-rule="evenodd">
        <g id="Pc_쿠폰함_SC-FE-MP0301" transform="translate(-1292.000000, -2577.000000)" fill="#000000">
            <g id="Pagination-/-Select-/Case02" transform="translate(898.000000, 2571.000000)">
                <g id="Icon-/-Forms-/-Double-right" transform="translate(394.000000, 6.000000)">
                    <path d="M11.6568542,7.65685425 L11.6558542,14.6558542 L11.6568542,14.6568542 L11.6568542,15.6568542 L11.6558542,15.6558542 L11.6568542,15.6568542 L10.6568542,15.6568542 L10.6558542,15.6558542 L3.65685425,15.6568542 L3.65685425,14.6568542 L10.6558542,14.6558542 L10.6568542,7.65685425 L11.6568542,7.65685425 Z" id="Combined-Shape" transform="translate(7.656854, 11.656854) rotate(-45.000000) translate(-7.656854, -11.656854) "></path>
                    <path d="M15.6705627,7.65685425 L15.6695627,14.6558542 L15.6705627,14.6568542 L15.6705627,15.6568542 L15.6695627,15.6558542 L15.6705627,15.6568542 L14.6705627,15.6568542 L14.6695627,15.6558542 L7.67056275,15.6568542 L7.67056275,14.6568542 L14.6695627,14.6558542 L14.6705627,7.65685425 L15.6705627,7.65685425 Z" id="Combined-Shape" transform="translate(11.670563, 11.656854) rotate(-45.000000) translate(-11.670563, -11.656854) "></path>
                </g>
            </g>
        </g>
    </g>
</svg>