<?xml version="1.0" encoding="UTF-8"?>
<svg width="16px" height="16px" viewBox="0 0 16 16" version="1.1" xmlns="http://www.w3.org/2000/svg" xmlns:xlink="http://www.w3.org/1999/xlink">
    <title>16E29A21-64D9-4107-B9FD-C3C6F1CED834</title>
    <g id="❇️-icon" stroke="none" stroke-width="1" fill="none" fill-rule="evenodd">
        <g id="[PC/MO]Icon" transform="translate(-893.000000, -615.000000)">
            <g id="common-/-content-/-ic_location" transform="translate(893.000000, 615.000000)">
                <rect id="Rectangle" x="0" y="0" width="16" height="16"></rect>
                <g id="MapPin" transform="translate(2.499634, 0.999819)" fill="#0793EA" fill-rule="nonzero">
                    <path d="M5.5,0 C2.46392728,0.00360236739 0.00360236739,2.46392728 0,5.5 C0,10.206055 5,13.7607425 5.21289063,13.9096681 C5.38534971,14.0301107 5.61465029,14.0301107 5.78710937,13.9096681 C6,13.7607425 11,10.206055 11,5.5 C10.996398,2.46392713 8.53607287,0.00360202378 5.5,0 Z M5.50036625,3.50018125 C6.60493575,3.50018125 7.50036625,4.39561175 7.50036625,5.50018125 C7.50036625,6.60475075 6.60493575,7.50018125 5.50036625,7.50018125 C4.39579675,7.50018125 3.50036625,6.60475075 3.50036625,5.50018125 C3.50036625,4.96974365 3.71106,4.46102706 4.08613603,4.08595103 C4.46121206,3.710875 4.96992865,3.50018125 5.50036625,3.50018125 L5.50036625,3.50018125 Z" id="Shape"></path>
                </g>
            </g>
        </g>
    </g>
</svg>