<?xml version="1.0" encoding="utf-8"?>
<!-- Generator: Adobe Illustrator 25.4.1, SVG Export Plug-In . SVG Version: 6.00 Build 0)  -->
<svg version="1.1" id="레이어_1" xmlns="http://www.w3.org/2000/svg" xmlns:xlink="http://www.w3.org/1999/xlink" x="0px"
	 y="0px" viewBox="0 0 64 64" style="enable-background:new 0 0 64 64;" xml:space="preserve">
<style type="text/css">
	.st0{fill:#666666;}
	.st1{fill:#E63312;}
	.st2{fill:none;}
</style>
<g>
	<g>
		<rect x="22.2" y="18" class="st0" width="20" height="2"/>
		<rect x="22.2" y="24" class="st0" width="20" height="2"/>
		<rect x="22.2" y="30" class="st0" width="20" height="2"/>
		<path class="st1" d="M51,64c-7.2,0-13-5.8-13-13s5.8-13,13-13s13,5.8,13,13S58.2,64,51,64z M51,40c-6.1,0-11,4.9-11,11
			s4.9,11,11,11s11-4.9,11-11S57.1,40,51,40z"/>
		<path class="st0" d="M34,57H11V12c0-2.8,2.2-5,5-5h32c2.8,0,5,2.2,5,5v22h-2V12c0-1.7-1.3-3-3-3H16c-1.7,0-3,1.3-3,3v43h21V57z"/>
		<polygon class="st1" points="55.9,47.5 54.5,46.1 51,49.6 47.5,46.1 46.1,47.5 49.6,51 46.1,54.5 47.5,55.9 51,52.4 54.5,55.9 
			55.9,54.5 52.4,51 		"/>
	</g>
	<rect class="st2" width="64" height="64"/>
</g>
</svg>
