<svg width="64" height="64" viewBox="0 0 64 64" xmlns="http://www.w3.org/2000/svg">
    <g fill="none" fill-rule="evenodd">
        <path d="M0 0h64v64H0z"/>
        <g transform="translate(11 7)" stroke-width="2">
            <ellipse stroke="#0793EA" cx="33.857" cy="4.675" rx="3.714" ry="3.675"/>
            <ellipse stroke="#666" cx="21" cy="4.675" rx="3.714" ry="3.675"/>
            <ellipse stroke="#666" cx="8.143" cy="4.675" rx="3.714" ry="3.675"/>
            <path d="M5.364 50V32.265H0v-15.23a4.286 4.286 0 0 1 4.286-4.285H8.57M18.222 50V32.265h-5.365v-15.23a4.286 4.286 0 0 1 4.286-4.285h4.286" stroke="#666"/>
            <path d="M30.222 50V32.265h-4.508v-15.23A4.286 4.286 0 0 1 30 12.75h4.286" stroke="#0793EA"/>
            <path d="M37.493 50V32.265H42v-15.23a4.286 4.286 0 0 0-4.286-4.285H33.43" stroke="#0793EA"/>
        </g>
    </g>
</svg>
