<svg width="16" height="16" viewBox="0 0 16 16" fill="none" xmlns="http://www.w3.org/2000/svg">
<path d="M8 0C5.87832 0 3.84357 0.842855 2.34311 2.34311C0.842855 3.84336 0 5.87818 0 8C0 10.1218 0.842855 12.1564 2.34311 13.6569C3.84336 15.1571 5.87818 16 8 16C10.1218 16 12.1564 15.1571 13.6569 13.6569C15.1571 12.1566 16 10.1218 16 8C16 5.87818 15.1571 3.84357 13.6569 2.34311C12.1566 0.842855 10.1218 0 8 0ZM11.3846 13.8706C10.3508 14.4507 9.18529 14.7553 8 14.7553C6.81471 14.7553 5.64919 14.4507 4.61543 13.8706C3.32493 13.1255 2.31642 11.9755 1.74609 10.5988C1.1759 9.22217 1.07578 7.69565 1.46147 6.25634C1.84719 4.81692 2.69704 3.5451 3.87916 2.63793C5.06143 1.73079 6.50988 1.23905 8.00008 1.23905C9.49027 1.23905 10.9386 1.73079 12.121 2.63793C13.3031 3.54506 14.153 4.81689 14.5387 6.25634C14.9244 7.69562 14.8243 9.2221 14.2541 10.5988C13.6837 11.9755 12.6751 13.1255 11.3846 13.8706ZM7.38462 6.15376H8.61538V12.3075H7.38462V6.15376ZM7.38462 3.69226H8.61538V4.92301H7.38462V3.69226Z" fill="#333333"/>
</svg>
