<svg width="20" height="20" viewBox="0 0 20 20" fill="none" xmlns="http://www.w3.org/2000/svg">
<path d="M10 0C7.3479 0 4.80446 1.05357 2.92888 2.92888C1.05357 4.8042 0 7.34773 0 10C0 12.6523 1.05357 15.1955 2.92888 17.0711C4.8042 18.9464 7.34773 20 10 20C12.6523 20 15.1955 18.9464 17.0711 17.0711C18.9464 15.1958 20 12.6523 20 10C20 7.34773 18.9464 4.80446 17.0711 2.92888C15.1958 1.05357 12.6523 0 10 0ZM14.2307 17.3382C12.9385 18.0633 11.4816 18.4442 10 18.4442C8.51839 18.4442 7.06149 18.0633 5.76929 17.3382C4.15616 16.4069 2.89552 14.9694 2.18261 13.2485C1.46987 11.5277 1.34473 9.61957 1.82684 7.82042C2.30899 6.02115 3.3713 4.43137 4.84896 3.29741C6.32678 2.16349 8.13735 1.54881 10.0001 1.54881C11.8628 1.54881 13.6733 2.16349 15.1512 3.29741C16.6289 4.43133 17.6912 6.02111 18.1734 7.82042C18.6555 9.61952 18.5303 11.5276 17.8176 13.2485C17.1047 14.9694 15.8439 16.4069 14.2307 17.3382ZM9.23078 7.69221H10.7692V15.3844H9.23078V7.69221ZM9.23078 4.61532H10.7692V6.15377H9.23078V4.61532Z" fill="#00AAD2"/>
</svg>
