<svg width="60" height="61" viewBox="0 0 60 61" fill="none" xmlns="http://www.w3.org/2000/svg">
<g filter="url(#filter0_d_3156_4074)">
<path fill-rule="evenodd" clip-rule="evenodd" d="M30 7.69231C18.7844 7.69231 9.69231 16.7844 9.69231 28C9.69231 39.2156 18.7844 48.3077 30 48.3077C41.2156 48.3077 50.3077 39.2156 50.3077 28C50.3077 16.7844 41.2156 7.69231 30 7.69231ZM6 28C6 14.7452 16.7452 4 30 4C43.2548 4 54 14.7452 54 28C54 41.2548 43.2548 52 30 52C16.7452 52 6 41.2548 6 28ZM28.1534 40.3089L28.1534 23.0781H31.8457V40.3089H28.1534ZM28.1534 15.6914V19.3837L31.8457 19.3837V15.6914H28.1534Z" fill="white"/>
</g>
<defs>
<filter id="filter0_d_3156_4074" x="-6" y="-3" width="72" height="72" filterUnits="userSpaceOnUse" color-interpolation-filters="sRGB">
<feFlood flood-opacity="0" result="BackgroundImageFix"/>
<feColorMatrix in="SourceAlpha" type="matrix" values="0 0 0 0 0 0 0 0 0 0 0 0 0 0 0 0 0 0 127 0" result="hardAlpha"/>
<feOffset dy="3"/>
<feGaussianBlur stdDeviation="3"/>
<feComposite in2="hardAlpha" operator="out"/>
<feColorMatrix type="matrix" values="0 0 0 0 0 0 0 0 0 0 0 0 0 0 0 0 0 0 0.1 0"/>
<feBlend mode="normal" in2="BackgroundImageFix" result="effect1_dropShadow_3156_4074"/>
<feBlend mode="normal" in="SourceGraphic" in2="effect1_dropShadow_3156_4074" result="shape"/>
</filter>
</defs>
</svg>
