<svg width="78" height="78" viewBox="0 0 78 78" fill="none" xmlns="http://www.w3.org/2000/svg">
<mask id="path-1-inside-1_2802_3667" fill="white">
<path fill-rule="evenodd" clip-rule="evenodd" d="M12 4H13.5H53.68H54.2948L54.7327 4.43152L65.5504 15.0903L65.9976 15.531V16.1588V72.4981V73.9981H64.4976H13.5H12V72.4981V5.5V4ZM15 7V70.9981H62.9976V18.6742H53.1639H51.6639V17.1742V7H15ZM54.6639 8.57529L61.8686 15.6742H54.6639V8.57529ZM40.8657 35.7949V29.875H40.8665C43.3266 29.875 48.4793 29.8749 50.0018 37.9889C48.4415 35.2577 45.3821 32.8267 42.8975 33.8475V47.0735C42.8977 47.093 42.8979 47.1125 42.8979 47.132C42.8979 49.9352 40.171 52.2076 36.8071 52.2076C33.4433 52.2076 30.7164 49.9352 30.7164 47.132C30.7164 44.3288 33.4433 42.0564 36.8071 42.0564C38.3669 42.0564 39.7897 42.545 40.8672 43.3485V35.7923L40.8657 35.7949Z"/>
</mask>
<path fill-rule="evenodd" clip-rule="evenodd" d="M12 4H13.5H53.68H54.2948L54.7327 4.43152L65.5504 15.0903L65.9976 15.531V16.1588V72.4981V73.9981H64.4976H13.5H12V72.4981V5.5V4ZM15 7V70.9981H62.9976V18.6742H53.1639H51.6639V17.1742V7H15ZM54.6639 8.57529L61.8686 15.6742H54.6639V8.57529ZM40.8657 35.7949V29.875H40.8665C43.3266 29.875 48.4793 29.8749 50.0018 37.9889C48.4415 35.2577 45.3821 32.8267 42.8975 33.8475V47.0735C42.8977 47.093 42.8979 47.1125 42.8979 47.132C42.8979 49.9352 40.171 52.2076 36.8071 52.2076C33.4433 52.2076 30.7164 49.9352 30.7164 47.132C30.7164 44.3288 33.4433 42.0564 36.8071 42.0564C38.3669 42.0564 39.7897 42.545 40.8672 43.3485V35.7923L40.8657 35.7949Z" fill="#002C5F"/>
<path d="M12 4V3H11V4H12ZM54.2948 4L54.9967 3.28768L54.7047 3H54.2948V4ZM54.7327 4.43152L54.0309 5.14384L54.0309 5.14384L54.7327 4.43152ZM65.5504 15.0903L66.2523 14.378L66.2523 14.378L65.5504 15.0903ZM65.9976 15.531H66.9976V15.1124L66.6995 14.8186L65.9976 15.531ZM65.9976 73.9981V74.9981H66.9976V73.9981H65.9976ZM12 73.9981H11V74.9981H12V73.9981ZM15 70.9981H14V71.9981H15V70.9981ZM15 7V6H14V7H15ZM62.9976 70.9981V71.9981H63.9976V70.9981H62.9976ZM62.9976 18.6742H63.9976V17.6742H62.9976V18.6742ZM51.6639 18.6742H50.6639V19.6742H51.6639V18.6742ZM51.6639 7H52.6639V6H51.6639V7ZM61.8686 15.6742V16.6742H64.3083L62.5705 14.9619L61.8686 15.6742ZM54.6639 8.57529L55.3658 7.86297L53.6639 6.18611V8.57529H54.6639ZM54.6639 15.6742H53.6639V16.6742H54.6639V15.6742ZM40.8657 29.875V28.875H39.8657V29.875H40.8657ZM40.8657 35.7949H39.8657V39.5337L41.7322 36.2941L40.8657 35.7949ZM40.8665 29.875V30.875H40.8665L40.8665 29.875ZM50.0018 37.9889L49.1335 38.485L50.9847 37.8045L50.0018 37.9889ZM42.8975 33.8475L42.5175 32.9225L41.8975 33.1772V33.8475H42.8975ZM42.8975 47.0735H41.8974L41.8976 47.087L42.8975 47.0735ZM40.8672 43.3485L40.2694 44.1502L41.8672 45.3417V43.3485H40.8672ZM40.8672 35.7923H41.8672V32.0535L40.0008 35.2931L40.8672 35.7923ZM13.5 3H12V5H13.5V3ZM53.68 3H13.5V5H53.68V3ZM54.2948 3H53.68V5H54.2948V3ZM55.4346 3.7192L54.9967 3.28768L53.5929 4.71232L54.0309 5.14384L55.4346 3.7192ZM66.2523 14.378L55.4346 3.7192L54.0309 5.14384L64.8486 15.8026L66.2523 14.378ZM66.6995 14.8186L66.2523 14.378L64.8486 15.8026L65.2958 16.2433L66.6995 14.8186ZM66.9976 16.1588V15.531H64.9976V16.1588H66.9976ZM66.9976 72.4981V16.1588H64.9976V72.4981H66.9976ZM66.9976 73.9981V72.4981H64.9976V73.9981H66.9976ZM64.4976 74.9981H65.9976V72.9981H64.4976V74.9981ZM13.5 74.9981H64.4976V72.9981H13.5V74.9981ZM12 74.9981H13.5V72.9981H12V74.9981ZM11 72.4981V73.9981H13V72.4981H11ZM11 5.5V72.4981H13V5.5H11ZM11 4V5.5H13V4H11ZM16 70.9981V7H14V70.9981H16ZM62.9976 69.9981H15V71.9981H62.9976V69.9981ZM61.9976 18.6742V70.9981H63.9976V18.6742H61.9976ZM53.1639 19.6742H62.9976V17.6742H53.1639V19.6742ZM51.6639 19.6742H53.1639V17.6742H51.6639V19.6742ZM50.6639 17.1742V18.6742H52.6639V17.1742H50.6639ZM50.6639 7V17.1742H52.6639V7H50.6639ZM15 8H51.6639V6H15V8ZM62.5705 14.9619L55.3658 7.86297L53.9621 9.28761L61.1667 16.3865L62.5705 14.9619ZM54.6639 16.6742H61.8686V14.6742H54.6639V16.6742ZM53.6639 8.57529V15.6742H55.6639V8.57529H53.6639ZM39.8657 29.875V35.7949H41.8657V29.875H39.8657ZM40.8665 28.875H40.8657V30.875H40.8665V28.875ZM50.9847 37.8045C50.1826 33.53 48.3788 31.2117 46.2796 30.0196C44.2384 28.8605 42.0854 28.875 40.8665 28.875L40.8665 30.875C42.1077 30.875 43.7611 30.8895 45.2919 31.7588C46.7647 32.5951 48.2985 34.3338 49.019 38.1734L50.9847 37.8045ZM43.2775 34.7725C44.0935 34.4372 45.1229 34.62 46.2532 35.3509C47.3703 36.0732 48.4206 37.2371 49.1335 38.485L50.8701 37.4929C50.0227 36.0095 48.7632 34.5922 47.3393 33.6715C45.9287 32.7593 44.1861 32.237 42.5175 32.9225L43.2775 34.7725ZM43.8975 47.0735V33.8475H41.8975V47.0735H43.8975ZM43.8979 47.132C43.8979 47.1079 43.8977 47.0839 43.8974 47.06L41.8976 47.087C41.8978 47.102 41.8979 47.117 41.8979 47.132H43.8979ZM36.8071 53.2076C40.5448 53.2076 43.8979 50.6505 43.8979 47.132H41.8979C41.8979 49.2199 39.7971 51.2076 36.8071 51.2076V53.2076ZM29.7164 47.132C29.7164 50.6505 33.0695 53.2076 36.8071 53.2076V51.2076C33.8171 51.2076 31.7164 49.2199 31.7164 47.132H29.7164ZM36.8071 41.0564C33.0695 41.0564 29.7164 43.6136 29.7164 47.132H31.7164C31.7164 45.0441 33.8171 43.0564 36.8071 43.0564V41.0564ZM41.465 42.5469C40.2077 41.6093 38.5733 41.0564 36.8071 41.0564V43.0564C38.1605 43.0564 39.3717 43.4807 40.2694 44.1502L41.465 42.5469ZM39.8672 35.7923V43.3485H41.8672V35.7923H39.8672ZM41.7322 36.2941L41.7337 36.2915L40.0008 35.2931L39.9992 35.2957L41.7322 36.2941Z" fill="#002C5F" mask="url(#path-1-inside-1_2802_3667)"/>
</svg>
