<svg width="36" height="36" viewBox="0 0 36 36" fill="none" xmlns="http://www.w3.org/2000/svg">
<mask id="path-2-inside-1_2511_17449" fill="white">
<path fill-rule="evenodd" clip-rule="evenodd" d="M6 2V34L18 27.7053L30 34V2H18.0008H17.9992H6Z"/>
</mask>
<path d="M6 34H4.5V36.4807L6.69679 35.3283L6 34ZM6 2V0.5H4.5V2H6ZM18 27.7053L18.6968 26.377L18 26.0115L17.3032 26.377L18 27.7053ZM30 34L29.3032 35.3283L31.5 36.4807V34H30ZM30 2H31.5V0.5H30V2ZM7.5 34V2H4.5V34H7.5ZM17.3032 26.377L5.30321 32.6717L6.69679 35.3283L18.6968 29.0337L17.3032 26.377ZM17.3032 29.0337L29.3032 35.3283L30.6968 32.6717L18.6968 26.377L17.3032 29.0337ZM31.5 34V2H28.5V34H31.5ZM30 0.5H18.0008V3.5H30V0.5ZM18.0008 0.5H17.9992V3.5H18.0008V0.5ZM6 3.5H17.9992V0.5H6V3.5Z" fill="#333333" mask="url(#path-2-inside-1_2511_17449)"/>
</svg>
