<svg width="78" height="78" viewBox="0 0 78 78" fill="none" xmlns="http://www.w3.org/2000/svg">
<path fill-rule="evenodd" clip-rule="evenodd" d="M13.5 4H12V5.5V72.4981V73.9981H13.5H15.1237L18.1237 70.9981H15V7H51.6639V17.1742V18.6742H53.1639H62.9976V26.1242L65.9976 23.1242V16.1588V15.531L65.5504 15.0903L54.7327 4.43152L54.2948 4H53.68H13.5ZM21.2262 73.9981H18.88L21.88 70.9981H24.2262L21.2262 73.9981ZM24.7776 73.9981H64.4976H65.9976V72.4981V32.7781L62.9976 35.7781V70.9981H27.7776L24.7776 73.9981ZM51.504 47.2717L57.1161 52.8839L58.8839 51.1161L53.2717 45.504L51.504 47.2717ZM62.9976 32.2267L65.9976 29.2267V26.8805L62.9976 29.8805V32.2267ZM51.496 43.7283L49.7283 45.496L48.5552 44.323L50.323 42.5552L51.496 43.7283ZM61.8686 15.6742L54.6639 8.57529V15.6742H61.8686ZM25.5 37C27.433 37 29 35.433 29 33.5C29 31.567 27.433 30 25.5 30C23.567 30 22 31.567 22 33.5C22 35.433 23.567 37 25.5 37ZM48.4448 40.6771L45 37.2322L36 46.2322L30.5 40.7322L20.1161 51.1161L21.8839 52.8839L30.5 44.2678L36 49.7678L45 40.7678L46.6771 42.4448L48.4448 40.6771Z" fill="#777777"/>
<path fill-rule="evenodd" clip-rule="evenodd" d="M17 75.2243L67.2243 25L69 26.7757L18.7757 77L17 75.2243Z" fill="#777777"/>
</svg>
