<svg width="730" height="100" viewBox="0 0 730 100" fill="none" xmlns="http://www.w3.org/2000/svg">
<path fill-rule="evenodd" clip-rule="evenodd" d="M164.268 13.6244C143.821 4.42261 122.159 1.30326 100.852 1.06641C80.4454 1.2327 61.3654 3.77253 43.0447 10.6412C31.2899 15.0455 20.3248 20.7854 11.9162 30.4004C1.1131 42.7468 1.12323 57.2652 11.9061 69.6468C19.3579 78.2036 28.946 83.6562 39.2884 87.9346C55.2956 94.5512 72.0824 97.6706 89.3248 98.613C112.495 99.8829 135.185 97.4892 157.049 89.4061C168.824 85.0521 179.774 79.2669 188.178 69.6519C198.986 57.2903 198.966 42.8073 188.193 30.4004C181.627 22.8364 173.304 17.6962 164.268 13.6244ZM188.258 48.6573C188.312 49.1289 188.365 49.6005 188.431 50.069C188.314 55.8037 185.95 60.6012 182.356 64.8796C177.526 70.6295 171.36 74.6307 164.709 77.9668C155.267 82.6987 145.234 85.6467 134.927 87.7784C134.89 87.7857 134.853 87.7931 134.816 87.8007C134.442 87.8766 134.041 87.958 133.681 87.8892C133.14 87.783 132.615 87.617 132.088 87.4507C131.865 87.3804 131.643 87.3101 131.418 87.2442C131.496 87.029 131.558 86.8032 131.621 86.5773C131.755 86.0942 131.888 85.6112 132.168 85.2335C132.821 84.348 133.525 83.4974 134.228 82.6468C134.806 81.9483 135.384 81.2498 135.934 80.5318C147.907 64.8897 156.907 47.5745 164.896 29.6949C167.741 23.3302 167.908 23.2244 173.709 27.3768C180.235 32.0432 185.849 37.4605 187.788 45.6243C188.027 46.6167 188.142 47.6373 188.258 48.6573ZM11.8162 51.4568C11.7629 50.988 11.7096 50.5192 11.6428 50.0539C11.7795 43.16 15.0093 37.7175 19.6717 32.9906C26.2073 26.3639 34.2007 21.889 42.8726 18.7999C47.9118 17.0025 53.0888 15.5792 58.2643 14.1564C60.4458 13.5566 62.6271 12.9569 64.7977 12.3293C65.2735 12.1933 65.8102 12.0975 66.2911 12.163C66.827 12.2363 67.3557 12.3795 67.8839 12.5225C68.1189 12.5862 68.3539 12.6499 68.5894 12.7073C68.5115 12.9415 68.4521 13.1911 68.3926 13.4408C68.2627 13.9863 68.1327 14.5324 67.8098 14.9196C53.5592 32.0836 43.4851 51.6513 34.5197 71.8591C34.1805 72.62 33.816 73.3709 33.4313 74.1117C32.7225 75.4874 31.5177 75.8805 30.2723 75.1195C22.1067 70.1306 14.8625 64.3001 12.306 54.4935C12.049 53.5049 11.9326 52.4808 11.8162 51.4568ZM97.152 91.0348C96.4886 91.0318 95.8252 91.0287 95.1618 91.0287C80.9922 90.676 67.0454 88.8165 53.4124 84.8908C52.9264 84.7497 52.4455 84.6086 51.9696 84.4423C49.0588 83.4244 48.7449 82.2149 51.1293 80.3554C53.6352 78.4001 56.222 76.5054 58.9608 74.8978C73.3733 66.4368 88.7882 60.3946 105.089 56.6705C107.813 56.0507 110.774 56.0154 113.574 56.2825C118.676 56.7713 121.516 60.2535 120.828 65.2424C119.78 72.8115 116.808 79.7003 112.171 85.7828C109.544 89.2247 105.853 90.9431 101.464 91.0237C100.027 91.0478 98.5895 91.0413 97.152 91.0348ZM104.714 8.85136C105.249 8.84421 105.784 8.83707 106.319 8.83707C120.15 9.39644 133.757 11.2257 147.056 15.1161C147.183 15.1524 147.315 15.1803 147.447 15.2082C147.735 15.2693 148.023 15.3302 148.256 15.4789C148.475 15.6184 148.727 15.7576 148.983 15.8991C149.746 16.3199 150.545 16.7613 150.625 17.2931C150.741 18.044 149.775 19.1879 148.995 19.8027C140.298 26.6864 130.446 31.5595 120.094 35.344C111.766 38.3878 103.267 41.0385 94.7011 43.3364C91.689 44.1427 88.1757 43.8 85.0218 43.2407C81.4529 42.6057 79.6152 39.9701 79.6102 36.372C79.6051 34.316 79.7519 32.134 80.4454 30.224C81.9743 26.0011 83.66 21.7983 85.7052 17.8021C88.8895 11.5734 94.1189 8.47424 101.277 8.82699C102.42 8.88197 103.567 8.86666 104.714 8.85136ZM470.876 85.5041V14.7169H521.15C523.108 14.6314 525.064 14.9356 526.901 15.6115C527.99 16.0123 529.024 16.5389 529.983 17.1786C530.823 17.6957 531.609 18.2967 532.329 18.9738C534.969 21.5859 536.306 25.1252 536.306 29.6484V85.9616H518.95V85.5041H518.648V33.6575C518.657 33.2006 518.573 32.7465 518.401 32.3225C518.329 32.1468 518.243 31.9777 518.144 31.8169C518.091 31.7559 518.035 31.6967 517.977 31.6396C517.656 31.3217 517.273 31.0723 516.85 30.9068C516.428 30.7414 515.976 30.6633 515.522 30.6774H488.488V85.9616H471.143V85.5041H470.876ZM284.288 14.7203V41.633H254.127V15.0046H253.666V14.7203H236.504V85.5076H236.771V85.9842H254.127V57.5901H284.288V85.5076H284.555V85.9842H301.923V15.0046H301.58H301.461V14.7203H284.288ZM337.587 85.5644V85.8824V85.9615H354.943V61.3443L354.874 61.4008C355.165 61.0488 357.44 57.4658 379.938 22.0211L379.942 22.0147L379.947 22.0072L384.205 15.2986L384.399 15.0046H383.664L383.744 14.8789L383.835 14.7206H363.622C363.564 14.7206 354.597 28.8404 349.417 36.9968L349.404 37.0177L349.396 37.0303L349.34 37.1184C347.678 39.7342 346.419 41.717 345.99 42.3896L328.64 15.0951L328.427 15.0941L328.19 14.7206H307.909L337.32 61.0829V85.5644H337.587ZM407.996 15.0046H407.565V14.7206H390.426V85.5078H390.64V85.9615H441.017C442.992 86.0563 444.965 85.7568 446.82 85.0807C448.676 84.4046 450.374 83.3659 451.815 82.0264C454.454 79.403 455.791 75.8071 455.791 71.3405V15.0046H455.394V14.7206H438.255H438.175V66.5785C438.185 67.0354 438.101 67.4895 437.928 67.9135C437.756 68.3374 437.499 68.7226 437.172 69.0458C436.846 69.3689 436.456 69.6235 436.028 69.7941C435.6 69.9647 435.141 70.0479 434.679 70.0387H407.996V15.0046ZM551.628 85.9609V85.5079H551.375V14.7206H601.627C603.593 14.6237 605.558 14.9225 607.405 15.5989C608.914 16.152 610.319 16.9483 611.561 17.9534C611.982 18.2708 612.385 18.611 612.769 18.9731C615.42 21.5852 616.768 25.1245 616.768 29.6477V71.3398C616.768 75.8064 615.409 79.4136 612.769 82.0258C610.13 84.6379 606.553 85.9609 601.983 85.9609H551.628ZM597.252 30.8948C596.815 30.7285 596.349 30.6542 595.881 30.6767H569.007V70.0952H595.628C596.098 70.1065 596.565 70.0222 597 69.8474C597.435 69.6726 597.83 69.4112 598.159 69.0793C598.487 68.7474 598.744 68.3522 598.912 67.9181C599.08 67.484 599.156 67.0203 599.136 66.5559V33.763C599.161 33.2868 599.084 32.8108 598.91 32.366C598.869 32.2591 598.822 32.1546 598.77 32.0528C598.664 31.9072 598.545 31.77 598.416 31.6427C598.085 31.3159 597.688 31.0612 597.252 30.8948ZM631.374 85.5079H631.124V29.2625C631.029 27.3232 631.329 25.3848 632.006 23.5626C632.683 21.7404 633.724 20.0717 635.066 18.6557C637.683 16.0436 641.305 14.7206 645.784 14.7206H696.047V15.0046H696.491V85.9615H679.157V85.5079H678.908V64.1599H648.707V85.9615H631.374V85.5079ZM648.707 34.0923C648.707 33.1926 649.068 32.3297 649.711 31.6935C650.354 31.0574 651.226 30.6999 652.135 30.6999H678.885V48.1919H648.707V34.0923ZM712.376 85.5078H712.644V85.9728H730V15.0046H729.538V14.7206H712.376V85.5078Z" fill="#002C5F"/>
</svg>
