<svg width="24" height="24" viewBox="0 0 24 24" fill="none" xmlns="http://www.w3.org/2000/svg">
<path fill-rule="evenodd" clip-rule="evenodd" d="M5 10.5C5 7.46243 7.46243 5 10.5 5C13.5376 5 16 7.46243 16 10.5C16 13.5376 13.5376 16 10.5 16C7.46243 16 5 13.5376 5 10.5ZM10.5 4C6.91015 4 4 6.91015 4 10.5C4 14.0899 6.91015 17 10.5 17C12.245 17 13.8294 16.3124 14.997 15.1933L19.6074 19.8037L20.3145 19.0966L15.6648 14.447C16.5024 13.3527 17 11.9845 17 10.5C17 6.91015 14.0899 4 10.5 4Z" fill="black"/>
</svg>
