<?xml version="1.0" encoding="UTF-8"?>
<svg width="20px" height="20px" viewBox="0 0 20 20" version="1.1" xmlns="http://www.w3.org/2000/svg" xmlns:xlink="http://www.w3.org/1999/xlink">
    <title>B1308A2D-5F2B-42DC-8DD1-A04EDB4A4FFD</title>
    <g id="[PC]상세견적" stroke="none" stroke-width="1" fill="none" fill-rule="evenodd">
        <g id="PC_SC-FE-CP-110_상세견적_1109" transform="translate(-547.000000, -2833.000000)">
            <g id="Open_Case_01-Copy-3" transform="translate(400.000000, 2703.000000)">
                <g id="Group" transform="translate(0.000000, 127.000000)">
                    <g id="common-/-tooltip-/-ic_question" transform="translate(147.000000, 3.000000)">
                        <rect id="Rectangle" x="0" y="0" width="20" height="20"></rect>
                        <path d="M10,1.33333333 C12.3931384,1.33333333 14.5597876,2.30344814 16.1281614,3.87182192 C17.6965576,5.44021815 18.6666667,7.60689503 18.6666667,10 C18.6666667,12.393105 17.6965576,14.5597818 16.1281614,16.1281781 C14.5597876,17.6965519 12.3931384,18.6666667 10,18.6666667 C7.60686164,18.6666667 5.44021242,17.6965519 3.87183863,16.1281781 C2.3034424,14.5597818 1.33333333,12.393105 1.33333333,10 C1.33333333,7.60689503 2.3034424,5.44021815 3.87183863,3.87182192 C5.44021242,2.30344814 7.60686164,1.33333333 10,1.33333333 Z" id="Stroke-1" stroke="#999999"></path>
                        <g id="Group" transform="translate(7.500000, 5.000000)">
                            <circle id="Oval" fill="#999999" fill-rule="nonzero" cx="2.5" cy="9.16666667" r="1"></circle>
                            <path d="M2.5,6.66666667 L2.5,5.88972503 L2.5,5.49019608 C2.5,5.08402825 2.72833688,4.71235076 3.09064647,4.52876408 C4.36354882,3.88377309 5,3.17483866 5,2.40196078 C5,1.07539447 3.88071187,0 2.5,0 C1.11928813,0 0,1.07539447 0,2.40196078" id="Path" stroke="#999999" stroke-linejoin="round"></path>
                        </g>
                    </g>
                </g>
            </g>
        </g>
    </g>
</svg>