<?xml version="1.0" encoding="UTF-8"?>
<svg width="24px" height="24px" viewBox="0 0 24 24" version="1.1" xmlns="http://www.w3.org/2000/svg" xmlns:xlink="http://www.w3.org/1999/xlink">
    <title>6C6DEA86-92C2-4AC2-AC33-7B5D00A6BFA5</title>
    <g id="❇️-icon" stroke="none" stroke-width="1" fill="none" fill-rule="evenodd">
        <g id="[PC/MO]Icon" transform="translate(-336.000000, -2496.000000)">
            <g id="pictogram-/-mymain-/-ic_favorites" transform="translate(336.000000, 2496.000000)">
                <rect id="Rectangle" x="0" y="0" width="24" height="24"></rect>
                <path d="M10.5215481,4.0065918 L9.52410169,3.08717766 C8.62617746,2.36581627 7.6092397,2 6.50180612,2 C4.98980282,2 3.6008054,2.62694436 2.59033165,3.76547853 C1.56483867,4.92119739 1,6.51877968 1,8.26411068 C1,10.1056363 1.65875667,11.7525999 3.13577838,13.6041993 C4.56336958,15.3939735 6.68679029,17.2740165 9.14538792,19.4509397 C10.0094713,20.2159541 10.9838228,21.0787433 11.9979087,22 C13.0180784,21.0769656 13.9939508,20.2127937 14.8551824,19.4505447 C16.3877858,18.0934223 17.7901248,16.8518341 18.9748644,15.6755297 C19.6905334,14.9649561 20.3267996,14.2782049 20.8644117,13.6041993 C21.08515,13.3274455 21.2876121,13.0552633 21.4723299,12.7863197 C22.5234517,11.2559183 23,9.83038815 23,8.26411068 C23,6.51877968 22.4351613,4.92119739 21.4096683,3.76547853 C20.3993847,2.62694436 19.0101972,2 17.498384,2 C16.3907603,2 15.3254568,2.33588932 14.4275326,3.05725071 C13.6273286,3.70039215 12.9473847,4.4667894 12.4998036,5.01586914 C11.5603682,6.23771159 11.0906505,7.22460938 11.0906505,7.9765625" id="Shape" stroke="#666666" stroke-linejoin="round" fill-rule="nonzero"></path>
            </g>
        </g>
    </g>
</svg>