<svg width="48" height="48" viewBox="0 0 48 48" xmlns="http://www.w3.org/2000/svg">
    <g fill="none" fill-rule="evenodd">
        <path d="M0 0h48v48H0z"/>
        <g stroke-width="2">
            <path d="M32.5 31h1a.5.5 0 1 1 0 1h-1a.5.5 0 1 1 0-1zM15.5 31h1a.5.5 0 1 1 0 1h-1a.5.5 0 1 1 0-1z" stroke="#666" fill="#0793EA" stroke-linejoin="bevel"/>
            <path d="M24.5 31c-2.89 0-5.779-.122-8.668-.365A2 2 0 0 1 14 28.642v-3.803h0l2.1-3.482.76-3.294a2 2 0 0 1 1.595-1.52A34.09 34.09 0 0 1 24.5 16c2.015 0 4.03.181 6.045.544a2 2 0 0 1 1.595 1.519l.76 3.294h0L35 24.84v3.803a2 2 0 0 1-1.832 1.993c-2.89.243-5.779.365-8.668.365z" stroke="#666" stroke-linecap="round" stroke-linejoin="bevel"/>
            <path d="M14 22c4.039.667 7.539 1 10.5 1 2.961 0 6.461-.333 10.5-1" stroke="#666" fill="#FFF" stroke-linecap="square" stroke-linejoin="round"/>
            <path stroke="#666" stroke-linecap="square" stroke-linejoin="round" d="m30 25.6 1-.2M19 25.6l-1-.2"/>
            <g stroke="#0793EA">
                <path stroke-linecap="square" d="M39 19h6v-6"/>
                <path d="M3 19C5.35 9.799 13.637 3 23.5 3S41.65 9.799 44 19"/>
                <g>
                    <path stroke-linecap="square" d="M9 29H3v6"/>
                    <path d="M45 29c-2.35 9.201-10.637 16-20.5 16S6.35 38.201 4 29"/>
                </g>
            </g>
        </g>
    </g>
</svg>
