<svg width="48" height="24" viewBox="0 0 48 24" xmlns="http://www.w3.org/2000/svg">
    <g fill="none" fill-rule="evenodd">
        <path d="M0 0h48v24H0z"/>
        <path d="M31.226 1c-2.206 0-4.326.676-6.131 1.953l-.093.067.08.084c.221.234.44.482.648.737l.055.07.073-.051a9.426 9.426 0 0 1 5.368-1.67c5.3 0 9.61 4.4 9.61 9.81s-4.31 9.81-9.61 9.81a9.424 9.424 0 0 1-5.368-1.671l-.073-.05-.056.069c-.21.257-.428.506-.65.738L25 20.98l.094.067A10.558 10.558 0 0 0 31.226 23C37.167 23 42 18.066 42 12S37.167 1 31.226 1" fill="#666"/>
        <path fill="#666" d="M28.161 10 30 12.163l-.475.837L23 12.996l.001-1.047 5.337.004-1.126-1.325z"/>
        <path fill="#0793EA" d="m19.221 8 .779.637-2.725 3.333 1.524.001v1.209l-2.168-.001v.438l2.168.001v1.209l-2.168-.001V17h-1.207v-2.174H13.2v-1.208h2.223v-.44l-2.223.002V11.97h1.523L12 8.636 12.779 8l3.219 3.94z"/>
        <path d="M16.193 2.19c4.385 0 8.213 2.76 9.526 6.867l.022.07H27l-.035-.128C25.608 4.29 21.18 1 16.193 1 10.021 1 5 5.934 5 12s5.021 11 11.193 11c4.986 0 9.415-3.289 10.772-7.999l.035-.126h-1.26l-.022.07c-1.313 4.106-5.14 6.866-9.525 6.866-5.505 0-9.983-4.4-9.983-9.81s4.478-9.812 9.983-9.812" fill="#0793EA"/>
    </g>
</svg>
