<svg width="24" height="24" xmlns="http://www.w3.org/2000/svg">
    <g fill="none" fill-rule="evenodd">
        <path fill="none" d="M0 0h24v24H0z"/>
        <path d="M16.425 19.912c-1.268.246-2.698-.038-4.124-.686-3.06-1.39-6.137-4.467-7.527-7.527-.648-1.427-.932-2.856-.686-4.125.256-1.317 1.86-3.173 3.34-3.56.386-.1.834.325 1.235.974.483.78 1.063 2.097 1.19 2.966.067.456-.009.801-.286.941-.34.197-.66.329-.944.446-.422.173-.752.31-.879.577-.007.016.034.116.111.28.723 1.52 4.29 5.201 5.848 5.943.198.093.332.137.379.115.267-.128.403-.457.577-.879.117-.284.249-.603.445-.944.35-.647 1.756-.11 2.406.154.525.213 1.067.481 1.502.75.649.401 1.074.85.973 1.234-.386 1.482-2.242 3.085-3.56 3.341" fill="#191919"/>
    </g>
</svg>
