<svg width="16" height="16" viewBox="0 0 16 16" xmlns="http://www.w3.org/2000/svg">
    <g fill="none" fill-rule="evenodd">
        <path d="M0 0h16v16H0z"/>
        <g stroke="#666" stroke-width=".667">
            <path d="M14 2.486c0 1.005-.782 1.82-1.748 1.82-.964 0-1.747-.815-1.747-1.82 0-1.005.783-1.82 1.747-1.82.966 0 1.748.815 1.748 1.82zM4.828 8c0 1.005-.782 1.82-1.747 1.82-.965 0-1.748-.815-1.748-1.82 0-1.005.783-1.82 1.748-1.82S4.828 6.996 4.828 8zM14 13.514c0 1.005-.782 1.82-1.748 1.82-.964 0-1.747-.815-1.747-1.82 0-1.005.783-1.82 1.747-1.82.966 0 1.748.815 1.748 1.82zM10.666 3.334l-6 4M10.666 12.57 4.473 8.55"/>
        </g>
    </g>
</svg>
