<svg width="48" height="48" viewBox="0 0 48 48" xmlns="http://www.w3.org/2000/svg">
    <g fill="none" fill-rule="evenodd">
        <path d="M0 0h48v48H0z"/>
        <g stroke-width="2">
            <path d="M41.333 39.372 45.46 23.77a2 2 0 0 0-1.935-2.512l-6.982.006h0v1.396c0 2.055-2.663 3.712-4.65 3.712H4.917v12.894M8.75 25.07v-7.628l26.17.005c.896 0 1.622.726 1.622 1.621h0v2.188" stroke="#666" stroke-linecap="square"/>
            <path d="M44.25 43.57a5.96 5.96 0 0 1-5.5 0 5.96 5.96 0 0 0-5.5 0 5.96 5.96 0 0 1-5.5 0 5.96 5.96 0 0 0-5.5 0 5.96 5.96 0 0 1-5.5 0 5.96 5.96 0 0 0-5.5 0 7.006 7.006 0 0 1-5.658.357L3 42.971" stroke="#666" stroke-linejoin="round"/>
            <path stroke="#666" stroke-linecap="square" d="M25.042 16.726V3h-7.667v4.767h6.815"/>
            <path d="M10.15 37.26a2.118 2.118 0 0 0 2.887-.77 2.1 2.1 0 0 0-.773-2.874 2.118 2.118 0 0 0-2.887.77 2.1 2.1 0 0 0 .774 2.874zM19.66 37.26a2.118 2.118 0 0 0 2.887-.77 2.1 2.1 0 0 0-.774-2.874 2.118 2.118 0 0 0-2.886.77 2.1 2.1 0 0 0 .773 2.874z" stroke="#0793EA" stroke-linecap="round" stroke-linejoin="round"/>
        </g>
    </g>
</svg>
