<svg xmlns="http://www.w3.org/2000/svg" width="20" height="20" viewBox="0 0 20 20">
    <g fill="none" fill-rule="evenodd">
        <g>
            <path stroke="#CCC" d="M1010.394 1284.5c.121 1.596.819 3.03 1.885 4.096 1.176 1.176 2.801 1.904 4.596 1.904s3.42-.728 4.596-1.904c1.066-1.066 1.764-2.5 1.885-4.096h66.144v155h-66.144c-.121-1.596-.819-3.03-1.885-4.096-1.176-1.176-2.801-1.904-4.596-1.904s-3.42.728-4.596 1.904c-1.066 1.066-1.764 2.5-1.885 4.096h0H700.5v-155z" transform="translate(-1043.000000, -1352.000000)"/>
            <g fill="#CCC">
                <path d="M8.934 14.677L5.464 10.939 4.762 11.696 8.934 16.19 16.19 8.375 15.488 7.619z" transform="translate(-1043.000000, -1352.000000) translate(1043.000000, 1352.000000)"/>
                <path d="M13.272 0v1.378H6.728V0H5.706v1.378H0V20h20V1.378h-5.706V0h-1.022zm1.022 3.79V2.41h4.684v2.46H1.022V2.41h4.684v1.38h1.022V2.41h6.544v1.38h1.022zM1.022 18.966h17.956V5.9H1.022v13.066z" transform="translate(-1043.000000, -1352.000000) translate(1043.000000, 1352.000000)"/>
            </g>
        </g>
    </g>
</svg>
