<?xml version="1.0" encoding="UTF-8"?>
<svg width="16px" height="16px" viewBox="0 0 16 16" version="1.1" xmlns="http://www.w3.org/2000/svg" xmlns:xlink="http://www.w3.org/1999/xlink">
    <title>7460E253-654B-4FFD-A868-5512A37AFF41</title>
    <g id="❇️-icon" stroke="none" stroke-width="1" fill="none" fill-rule="evenodd">
        <g id="[PC/MO]Icon" transform="translate(-717.000000, -615.000000)">
            <g id="common-/-content-/-ic_car" transform="translate(717.000000, 615.000000)">
                <rect id="Rectangle" x="0" y="0" width="16" height="16"></rect>
                <g id="Car" transform="translate(1.000000, 2.500000)" fill="#0793EA" fill-rule="nonzero">
                    <path d="M10.6750487,0 C11.0701502,0.000252836026 11.4281407,0.232880247 11.5888675,0.5938125 L11.5888675,0.5938125 L13.3249375,4.5 L14,4.5 L14,5.5 L13.5,5.5 L13.5,10.5 C13.4993687,11.052023 13.052023,11.4993687 12.5,11.5 L12.5,11.5 L11,11.5 C10.447977,11.4993687 10.0006313,11.052023 10,10.5 L10,10.5 L10,9.5 L4,9.5 L4,10.5 C3.99936867,11.052023 3.55202303,11.4993687 3,11.5 L3,11.5 L1.5,11.5 C0.947976966,11.4993687 0.500631327,11.052023 0.5,10.5 L0.5,10.5 L0.5,5.5 L0,5.5 L0,4.5 L0.6750625,4.5 L2.4111325,0.593875 C2.5718318,0.232910833 2.92983186,0.000252788614 3.32495125,0 L3.32495125,0 Z M12,6.5 L10,6.5 L10,7.7 L12,7.7 L12,6.5 Z M4,6.5 L2,6.5 L2,7.7 L4,7.7 L4,6.5 Z M10.1382614,1.5 L3.60094619,1.5 L2.4,4.5 L11.4,4.49401855 L10.1382614,1.5 Z" id="Combined-Shape"></path>
                </g>
            </g>
        </g>
    </g>
</svg>