<svg width="48" height="48" viewBox="0 0 48 48" xmlns="http://www.w3.org/2000/svg">
    <g fill="none" fill-rule="evenodd">
        <path d="M0 0h48v48H0z"/>
        <g stroke-width="2">
            <path d="M31 19h9.286C42.337 19 44 20.552 44 22.467v19.066C44 43.448 42.337 45 40.286 45H31M25 3a2.99 2.99 0 0 1 2.121.879A2.99 2.99 0 0 1 28 6v39H4V6c0-.828.336-1.578.879-2.121A2.99 2.99 0 0 1 7 3zM12 40h8" stroke="#666"/>
            <path stroke="#0793EA" stroke-linecap="square" d="m35.943 11.725 2.825 2.832 2.824-2.832"/>
            <path d="M31 6h1.915c1.605.005 3.146.554 4.285 1.526 1.139.972 1.782 2.288 1.788 3.657L39 14" stroke="#0793EA"/>
        </g>
    </g>
</svg>
