<svg width="48" height="48" viewBox="0 0 48 48" xmlns="http://www.w3.org/2000/svg">
    <g fill="none" fill-rule="evenodd">
        <path d="M0 0h48v48H0z"/>
        <g stroke-width="2">
            <path stroke="#0793EA" stroke-linecap="square" d="m14.464 9.926 3.21-3.2-3.21-3.2"/>
            <g stroke="#0793EA">
                <path stroke-linecap="square" d="m33.965 38.115-3.21 3.2 3.21 3.201"/>
                <path d="M43.674 33.52a8.063 8.063 0 0 1-2.375 5.677 8.11 8.11 0 0 1-5.693 2.368l-4.384.016"/>
            </g>
            <path d="M4.756 14.52A8.063 8.063 0 0 1 7.13 8.846a8.11 8.11 0 0 1 5.692-2.369l4.384-.016" stroke="#0793EA"/>
            <path d="M39.89 17.458a5.42 5.42 0 0 1-.02.847l1.033 1.69a7.32 7.32 0 0 1-1.601 2.6l-2.083.008c-.247.164-.506.31-.775.438l-1.05 1.766a7.607 7.607 0 0 1-3.092.064l-.973-1.726a5.645 5.645 0 0 1-.755-.409l-2.083.075A6.555 6.555 0 0 1 27 20.276l1.11-1.734a5.42 5.42 0 0 1 .02-.847l-1.033-1.69a7.32 7.32 0 0 1 1.601-2.6l2.083-.008c.247-.164.506-.31.775-.438l1.05-1.766a7.607 7.607 0 0 1 3.092-.064l.973 1.726c.263.117.515.254.755.409l2.083-.075A6.555 6.555 0 0 1 41 15.724l-1.11 1.734z" stroke="#0793EA" stroke-linecap="round" stroke-linejoin="round"/>
            <path d="M33.482 16.069a1.993 1.993 0 0 1 1.518.2c.478.275.799.72.931 1.213.133.495.077 1.04-.2 1.518-.275.478-.72.799-1.213.931a1.993 1.993 0 0 1-1.518-.2c-.478-.275-.799-.72-.931-1.213a1.993 1.993 0 0 1 .2-1.518c.275-.478.72-.799 1.213-.931z" stroke="#0793EA"/>
            <path d="M28.323 25.61c.026.462.015.928-.032 1.392L30 29.779a12.012 12.012 0 0 1-2.65 4.27l-3.445.013c-.41.27-.838.51-1.282.72l-1.737 2.902a12.67 12.67 0 0 1-5.115.105l-1.609-2.836a9.36 9.36 0 0 1-1.25-.672l-3.446.124A10.754 10.754 0 0 1 7 30.24l1.837-2.85a8.843 8.843 0 0 1 .032-1.392l-1.71-2.777a12.012 12.012 0 0 1 2.65-4.27l3.446-.013c.41-.27.838-.51 1.282-.72l1.737-2.902a12.67 12.67 0 0 1 5.115-.105l1.609 2.836a9.36 9.36 0 0 1 1.25.672" stroke="#666" stroke-linejoin="round"/>
            <path d="M19.406 29.88a3.488 3.488 0 0 1-2.656-.35 3.488 3.488 0 0 1-1.63-2.124 3.488 3.488 0 0 1 .35-2.656 3.488 3.488 0 0 1 2.124-1.63 3.488 3.488 0 0 1 2.656.35 3.488 3.488 0 0 1 1.63 2.124 3.488 3.488 0 0 1-.35 2.656 3.488 3.488 0 0 1-2.124 1.63z" stroke="#666"/>
        </g>
    </g>
</svg>
