<svg width="48" height="48" viewBox="0 0 48 48" xmlns="http://www.w3.org/2000/svg">
    <g fill="none" fill-rule="evenodd">
        <path d="M41.965 30.278C42.185 29.366 43 27.567 43 24c0-10.493-8.507-19-19-19S5 13.507 5 24s8.507 19 19 19" stroke="#666" stroke-width="2"/>
        <path d="M36.685 45.996v-1.802h-4.988c1.01-1.415 4.786-2.537 4.786-5.7 0-1.963-1.375-3.498-3.83-3.498-2.17 0-3.208 1.348-3.6 2.456l1.578.868c.297-.908.93-1.442 1.929-1.442 1.375 0 1.887.815 1.887 1.736 0 2.122-4.099 3.297-5.447 5.847v1.535h7.685zm8.522 0v-2.697H47v-1.788h-1.793V35.21h-2.643l-5.002 6.621v1.468h5.609v2.697h2.036zm-2.036-4.485h-3.088l3.088-4.179v4.179z" fill="#0793EA" fill-rule="nonzero"/>
        <path stroke="#666" stroke-width="2" d="m23.995 14 .042 9.425L29.995 30"/>
        <path fill="none" d="M0 0h48v48H0z"/>
    </g>
</svg>
