<svg width="80" height="80" viewBox="0 0 80 80" xmlns="http://www.w3.org/2000/svg">
    <g fill="none" fill-rule="evenodd">
        <path d="M74.746 43.208c.165-1.38.25-2.784.25-4.208 0-19.33-15.67-35-35-35s-35 15.67-35 35 15.67 35 35 35c2.86 0 5.64-.343 8.302-.99" stroke="#666" stroke-width="2"/>
        <path d="M59.651 32.495C57.91 16.273 49.771 4 39.996 4c-11.046 0-20 15.67-20 35s8.954 35 20 35" stroke="#666" stroke-width="2"/>
        <path fill="#666" d="M6 38h46v-2H6zM10.853 21.143H69.14v-2H10.853zM8.853 56h32v-2h-32z"/>
        <g transform="translate(44.825 40.977)" stroke="#E63312" stroke-width="2">
            <circle cx="17" cy="17" r="16"/>
            <path d="M23.197 23.531 10.469 10.803M10.803 23.532l4.69-4.69M18.507 15.828l5.024-5.024"/>
        </g>
    </g>
</svg>
