<svg width="48" height="48" viewBox="0 0 48 48" xmlns="http://www.w3.org/2000/svg">
    <g fill="none" fill-rule="evenodd">
        <path fill="none" d="M0 0h48v48H0z"/>
        <path d="M1 35V8.71l19.417-7.294a3.143 3.143 0 0 1 2.213 0L42 8.712h0V23" stroke="#666" stroke-width="2" stroke-linecap="square"/>
        <path d="M12.5 32h1a.5.5 0 1 1 0 1h-1a.5.5 0 1 1 0-1z" stroke="#666" stroke-width="2" fill="#0793EA" stroke-linejoin="bevel"/>
        <path d="M23 32h-.989c-3.516 0-7.033-.156-10.55-.468A1.612 1.612 0 0 1 10 29.919v-4.901l2.402-3.947.724-3.108a3.217 3.217 0 0 1 2.612-2.456A39.255 39.255 0 0 1 22.01 15c2.091 0 4.182.169 6.274.507a3.217 3.217 0 0 1 2.612 2.456l.723 3.108 1.294 2.429" stroke="#666" stroke-width="2" stroke-linecap="square" stroke-linejoin="bevel"/>
        <path d="M10 21c4.616.667 8.616 1 12 1 3.384 0 7.384-.333 12-1" stroke="#666" stroke-width="2" fill="#FFF" stroke-linecap="square" stroke-linejoin="round"/>
        <path stroke="#666" stroke-width="2" stroke-linecap="square" stroke-linejoin="round" d="m28 25.6 1.99-.199M16 25.6l-1.99-.198"/>
        <g transform="translate(27 27)" stroke="#0793EA" stroke-width="2.083">
            <circle cx="8.5" cy="8.5" r="7.458"/>
            <path d="m18 19-4-5"/>
        </g>
    </g>
</svg>
