<svg width="32" height="32" xmlns="http://www.w3.org/2000/svg" xmlns:xlink="http://www.w3.org/1999/xlink">
    <defs>
        <path id="a" d="M0 31.998h32V0H0z"/>
        <path id="c" d="M0 0h24v24H0z"/>
    </defs>
    <g fill="none" fill-rule="evenodd">
        <mask id="b" fill="#fff">
            <use xlink:href="#a"/>
        </mask>
        <g mask="url(#b)">
            <g transform="translate(4 4)">
                <mask id="d" fill="#fff">
                    <use xlink:href="#c"/>
                </mask>
                <path d="M12 0C5.372 0 0 5.371 0 12c0 6.627 5.372 12 12 12s12-5.373 12-12c0-6.628-5.372-12-12-12m0 .683a11.24 11.24 0 0 1 8.002 3.314A11.242 11.242 0 0 1 23.317 12c0 3.023-1.177 5.865-3.315 8.003A11.243 11.243 0 0 1 12 23.316a11.243 11.243 0 0 1-8.002-3.314 11.243 11.243 0 0 1-3.315-8.003c0-3.023 1.177-5.864 3.315-8.002A11.24 11.24 0 0 1 12 .683" fill="#1D1D1B" mask="url(#d)"/>
                <circle stroke="#000" stroke-width="1.5" mask="url(#d)" cx="12" cy="12" r="11.25"/>
            </g>
            <path stroke="#1D1D1B" stroke-width="1.5" d="m9.158 15.529 4.875 4.875 8.809-8.81"/>
        </g>
    </g>
</svg>
