<svg width="64" height="64" viewBox="0 0 64 64" xmlns="http://www.w3.org/2000/svg">
    <g fill="none" fill-rule="evenodd">
        <path d="M0 0h64v64H0z"/>
        <g stroke-width="2">
            <g stroke="#666">
                <path d="M9.677 41c-1.76-.672-3.084-2.226-4.677-4.901 4.276-2.328 8.957-.943 12 4.022"/>
                <path d="M23 46.376c-2.755 2.731-6.844 4.584-12-1.016 3.408-3.38 8.115-3.204 12 1.016z" stroke-linecap="round"/>
                <path d="M7.4 31.726c-1.787-1.257-3.13-3.593-3.4-7.703 4.935-.332 8.608 3.014 9 8.977"/>
            </g>
            <g stroke="#666">
                <path d="M54.323 41c1.76-.672 3.084-2.226 4.677-4.901-4.276-2.328-8.957-.943-12 4.022"/>
                <path d="M41 46.376c2.755 2.731 6.844 4.584 12-1.016-3.408-3.38-8.115-3.204-12 1.016z" stroke-linecap="round"/>
                <path d="M56.6 31.726c1.787-1.257 3.13-3.593 3.4-7.703-4.935-.332-8.608 3.014-9 8.977"/>
            </g>
            <path d="M32 15c3.59 0 6.84 1.455 9.192 3.808A12.96 12.96 0 0 1 45 28c0 3.59-1.455 6.84-3.808 9.192A12.96 12.96 0 0 1 32 41a12.96 12.96 0 0 1-9.192-3.808A12.96 12.96 0 0 1 19 28c0-3.59 1.455-6.84 3.808-9.192A12.96 12.96 0 0 1 32 15z" stroke="#0793EA"/>
            <path stroke="#0793EA" stroke-linecap="round" stroke-linejoin="round" d="m32 21 2.222 4.436 4.778.53-3.404 3.598.73 4.436L32 32.115 27.674 34l.73-4.436L25 25.965l4.778-.53z"/>
        </g>
    </g>
</svg>
