<?xml version="1.0" encoding="UTF-8"?>
<svg width="53px" height="27px" viewBox="0 0 53 27" version="1.1" xmlns="http://www.w3.org/2000/svg" xmlns:xlink="http://www.w3.org/1999/xlink">
    <title>4FE29255-3DF6-44F2-B745-58F1B8B948FE</title>
    <g id="home-&gt;-common-0924_ic-upd" stroke="none" stroke-width="1" fill="none" fill-rule="evenodd">
        <g id="PC-JP-DS-FE-CO-Main_01basic-0" transform="translate(-401.000000, -1524.000000)" fill="#FFFFFF">
            <g id="mo-/-footer-open" transform="translate(0.000000, 1080.000000)">
                <path d="M417.865717,447.077404 C418.428356,446.968569 418.799203,446.96928 418.932255,447.112971 C419.010812,447.203311 419.034167,447.352692 418.930839,447.539063 C418.869267,447.639362 418.807696,447.728279 418.695875,447.863434 C413.931486,453.507911 410.304407,461.832716 409.272547,464.237754 C409.196113,464.402785 409.117556,464.567104 409.054568,464.674516 C408.961149,464.843815 408.832343,464.985372 408.603749,464.998887 C408.476359,465.006712 408.304382,464.976124 408.041109,464.815362 C404.879712,462.856333 403,460.413594 403,457.765277 C403,452.982943 409.117556,448.872113 417.865717,447.077404 M422.769013,450.600153 C423.218385,449.553028 423.99187,447.309699 425.768127,446.418073 C426.307373,446.148446 426.969754,446.019338 427.565614,446.002219 C427.698656,445.997226 427.794192,446.002219 427.832406,446.002219 C432.805925,446.002219 437.433393,446.695547 441.311435,447.888185 C441.339742,447.896745 441.430324,447.93241 441.457923,447.943109 C441.815298,448.062944 442,448.22843 442,448.434573 C442,448.612898 441.904464,448.747712 441.777083,448.875393 C441.722593,448.929604 441.640503,449.000934 441.531521,449.09295 C440.637731,449.847621 437.943624,451.811337 432.869616,453.768633 C431.087698,454.456255 428.862777,455.308649 426.532413,455.805819 C425.160945,456.097559 420.090475,456.875056 422.769013,450.600153 M445.945943,450.325101 C446.041489,450.156528 446.16959,450.016405 446.400316,450.001468 C446.527002,449.992222 446.7004,450.023518 446.96085,450.18569 C450.125182,452.143137 452,454.585678 452,457.233068 C452,462.015726 445.882246,466.124088 437.137339,467.922208 C436.575389,468.032457 436.202407,468.029612 436.074305,467.887355 C435.987252,467.798445 435.963897,467.645519 436.074305,467.457741 C436.129509,467.361007 436.192499,467.272097 436.307861,467.131974 C441.071698,461.487955 444.698895,453.166671 445.73008,450.763251 C445.80864,450.596811 445.885784,450.433216 445.945943,450.325101 M432.231057,464.39652 C431.782325,465.447852 431.008723,467.690313 429.23149,468.58259 C428.694994,468.849346 428.029682,468.980584 427.433732,468.998415 C427.299962,469.001981 427.20512,468.998415 427.164776,468.998415 C422.190507,468.998415 417.56305,468.302995 413.689377,467.114006 C413.656111,467.104734 413.566931,467.068358 413.539327,467.057659 C413.182607,466.938546 413,466.770219 413,466.566943 C413,466.38435 413.092011,466.250972 413.220827,466.124727 C413.27391,466.069093 413.357428,465.999908 413.464303,465.905759 C414.361059,465.153992 417.054157,463.18542 422.130346,461.228973 C423.911117,460.544252 426.136374,459.689777 428.46992,459.194068 C429.836641,458.903775 434.909999,458.122051 432.231057,464.39652 M427.5,471 C442.136365,471 454,464.956599 454,457.498269 C454,450.043401 442.136365,444 427.5,444 C412.864331,444 401,450.043401 401,457.498269 C401,464.956599 412.864331,471 427.5,471" id="logo"></path>
            </g>
        </g>
    </g>
</svg>