<svg width="48" height="48" viewBox="0 0 48 48" xmlns="http://www.w3.org/2000/svg">
    <g stroke-width="2" fill="none" fill-rule="evenodd">
        <g stroke="#0793EA">
            <path d="M32.5 41h2a.5.5 0 1 1 0 1h-2a.5.5 0 1 1 0-1zM12.5 41h2a.5.5 0 1 1 0 1h-2a.5.5 0 1 1 0-1z" fill="#0793EA" stroke-linejoin="bevel"/>
            <path d="M24 41c-3.726 0-7.453-.167-11.179-.502A2 2 0 0 1 11 38.506v-5.31h0l2.6-4.41.724-3.211a4 4 0 0 1 3.28-3.072A41.118 41.118 0 0 1 24 22c2.132 0 4.264.168 6.395.503a4 4 0 0 1 3.281 3.072l.724 3.21h0l2.6 4.411v5.31a2 2 0 0 1-1.821 1.992C31.453 40.833 27.726 41 24 41z" stroke-linecap="round" stroke-linejoin="bevel"/>
            <path d="M11 29c5 .667 9.334 1 13 1 3.666 0 8-.333 13-1" fill="#FFF" stroke-linecap="square" stroke-linejoin="round"/>
            <path stroke-linecap="square" stroke-linejoin="round" d="m30 34.6 2-.2M17 34.6l-2-.2"/>
        </g>
        <path d="M4 46V16.448L21.908 4.835a4 4 0 0 1 4.367.01L44 16.448V46" stroke="#666"/>
    </g>
</svg>
