<svg width="80" height="80" viewBox="0 0 80 80" xmlns="http://www.w3.org/2000/svg">
    <g fill="none" fill-rule="evenodd">
        <path d="M80 40c0 22.091-17.909 40-40 40S0 62.091 0 40 17.909 0 40 0s40 17.909 40 40" fill="#1D9BF0"/>
        <path d="M32.681 61.099c17.737 0 27.436-14.695 27.436-27.436 0-.418-.008-.833-.027-1.247a19.622 19.622 0 0 0 4.81-4.993 19.25 19.25 0 0 1-5.538 1.518 9.677 9.677 0 0 0 4.24-5.334 19.324 19.324 0 0 1-6.122 2.34 9.634 9.634 0 0 0-7.039-3.046c-5.326 0-9.644 4.319-9.644 9.642 0 .757.085 1.493.25 2.2-8.014-.404-15.12-4.241-19.876-10.076a9.609 9.609 0 0 0-1.306 4.847 9.636 9.636 0 0 0 4.291 8.026 9.573 9.573 0 0 1-4.367-1.206c-.002.04-.002.08-.002.123 0 4.67 3.324 8.57 7.736 9.454a9.677 9.677 0 0 1-4.355.165 9.654 9.654 0 0 0 9.009 6.697A19.35 19.35 0 0 1 20.2 56.901c-.778 0-1.545-.045-2.3-.134A27.3 27.3 0 0 0 32.681 61.1" fill="#FFF"/>
    </g>
</svg>
