<?xml version="1.0" encoding="UTF-8"?>
<svg width="24px" height="24px" viewBox="0 0 24 24" version="1.1" xmlns="http://www.w3.org/2000/svg" xmlns:xlink="http://www.w3.org/1999/xlink">
    <title>49F9080E-AB7A-4CFB-90E5-9D27D1210400</title>
    <g id="❇️-icon" stroke="none" stroke-width="1" fill="none" fill-rule="evenodd" stroke-linejoin="round">
        <g id="[PC/MO]Icon" transform="translate(-624.000000, -2396.000000)" fill="#0793EA" fill-rule="nonzero" stroke="#0793EA">
            <g id="common-/-shopping-/-ic_favorite_fill" transform="translate(624.000000, 2396.000000)">
                <path d="M6.50180612,2 C4.98980282,2 3.6008054,2.62694436 2.59033165,3.76547853 C1.56483867,4.92119739 1,6.51877968 1,8.26411068 C1,10.1056363 1.65875667,11.7525999 3.13577838,13.6041993 C4.56336958,15.3939735 6.68679029,17.2740165 9.14538792,19.4509397 C10.0094713,20.2159541 10.9838228,21.0787433 11.9979087,22 C13.0180784,21.0769656 13.9939508,20.2127937 14.8551824,19.4505447 C17.3135899,17.2736215 19.4368205,15.3939735 20.8644117,13.6041993 C22.3412433,11.7525999 23,10.1056363 23,8.26411068 C23,6.51877968 22.4351613,4.92119739 21.4096683,3.76547853 C20.3993847,2.62694436 19.0101972,2 17.498384,2 C16.3907603,2 15.3738225,2.36581627 14.4758983,3.08717766 C13.6756944,3.7303191 13.1182703,4.543332 12.7914586,5.11220403 C12.6233948,5.40473861 12.3275722,5.57935072 12,5.57935072 C11.6724278,5.57935072 11.3766052,5.40473861 11.2085414,5.11220403 C10.8819199,4.543332 10.3244958,3.7303191 9.52410169,3.08717766 C8.62617746,2.36581627 7.6092397,2 6.50180612,2 Z" id="Path"></path>
            </g>
        </g>
    </g>
</svg>