<svg width="48" height="48" viewBox="0 0 48 48" xmlns="http://www.w3.org/2000/svg">
    <g fill="none" fill-rule="evenodd">
        <path d="M40.965 30.278C41.185 29.366 42 27.567 42 24c0-10.493-8.507-19-19-19S4 13.507 4 24s8.507 19 19 19v-3.983M23 5.924v2M5 23.924h2M39 23.924h2" stroke="#666" stroke-width="2"/>
        <path stroke="#666" stroke-width="2" d="M15 24.078h8v8"/>
        <path d="M29.538 44v-1.665l.831-.95L32.174 44H34v-.043l-2.656-3.694 2.38-2.743v-.054h-1.755l-2.43 2.787V35H28v9h1.538zm6.988 0v-4.294c.153-.626.62-1.196 1.383-1.196.896 0 1.323.57 1.323 1.655V44h1.536v-4.294c.153-.626.6-1.196 1.384-1.196.915 0 1.322.57 1.322 1.655V44H45v-4.014C45 38.219 44.308 37 42.69 37c-1.067 0-1.77.492-2.227 1.297-.336-.794-.987-1.297-2.014-1.297-.967 0-1.577.514-1.923 1.118v-.961H35V44h1.526z" fill="#0793EA" fill-rule="nonzero"/>
    </g>
</svg>
