<svg width="80" height="80" viewBox="0 0 80 80" xmlns="http://www.w3.org/2000/svg">
    <g fill="none" fill-rule="evenodd">
        <path d="M0 0h80v80H0z"/>
        <g stroke-width="3">
            <path d="M27.998 21.5a6.48 6.48 0 0 1 4.595 1.905A6.479 6.479 0 0 1 34.498 28c0 1.795-.728 3.42-1.905 4.595a6.48 6.48 0 0 1-4.595 1.905 6.48 6.48 0 0 1-4.596-1.905A6.479 6.479 0 0 1 21.498 28c0-1.794.728-3.419 1.904-4.595a6.48 6.48 0 0 1 4.596-1.905z" stroke="#666"/>
            <path stroke="#666" stroke-linejoin="round" d="M3.137 76.5h73.82"/>
            <path d="m72.534 55.974-8.628-8.628c.329-1.03.516-2.12.516-3.259 0-5.985-4.852-10.837-10.838-10.837-.929 0-1.703.05-2.553.305-.795.237-1.1 1.503-.29 2.312.81.81 4.391 4.438 4.391 4.438L54.1 44.604l-3.85 1.032s-4.178-4.218-4.86-4.902c-.922-.925-1.968-.638-2.248.56-.242 1.039-.394 1.672-.394 2.793 0 5.987 4.851 10.838 10.836 10.838 1.139 0 2.23-.188 3.26-.515l8.628 8.627a4.993 4.993 0 0 0 7.062 0 4.993 4.993 0 0 0 0-7.063z" stroke="#0793EA"/>
            <path d="M40.995 54.606C34.797 62.256 28.033 67 28.033 67S4.998 50.846 4.998 30.077C4.998 17.332 15.31 7 28.033 7c12.109 0 22.035 9.36 22.965 21.25" stroke="#666" stroke-linejoin="round"/>
        </g>
    </g>
</svg>
