<svg width="24" height="24" viewBox="0 0 24 24" xmlns="http://www.w3.org/2000/svg">
    <g fill="none" fill-rule="evenodd">
        <path d="M0 0h24v24H0z"/>
        <path d="M0 0h24v24H0z"/>
        <path d="M17.513 3.75c.543 0 1.04.294 1.304.76l.066.13 2.604 5.86H22.5V12h-.75v7.5c0 .78-.595 1.42-1.356 1.493L20.25 21H18c-.78 0-1.42-.595-1.493-1.356L16.5 19.5V18h-9v1.5c0 .78-.595 1.42-1.356 1.493L6 21H3.75c-.78 0-1.42-.595-1.493-1.356L2.25 19.5V12H1.5v-1.5h1.013l2.604-5.86c.22-.496.69-.83 1.224-.883l.146-.007h11.026zM19.5 13.5h-3v1.8h3v-1.8zm-12 0h-3v1.8h3v-1.8zM16.707 6H6.901L5.1 10.5l13.5-.009L16.707 6z" fill="#191919" fill-rule="nonzero"/>
    </g>
</svg>
