<?xml version="1.0" encoding="utf-8"?>
<!-- Generator: Adobe Illustrator 25.4.1, SVG Export Plug-In . SVG Version: 6.00 Build 0)  -->
<svg version="1.1" id="레이어_1" xmlns="http://www.w3.org/2000/svg" xmlns:xlink="http://www.w3.org/1999/xlink" x="0px"
	 y="0px" viewBox="0 0 64 64" style="enable-background:new 0 0 64 64;" xml:space="preserve">
<style type="text/css">
	.st0{fill:#0793EA;}
	.st1{fill-rule:evenodd;clip-rule:evenodd;fill:#FFFFFF;}
	.st2{fill:#666666;}
	.st3{fill-rule:evenodd;clip-rule:evenodd;fill:#0793EA;}
</style>
<g id="ic_contract-ok">
	<path class="st0" d="M51,64c-7.2,0-13-5.8-13-13s5.8-13,13-13s13,5.8,13,13S58.2,64,51,64z M51,40c-6.1,0-11,4.9-11,11
		s4.9,11,11,11s11-4.9,11-11S57.1,40,51,40z"/>
	<g>
		<polyline id="Path-10_00000176029308894962408880000015303549248151616692_" class="st1" points="45,50.3 49.2,54.5 57,46.7 		"/>
		<polygon class="st0" points="49.2,55.9 44.3,51 45.7,49.6 49.2,53.1 56.3,46 57.7,47.4 		"/>
	</g>
	<path class="st2" d="M9,49H7V16.3l23.2-9.1c1.2-0.5,2.5-0.5,3.6,0L57,16.3V35h-2V17.7L33.1,9.1c-0.7-0.3-1.5-0.3-2.2,0L9,17.7V49z"
		/>
	<path id="Rectangle-Copy-2_00000127010128211529548820000008939244310961046661_" class="st3" d="M19.5,45h1h1
		c0.3,0,0.5,0.2,0.5,0.5S21.8,46,21.5,46h-2c-0.3,0-0.5-0.2-0.5-0.5S19.2,45,19.5,45z"/>
	
		<rect x="39" y="36.5" transform="matrix(0.9951 -9.916515e-02 9.916515e-02 0.9951 -3.5166 4.2506)" class="st2" width="4" height="2"/>
	<g>
		<path class="st2" d="M48.1,32.9l-0.2-2l-1,0.1c-0.6,0.1-1.3,0.1-1.9,0.2l0-0.1l-0.9-3.7c-0.5-2-2.1-3.5-4.1-3.8
			c-5.3-0.8-10.7-0.8-16,0c-2,0.3-3.6,1.8-4.1,3.8l-0.9,3.7L19,31.2c-0.6-0.1-1.2-0.1-1.9-0.2l-1-0.1l-0.2,2l1,0.1
			c0.3,0,0.6,0.1,1,0.1l-1.7,2.8L16,36.4v6.1c0,1.3,0.8,2.4,2,2.8c0,0.1,0,0.2,0,0.2c0,0.8,0.7,1.5,1.5,1.5h2c0.8,0,1.4-0.6,1.5-1.3
			c3,0.2,6,0.3,9,0.3h3v-2h-3c-4.3,0-8.7-0.2-13.1-0.6c-0.5,0-0.9-0.5-0.9-1v-5.8l2-3.3c4.5,0.4,8.5,0.7,12,0.7
			c3.4,0,7.4-0.2,11.9-0.7l0.8,1.6l0.1,0.2l1.9-0.6l-0.1-0.3L46,33.1c0.4,0,0.7-0.1,1.1-0.1L48.1,32.9z M32,32
			c-3.2,0-6.9-0.2-11-0.6l0.8-3.5c0.3-1.2,1.2-2.1,2.4-2.3c5.1-0.8,10.3-0.8,15.4,0c1.2,0.2,2.2,1.1,2.4,2.3l0.8,3.5
			C38.9,31.8,35.2,32,32,32z"/>
		
			<rect x="22" y="35.5" transform="matrix(9.916515e-02 -0.9951 0.9951 9.916515e-02 -16.596 56.6679)" class="st2" width="2" height="4"/>
	</g>
</g>
</svg>
