<svg width="24" height="24" xmlns="http://www.w3.org/2000/svg">
    <g fill="none" fill-rule="evenodd">
        <path d="M0 0h24v24H0z"/>
        <path d="M6.822 20.928a2.564 2.564 0 0 1-2.56-2.56 2.564 2.564 0 0 1 2.56-2.562 2.564 2.564 0 0 1 2.56 2.561 2.564 2.564 0 0 1-2.56 2.561" fill="#0793EA"/>
        <path d="M6.822 15.348a3.023 3.023 0 0 0-3.02 3.02 3.023 3.023 0 0 0 3.02 3.019 3.023 3.023 0 0 0 3.02-3.02 3.023 3.023 0 0 0-3.02-3.02m0 .918c1.159 0 2.102.943 2.102 2.102a2.105 2.105 0 0 1-2.102 2.103 2.105 2.105 0 0 1-2.103-2.103c0-1.159.944-2.102 2.103-2.102" fill="#000"/>
        <path d="M16.307 20.928a2.564 2.564 0 0 1-2.56-2.56 2.564 2.564 0 0 1 2.56-2.562 2.564 2.564 0 0 1 2.561 2.561 2.564 2.564 0 0 1-2.56 2.561" fill="#0793EA"/>
        <path d="M16.307 15.348a3.023 3.023 0 0 0-3.02 3.02 3.023 3.023 0 0 0 3.02 3.019 3.023 3.023 0 0 0 3.02-3.02 3.023 3.023 0 0 0-3.02-3.02m0 .918c1.16 0 2.103.943 2.103 2.102a2.105 2.105 0 0 1-2.103 2.103 2.105 2.105 0 0 1-2.102-2.103c0-1.159.943-2.102 2.102-2.102" fill="#000"/>
        <path d="m21.435 10.43-2.264-4.504a.754.754 0 0 0-.674-.416h-3.228M2.402 18.367h1.7M2.917 7.153h5.367M2 9.888h5.368M9.513 18.367h4.167" stroke="#000" stroke-linecap="round"/>
        <path d="M19.402 18.367h2.843a.755.755 0 0 0 .755-.755v-4.906a.755.755 0 0 0-.159-.463l-1.484-1.912a.755.755 0 0 0-.596-.292h-5.485V4.756A.755.755 0 0 0 14.521 4H3.774" stroke="#000" stroke-linecap="round" stroke-linejoin="round"/>
    </g>
</svg>
