<svg width="48" height="48" viewBox="0 0 48 48" xmlns="http://www.w3.org/2000/svg">
    <g fill="none" fill-rule="evenodd">
        <g fill="#0793EA">
            <path d="M20.171 15.167c1.512-1.512 4.145-1.512 5.657 0a.997.997 0 0 0 1.414 0 .999.999 0 0 0 0-1.414A5.957 5.957 0 0 0 23 11.995c-1.603 0-3.11.624-4.243 1.758a.999.999 0 1 0 1.414 1.414"/>
            <path d="M15.93 10.924a.999.999 0 1 0 1.413 1.414c3.12-3.12 8.194-3.12 11.313 0a1.001 1.001 0 0 0 1.415-1.414c-3.899-3.898-10.244-3.898-14.142 0"/>
        </g>
        <g fill="#666">
            <path d="M28 35a1 1 0 0 1-1 1h-5.93a3.975 3.975 0 0 0-.28-.668l2.23-2.231a3.005 3.005 0 0 0 0-4.245 3.008 3.008 0 0 0-4.242.001l-.778.779V20a1 1 0 0 1 1-1h8a1 1 0 0 1 1 1v15zm-5.949 8H12v-9.364c0-.527.214-1.042.586-1.414L16 28.808v2.828l-2.172 2.172a1 1 0 1 0 1.414 1.414l4.95-4.95a1.001 1.001 0 0 1 1.414 0c.39.39.39 1.024 0 1.415l-2.828 2.828a1 1 0 0 0 0 1.414c.058.057 1.39 1.438-.707 3.536a1 1 0 1 0 1.414 1.414c1.01-1.009 1.506-1.99 1.687-2.879h2.792c-.114 1.614-.503 2.307-.914 3.022-.408.707-.856.504-.999 1.978zM19 17c-1.654 0-3 1.346-3 3v5.996c-.015.014-.035.019-.05.033l-4.778 4.779A4.025 4.025 0 0 0 10 33.636V43H9a1 1 0 0 0-1 1v2a1 1 0 1 0 2 0v-1h14v1a1 1 0 1 0 2 0v-2a1 1 0 0 0-1-1h-.943c.115-.914.393-.402.726-.98.5-.868 1.058-1.838 1.188-4.02H27c1.654 0 3-1.346 3-3V20c0-1.654-1.346-3-3-3h-8z"/>
            <path d="M23 25a1 1 0 1 1 .001-2.001A1 1 0 0 1 23 25m0-4c-1.654 0-3 1.346-3 3s1.346 3 3 3 3-1.346 3-3-1.346-3-3-3"/>
        </g>
        <path d="M4 35V9.71l17.84-7.23a3.143 3.143 0 0 1 2.363 0L42 9.71V21" stroke="#666" stroke-width="2"/>
    </g>
</svg>
