<svg width="64" height="64" viewBox="0 0 64 64" xmlns="http://www.w3.org/2000/svg">
    <g fill="none" fill-rule="evenodd">
        <path d="M0 0h64v64H0z"/>
        <g stroke-width="2">
            <path d="M23.806 7.505c1.434.001 2.633.58 3.394 1.595l4.8 6.4h-8a3.986 3.986 0 0 1-2.766-1.11 3.987 3.987 0 0 1-1.23-2.696c.001-1.25.413-2.236 1.106-2.96a3.987 3.987 0 0 1 2.696-1.23zM40.194 7.505c-1.434.001-2.633.58-3.394 1.595L32 15.5h8a3.986 3.986 0 0 0 2.766-1.11 3.987 3.987 0 0 0 1.23-2.696c-.001-1.25-.413-2.236-1.106-2.96a3.987 3.987 0 0 0-2.696-1.23z" stroke="#0793EA"/>
            <path stroke="#666" d="M11 35v22h42V35M32.417 19v37M53 20a2.99 2.99 0 0 1 2.121.879A2.99 2.99 0 0 1 56 23v7H8v-7c0-.828.336-1.578.879-2.121A2.99 2.99 0 0 1 11 20z"/>
        </g>
    </g>
</svg>
