<svg width="48" height="48" viewBox="0 0 48 48" xmlns="http://www.w3.org/2000/svg">
    <g fill="none" fill-rule="evenodd">
        <path d="M0 0h48v48H0z"/>
        <g stroke-width="2">
            <path d="m32.157 22.09-4.97-4.97a6.15 6.15 0 0 0 .297-1.878A6.242 6.242 0 0 0 21.242 9c-.535 0-.981.03-1.47.175-.459.137-.634.866-.168 1.332.466.467 2.53 2.557 2.53 2.557l-.595 2.476-2.218.594s-2.406-2.43-2.799-2.823c-.531-.533-1.134-.368-1.295.323-.139.598-.227.962-.227 1.608a6.242 6.242 0 0 0 6.242 6.243c.656 0 1.285-.108 1.878-.297l4.97 4.97a2.876 2.876 0 1 0 4.067-4.069z" stroke="#0793EA"/>
            <path d="M6 24V7a4 4 0 0 1 4-4H37.915A4.085 4.085 0 0 1 42 7.085v33.83A4.085 4.085 0 0 1 37.915 45H6V24zM15 32.5h18M15 38.5h18" stroke="#666"/>
        </g>
    </g>
</svg>
