<svg width="48" height="48" viewBox="0 0 48 48" xmlns="http://www.w3.org/2000/svg">
    <g stroke-width="2" fill="none" fill-rule="evenodd">
        <path d="M22.913 5h2a8 8 0 0 1 8 8v6.37h-18V13a8 8 0 0 1 8-8z" stroke="#666"/>
        <path d="M34.18 43A3.817 3.817 0 0 0 38 39.192V23.178c0-2.1-1.713-3.808-3.82-3.808H13.82A3.818 3.818 0 0 0 10 23.178v16.014c0 2.1 1.713 3.808 3.82 3.808h20.36z" stroke="#666"/>
        <path d="M23.838 35.475a1.66 1.66 0 0 0 1.663-1.658v-1.704a2.821 2.821 0 0 0 1.175-2.283c0-1.56-1.271-2.83-2.838-2.83A2.836 2.836 0 0 0 21 29.83c0 .939.466 1.767 1.175 2.283v1.704a1.66 1.66 0 0 0 1.663 1.658" stroke="#0793EA"/>
    </g>
</svg>
