<svg width="16" height="16" xmlns="http://www.w3.org/2000/svg">
    <g fill="none" fill-rule="evenodd">
        <path fill="none" d="M0 0h16v16H0z"/>
        <path d="M11.096 13.929c-1.03.2-2.192-.032-3.351-.558-2.486-1.129-4.987-3.63-6.116-6.116-.526-1.159-.758-2.32-.558-3.35.209-1.071 1.511-2.58 2.715-2.893.313-.082.677.263 1.003.791.392.634.863 1.704.967 2.41.054.37-.008.65-.233.764a6.14 6.14 0 0 1-.767.362c-.343.141-.61.252-.714.47-.006.012.027.093.09.226.587 1.235 3.485 4.227 4.752 4.83.16.075.27.111.307.093.218-.104.328-.371.47-.714.095-.23.201-.49.361-.767.285-.526 1.427-.09 1.955.125.427.173.867.39 1.22.61.527.325.873.69.791 1.002-.314 1.204-1.822 2.506-2.892 2.715" fill="#0793EA"/>
    </g>
</svg>
