<svg width="80" height="80" xmlns="http://www.w3.org/2000/svg">
    <g fill="none" fill-rule="evenodd">
        <g stroke-width="2.5">
            <path d="M68.116 53.087c2.313-.948 4.055-3.14 6.15-6.914-5.623-3.284-11.779-1.33-15.78 5.674M50.469 60.375c3.964 3.773 9.85 6.333 17.27-1.403-4.905-4.67-11.68-4.426-17.27 1.403zM70.337 40.665c2.451-1.696 4.294-4.847 4.663-10.394-6.77-.447-11.81 4.068-12.348 12.114M68.767 27.389c1.656-2.48 2.204-6.088.488-11.389-6.456 2.075-9.466 8.126-6.982 15.8M9.886 53.087c-2.313-.948-4.055-3.14-6.15-6.914 5.623-3.284 11.779-1.33 15.78 5.674M27.533 60.375c-3.965 3.773-9.85 6.333-17.27-1.403 4.905-4.67 11.679-4.426 17.27 1.403zM7.664 40.665C5.214 38.97 3.371 35.818 3 30.271c6.771-.447 11.811 4.068 12.35 12.114M9.234 27.389C7.578 24.909 7.031 21.3 8.746 16c6.457 2.075 9.467 8.126 6.983 15.8" stroke="#333" stroke-linecap="round" stroke-linejoin="round"/>
            <path d="M56.218 37.825c0 9.471-7.709 17.15-17.217 17.15-9.51 0-17.218-7.679-17.218-17.15 0-9.47 7.709-17.149 17.218-17.149 9.508 0 17.217 7.678 17.217 17.15z" stroke="#333"/>
            <path stroke="#0793EA" stroke-linecap="round" stroke-linejoin="round" d="m39 27.735 3.06 6.229 6.575.743-4.685 5.053 1.005 6.228L39 43.341l-5.954 2.647 1.005-6.228-4.685-5.053 6.575-.743z"/>
        </g>
        <path d="M0 0h80v80H0z"/>
    </g>
</svg>
