<svg width="48" height="48" viewBox="0 0 48 48" xmlns="http://www.w3.org/2000/svg">
    <g fill="none" fill-rule="evenodd">
        <path d="M0 0h48v48H0z"/>
        <g stroke-linejoin="round" stroke-width="2">
            <path d="M43.64 14.815c.02.34.011.683-.024 1.025l1.266 2.046a8.841 8.841 0 0 1-1.961 3.145l-2.55.01c-.304.198-.621.376-.95.53l-1.285 2.137a9.423 9.423 0 0 1-3.787.078l-1.19-2.09a6.94 6.94 0 0 1-.926-.494l-2.55.09a7.913 7.913 0 0 1-1.826-3.067l1.36-2.099c-.02-.34-.011-.683.024-1.025l-1.265-2.046a8.841 8.841 0 0 1 1.96-3.145l2.55-.01c.304-.198.621-.375.95-.53l1.286-2.137a9.423 9.423 0 0 1 3.786-.077l1.19 2.089c.323.142.632.307.926.494l2.55-.09A7.913 7.913 0 0 1 45 12.715l-1.36 2.099z" stroke="#0793EA" stroke-linecap="round"/>
            <path d="M35 17.915c1.367.78 3.114.317 3.903-1.033a2.805 2.805 0 0 0-1.046-3.856c-1.366-.78-3.114-.317-3.902 1.033A2.805 2.805 0 0 0 35 17.915z" stroke="#0793EA" stroke-linecap="round"/>
            <path d="M29.488 25.79c.032.567.019 1.138-.04 1.708l2.123 3.41a14.72 14.72 0 0 1-3.29 5.242l-4.28.016c-.51.33-1.042.626-1.594.884l-2.157 3.562c-2.103.47-4.27.514-6.355.129l-1.998-3.482c-.54-.237-1.06-.513-1.553-.825l-4.28.152A13.17 13.17 0 0 1 3 31.474l2.282-3.499c-.032-.568-.019-1.139.04-1.708L3.2 22.857a14.72 14.72 0 0 1 3.29-5.242l4.281-.016c.508-.331 1.04-.627 1.593-.884l2.157-3.562c2.104-.47 4.27-.514 6.355-.129l1.998 3.482c.54.237 1.06.512 1.553.824" stroke="#666"/>
            <path d="M19.547 23.713c-1.935-1.104-4.41-.449-5.528 1.464A3.974 3.974 0 0 0 15.5 30.64c1.936 1.104 4.411.449 5.529-1.464a3.974 3.974 0 0 0-1.482-5.463z" stroke="#666" stroke-linecap="round"/>
        </g>
    </g>
</svg>
