<svg width="64" height="64" viewBox="0 0 64 64" xmlns="http://www.w3.org/2000/svg">
    <g fill="none" fill-rule="evenodd">
        <path d="M0 0h64v64H0z"/>
        <g transform="translate(3 9)" stroke-width="2">
            <path stroke="#666" stroke-linecap="square" stroke-linejoin="round" d="M18 31h20M18 36h20"/>
            <path d="M16.003 21h-.639c-.729-.22-1.173-1.163-1.333-2.828-.16-1.665.305-2.811 1.396-3.438 3.323-2.943 6.827-4.513 10.512-4.71 3.685-.197 6.627.814 8.827 3.032 1.106.72 2.459 1.28 4.06 1.678 2.4.597 5.174.63 5.174 3.438 0 2.808.036 2.808-1.963 2.828" stroke="#0793EA" stroke-linecap="square"/>
            <circle stroke="#0793EA" cx="21" cy="21" r="2"/>
            <circle stroke="#0793EA" cx="37" cy="21" r="2"/>
            <path stroke="#0793EA" stroke-linecap="square" d="M27 21.5h4"/>
            <path d="M0 25.22V4a4 4 0 0 1 4-4h49.992a4 4 0 0 1 4 4.008L57.907 46h0H4a4 4 0 0 1-4-4V25.22h0z" stroke="#666" stroke-linecap="square"/>
        </g>
    </g>
</svg>
