<svg width="24" height="24" xmlns="http://www.w3.org/2000/svg">
    <g fill="none" fill-rule="evenodd">
        <path d="M0 0h24v24H0z"/>
        <path stroke="#333" stroke-width="2" d="M4 4h4v4H4zM4 16h4v4H4zM16 4h4v4h-4z"/>
        <path stroke="#333" d="M11.5 3.5h1v1h-1zM11.5 7.5h1v1h-1zM11.5 11.5h1v1h-1zM13.5 13.5h1v1h-1zM13.5 17.5h1v1h-1zM11.5 15.5h1v1h-1zM11.5 19.5h1v1h-1zM15.5 11.5h1v1h-1zM17.5 13.5h1v1h-1zM17.5 17.5h1v1h-1zM15.5 15.5h1v1h-1zM15.5 19.5h1v1h-1zM19.5 11.5h1v1h-1zM19.5 19.5h1v1h-1zM19.5 15.5h1v1h-1zM7.5 11.5h1v1h-1zM3.5 11.5h1v1h-1z"/>
    </g>
</svg>
