<svg width="24" height="24" xmlns="http://www.w3.org/2000/svg">
    <g fill="none" fill-rule="evenodd">
        <path d="M19 8.92V7.83C19 4.058 15.866 1 12 1S5 4.058 5 7.83v1.09M15 21.049h1c1.657 0 3-1.31 3-2.927" stroke="#666"/>
        <path d="M3.818 8.46H6v7.806H3.818A1.818 1.818 0 0 1 2 14.448v-4.169c0-1.004.814-1.818 1.818-1.818zM20.182 16.266H18V8.461h2.182c1.004 0 1.818.814 1.818 1.818v4.169a1.818 1.818 0 0 1-1.818 1.818z" stroke="#0793EA"/>
        <rect stroke="#666" x="9" y="20.36" width="6" height="2.64" rx=".909"/>
        <path d="M0 0h24v24H0z"/>
    </g>
</svg>
