<svg width="16" height="16" xmlns="http://www.w3.org/2000/svg">
    <g transform="translate(-728 -2759)" fill="none" fill-rule="evenodd">
        <path fill="#FFF" d="M0 0h1920v3279H0z"/>
        <rect stroke="#E9E9E9" x="688.5" y="2711.5" width="831" height="177" rx="8"/>
        <path fill="#FFF" d="M728 2759h16v16h-16z"/>
        <path d="m740.488 2772.684 1.07-.617a.307.307 0 0 0 .12-.417l-1.483-2.57a.307.307 0 0 0-.422-.104l-1.178.68c-.638.368-1.44.172-1.792-.438l-1.08-1.869-1.076-1.864c-.352-.61-.12-1.404.517-1.772l1.202-.694a.308.308 0 0 0 .122-.418l-1.484-2.57a.308.308 0 0 0-.422-.103l-1.094.632c-1.477.853-2.013 2.691-1.197 4.106l4.043 7.001c.817 1.415 2.677 1.87 4.154 1.017z" fill="#000"/>
    </g>
</svg>
