<svg width="48" height="48" viewBox="0 0 48 48" xmlns="http://www.w3.org/2000/svg">
    <g fill="none" fill-rule="evenodd">
        <path d="M0 0h48v48H0z"/>
        <g stroke-width="2">
            <g transform="translate(23 24)" stroke="#0793EA">
                <circle cx="11" cy="11" r="10"/>
                <path stroke-linecap="square" d="m7 11.657 2.828 2.828 5.511-5.803"/>
            </g>
            <path d="M20.585 34H4V6.545C4 4.587 5.679 3 7.75 3h32.5C42.321 3 44 4.587 44 6.545V23" stroke="#666"/>
            <g transform="translate(14 9)" stroke="#666">
                <path d="M2.067 8H1c-.534-.16-.86-.846-.976-2.057-.118-1.21.223-2.044 1.022-2.5 2.434-2.14 5-3.282 7.699-3.426 2.699-.143 4.854.592 6.465 2.205.81.525 1.8.931 2.972 1.22 1.758.435 3.826.623 3.79 2.501-.036 1.879.477 2.036-1.689 2.057"/>
                <circle cx="5.5" cy="8.5" r="1.5"/>
                <circle cx="16.5" cy="8.5" r="1.5"/>
                <path d="M9 8.5h4"/>
            </g>
            <path stroke="#666" stroke-linejoin="round" d="M11 24h10M11 28h10"/>
        </g>
    </g>
</svg>
