<svg width="64" height="64" viewBox="0 0 64 64" xmlns="http://www.w3.org/2000/svg">
    <g fill="none" fill-rule="evenodd">
        <path d="M0 0h64v64H0z"/>
        <path stroke="#666" stroke-width="2" d="M28 54h8"/>
        <path d="M26.417 33.838v-3.1h1.188l2.227 3.1h1.703V33.8l-2.402-3.167c.975-.267 1.629-1.047 1.629-2.179 0-1.427-1.03-2.302-2.467-2.302H25v7.686h1.417zm1.73-4.375h-1.73v-2.017h1.73c.756 0 1.142.37 1.142 1.008 0 .628-.386 1.009-1.141 1.009zM35.66 34c1.546 0 2.687-.742 3.341-1.883l-1.059-.819c-.478.819-1.16 1.332-2.236 1.332-1.455 0-2.357-1.141-2.357-2.635 0-1.484.902-2.625 2.357-2.625 1.077 0 1.758.513 2.236 1.332L39 27.883C38.346 26.742 37.205 26 35.659 26c-2.19 0-3.783 1.703-3.783 3.995 0 2.302 1.592 4.005 3.783 4.005z" fill="#0793EA" fill-rule="nonzero"/>
        <path d="M12 10V7a4 4 0 0 1 4-4h32a4 4 0 0 1 4 4v3M52 50v11H12V50M12 16v28M52 16v28" stroke="#666" stroke-width="2"/>
        <path stroke="#0793EA" stroke-width="2" d="M7 23V13h10M47 13h10v10M57 37v10H47M17 47H7V37"/>
    </g>
</svg>
