<?xml version="1.0" encoding="UTF-8"?>
<svg width="64px" height="64px" viewBox="0 0 64 64" version="1.1" xmlns="http://www.w3.org/2000/svg" xmlns:xlink="http://www.w3.org/1999/xlink">
    <title>send docu</title>
    <g id="PC_온라인구매가이드" stroke="none" stroke-width="1" fill="none" fill-rule="evenodd">
        <g id="PC_SC-FE-PU-900_-차량선택-및-견적확인" transform="translate(-928.000000, -510.000000)">
            <g id="Step_Top" transform="translate(400.000000, 486.000000)">
                <g id="3" transform="translate(480.000000, 0.000000)">
                    <g id="send-docu" transform="translate(48.000000, 24.000000)">
                        <g transform="translate(4.000000, 4.000000)" stroke-width="2">
                            <g id="ic_send" transform="translate(0.000000, 6.627907)">
                                <g id="Group-2-Copy" transform="translate(39.000000, 35.872093) rotate(-180.000000) translate(-39.000000, -35.872093) translate(33.000000, 29.372093)" stroke="#0793EA">
                                    <line x1="6" y1="-7.38964445e-13" x2="6" y2="13" id="Path-38"></line>
                                    <polyline id="Path-39" points="0 6.59972526 6.03635899 13 12 6.59972526"></polyline>
                                </g>
                                <polyline id="Path-64" stroke="#666666" points="0 0.372093023 26.7051899 16.372093 53 0.372093023"></polyline>
                            </g>
                            <path d="M22.4756098,42.5 L0.5,42.5 L0.5,5.30351906 C0.5,2.65060874 2.72458515,0.5 5.46875,0.5 L48.53125,0.5 C51.2754149,0.5 53.5,2.65060874 53.5,5.30351906 L53.5,29.3677777" id="Path-18" stroke="#666666"></path>
                            <circle id="Oval-2" stroke="#0793EA" cx="39.5" cy="42.5" r="13.5"></circle>
                        </g>
                        <rect id="Rectangle" x="0" y="0" width="64" height="64"></rect>
                    </g>
                </g>
            </g>
        </g>
    </g>
</svg>