<svg width="24" height="24" xmlns="http://www.w3.org/2000/svg">
    <g fill="none" fill-rule="evenodd">
        <path d="M0 0h24v24H0z"/>
        <path d="M8.532 6c-.879-.001-1.61.755-1.95 1.565l-1.17 2.792c-.013.027-.02.061-.032.088-1.052.463-1.437 1.348-1.373 2.336l.446 2.943c.09.477.39.73.948.77l-.002 1.894c0 .327.256.6.564.6l1.083.001c.308 0 .564-.272.565-.598l.001-1.888 8.782.009-.002 1.887c0 .327.256.6.564.6l1.083.001c.308 0 .564-.272.565-.599l.001-1.894h-.012c.557-.04.852-.292.949-.769l.451-2.942c.065-.98-.319-1.874-1.37-2.338a.474.474 0 0 0-.032-.089l-1.164-2.794c-.333-.804-1.07-1.568-1.947-1.568l-.968-.001L8.532 6z" fill="#191919"/>
        <path d="M7.61 11.476c-.147 0-.282.008-.41.024l.795-2.489C8.13 8.596 8.468 8 8.831 8h6.338c.362 0 .701.596.836 1.011L16.8 11.5a3.359 3.359 0 0 0-.41-.024H7.61z" fill="#FFF"/>
    </g>
</svg>
