<svg width="80" height="80" viewBox="0 0 80 80" xmlns="http://www.w3.org/2000/svg">
    <g fill="none" fill-rule="evenodd">
        <circle fill="#06C755" cx="40" cy="40" r="40"/>
        <path d="M65 37.288C65 26.1 53.785 17 40 17c-13.784 0-25 9.101-25 20.288 0 10.029 8.894 18.428 20.908 20.016.814.176 1.922.536 2.203 1.232.252.632.164 1.623.08 2.26 0 0-.293 1.765-.357 2.141-.108.632-.502 2.472 2.166 1.348 2.668-1.124 14.397-8.478 19.642-14.515C63.263 45.797 65 41.765 65 37.288" fill="#FFF"/>
        <path d="M56.683 43.747H49.66a.477.477 0 0 1-.477-.477V32.36c0-.264.214-.478.477-.478h7.024c.263 0 .477.215.477.477v1.773a.477.477 0 0 1-.477.478H51.91v1.84h4.773c.263 0 .477.216.477.478v1.773a.477.477 0 0 1-.477.478H51.91v1.84h4.773c.263 0 .477.216.477.478v1.773a.477.477 0 0 1-.477.477M47 31.882h-1.772a.477.477 0 0 0-.478.477v6.48l-4.992-6.74a.526.526 0 0 0-.038-.05l-.003-.004a.576.576 0 0 0-.029-.03l-.009-.007a.462.462 0 0 0-.026-.022l-.013-.01a.685.685 0 0 0-.066-.04l-.015-.008a.59.59 0 0 0-.028-.012l-.016-.006-.028-.009-.018-.004a.38.38 0 0 0-.048-.01l-.026-.003-.025-.001-.017-.001H37.59a.477.477 0 0 0-.477.477V43.27c0 .263.214.477.477.477h1.773a.477.477 0 0 0 .477-.477v-6.478l4.999 6.75a.483.483 0 0 0 .123.12l.005.004a.426.426 0 0 0 .09.047l.016.005a.68.68 0 0 0 .033.01l.007.003c.04.01.081.016.124.016H47a.477.477 0 0 0 .478-.477V32.36a.477.477 0 0 0-.478-.478M34.93 31.882h-1.772a.477.477 0 0 0-.478.477V43.27c0 .263.214.477.478.477h1.773a.477.477 0 0 0 .477-.477V32.36a.477.477 0 0 0-.477-.478M30.702 43.747a.477.477 0 0 0 .478-.477v-1.773a.479.479 0 0 0-.478-.477H25.93v-8.66a.479.479 0 0 0-.477-.478h-1.773a.477.477 0 0 0-.478.477V43.27c0 .264.214.477.478.477H30.702z" fill="#06C755"/>
    </g>
</svg>
