<svg width="48" height="48" viewBox="0 0 48 48" xmlns="http://www.w3.org/2000/svg">
    <g fill="none" fill-rule="evenodd">
        <path d="M0 0h48v48H0z"/>
        <g stroke-width="2">
            <path d="M39 45h-1.364l-2.727-2.377L32.182 45l-2.727-2.377L26.727 45 24 42.623 21.273 45l-2.728-2.377L15.818 45l-2.727-2.377L10.364 45H9V6.32A3.32 3.32 0 0 1 12.32 3h23.36A3.32 3.32 0 0 1 39 6.32V45z" stroke="#666" stroke-linejoin="round"/>
            <g stroke="#0793EA" stroke-linejoin="round">
                <path d="M20 17h8M24 17v7M28 12l-4 5-4-5M20 20h8"/>
            </g>
            <path stroke="#666" d="M16 29h16M16 34h16"/>
        </g>
    </g>
</svg>
