<svg width="16" height="16" xmlns="http://www.w3.org/2000/svg" xmlns:xlink="http://www.w3.org/1999/xlink">
    <defs>
        <path id="a" d="M0 0h4v8H0z"/>
    </defs>
    <g fill="none" fill-rule="evenodd">
        <circle stroke="#CCC" cx="8" cy="8" r="7.5"/>
        <g transform="translate(6 4)">
            <mask id="b" fill="#fff">
                <use xlink:href="#a"/>
            </mask>
            <path d="M2.64 0c-.751 0-1.36.479-1.36 1.07 0 .59.609 1.069 1.36 1.069.751 0 1.36-.48 1.36-1.07C4 .48 3.391 0 2.64 0M1.11 4.45c.04-.125-.092-.194-.275-.194-.365 0-.555-.177-.488-.345.072-.179 1.95-1.095 2.655-1.156.373-.032.463.04.332.449-.057.18-.994 2.828-1.143 3.4-.021.083.024.14.076.157.223.073.69-.018 1.064-.376 0 .425-.802 1.083-1.609 1.418-.576.238-1.177.222-1.387.149-.25-.087-.393-.318-.313-.513.05-.12 1.025-2.795 1.088-2.989" fill="#CCC" mask="url(#b)"/>
        </g>
    </g>
</svg>
