<svg width="50" height="51" viewBox="0 0 50 51" xmlns="http://www.w3.org/2000/svg">
    <g stroke-width="2" fill="none" fill-rule="evenodd">
        <path d="M18.894 22.49c5.827 0 10.55-4.725 10.55-10.55 0-5.832-4.723-10.555-10.55-10.555-5.83 0-10.552 4.723-10.552 10.555 0 5.825 4.723 10.55 10.552 10.55z" stroke="#666" stroke-linejoin="round"/>
        <path stroke="#0793EA" stroke-linejoin="round" d="m28.255 45.982 2.95-.001 1.302-2.965 1.32.003 1.248 2.963 3.182-.001 1.3-2.966 1.321.003 1.248 2.963h3.029l3.106-4.717-3.106-4.676-16.995.001"/>
        <path stroke="#0793EA" d="M28.33 39.148H43.34M27.97 46.476c-1.47 2.127-3.839 3.518-6.7 3.518h-2.996c-4.81 0-6.515-3.9-6.515-8.708 0-4.812 1.705-8.71 6.514-8.71h2.996c2.793 0 5.126 1.318 6.592 3.364.169.234.47.747.471 1.775v7.505c0 .419.005.727-.363 1.256z"/>
        <path d="M15.817 36.543c.302-.576 1.038-.81 1.644-.523.607.287.552.919.552 1.561l.063 7.412c0 .641.11 1.271-.483 1.581-.187.1-.39.145-.59.146a1.24 1.24 0 0 1-1.076-.603c-.679-1.171-1.023-2.815-1.023-4.887 0-1.955.308-3.533.913-4.687z" stroke="#0793EA"/>
        <path d="M36.493 36.59c-.921-5.885-6.578-11.31-17.602-11.31-12.106 0-17.737 6.54-17.737 13.048v3.281" stroke="#666" stroke-linejoin="round"/>
    </g>
</svg>
