<svg width="64" height="64" xmlns="http://www.w3.org/2000/svg" xmlns:xlink="http://www.w3.org/1999/xlink">
    <defs>
        <path id="a" d="M0 0h9.232v6.514H0z"/>
    </defs>
    <g fill="none" fill-rule="evenodd">
        <path d="M0 0h64v64H0z"/>
        <path fill="#CCC" d="M27 37h10v2H27z"/>
        <path d="M51.31 24.37c3.09 0 5.6 2.49 5.6 5.555V37h-1.931v-7.074c0-1.916-1.738-3.64-3.669-3.64H12.69c-1.931 0-3.67 1.724-3.67 3.64V48.51c0 .384.194.575.58.575h6.18c.386 0 .579-.192.579-.575v-3.832c0-.574.386-.957.965-.957H39v1.915H18.29v2.874C18.29 49.85 17.13 51 15.78 51H9.6c-1.352 0-2.51-1.15-2.51-2.49V29.924c0-3.065 2.51-5.556 5.6-5.556h38.62z" stroke="#CCC" stroke-width=".5" fill="#CCC"/>
        <path d="M16.938 30.692c-1.352 0-2.51 1.15-2.51 2.49 0 1.341 1.158 2.49 2.51 2.49 1.352 0 2.51-1.149 2.51-2.49 0-1.34-1.158-2.49-2.51-2.49m0 6.897c-2.317 0-4.441-1.916-4.441-4.407 0-2.299 1.93-4.406 4.44-4.406 2.511 0 4.442 1.916 4.442 4.406 0 2.3-2.124 4.407-4.441 4.407M47.062 30.692c-1.352 0-2.51 1.15-2.51 2.49 0 1.341 1.158 2.49 2.51 2.49 1.352 0 2.51-1.149 2.51-2.49 0-1.34-1.158-2.49-2.51-2.49m0 6.897c-2.317 0-4.441-1.916-4.441-4.407 0-2.299 1.93-4.406 4.441-4.406 2.51 0 4.441 1.916 4.441 4.406-.193 2.3-2.124 4.407-4.44 4.407" stroke="#CCC" stroke-width=".5" fill="#CCC"/>
        <g transform="translate(4 19.388)">
            <mask id="b" fill="#fff">
                <use xlink:href="#a"/>
            </mask>
            <path d="M3.283 1.916c-.773 0-1.352.575-1.352 1.34 0 .767.58 1.342 1.352 1.342h2.703c.58 0 .966-.191 1.159-.766.193-.383.193-.958 0-1.341s-.58-.575-1.159-.575H3.283zm2.703 4.598H3.283C1.545 6.514 0 4.981 0 3.257 0 1.533 1.545 0 3.283 0h2.703C7.145 0 8.11.575 8.69 1.533c.579.958.772 2.299.193 3.257-.58.958-1.738 1.724-2.897 1.724z" stroke="#CCC" stroke-width=".5" fill="#CCC" mask="url(#b)"/>
        </g>
        <path d="M52.276 26.285c-.386 0-.773-.192-.966-.575l-5.02-12.07c-.387-1.15-1.545-1.724-2.704-1.724H20.414c-1.159 0-2.317.766-2.704 1.724l-5.02 12.07c-.193.575-.773.766-1.352.575-.58-.192-.772-.766-.58-1.341l5.021-12.07C16.552 11.15 18.483 10 20.414 10h23.172a4.88 4.88 0 0 1 4.442 2.874l5.02 12.07c.193.575 0 .958-.58 1.341h-.192z" stroke="#CCC" stroke-width=".5" fill="#CCC"/>
        <path d="M53.048 21.878c-.193.384-.386.958 0 1.341.386.384.773.767 1.159.767h2.703c.773 0 1.352-.575 1.352-1.341 0-.767-.58-1.341-1.352-1.341h-2.703c-.58 0-.966.191-1.159.574m3.67 4.024h-2.704c-1.159 0-2.318-.575-2.897-1.724-.58-1.15-.58-2.3.193-3.257.58-.958 1.545-1.533 2.704-1.533h2.703c1.738 0 3.283 1.533 3.283 3.257 0 1.724-1.545 3.257-3.283 3.257" stroke="#CCC" stroke-width=".5" fill="#CCC"/>
        <g stroke="#0793EA">
            <path stroke-width="2" d="M43 41h4v4h-4zM43 53h4v4h-4zM55 41h4v4h-4z"/>
            <path fill="#D8D8D8" d="M50.5 40.5h1v1h-1zM50.5 44.5h1v1h-1zM50.5 48.5h1v1h-1zM52.5 50.5h1v1h-1zM52.5 54.5h1v1h-1zM50.5 52.5h1v1h-1zM50.5 56.5h1v1h-1zM54.5 48.5h1v1h-1zM56.5 50.5h1v1h-1zM56.5 54.5h1v1h-1zM54.5 52.5h1v1h-1zM54.5 56.5h1v1h-1zM58.5 48.5h1v1h-1zM58.5 56.5h1v1h-1zM58.5 52.5h1v1h-1zM46.5 48.5h1v1h-1z"/>
        </g>
        <path stroke="#0793EA" fill="#D8D8D8" d="M42.5 48.5h1v1h-1z"/>
    </g>
</svg>
