<svg width="32" height="32" xmlns="http://www.w3.org/2000/svg">
    <g fill="none" fill-rule="evenodd">
        <path d="M0 0h32v32H0z"/>
        <g stroke="#1D1D1B" stroke-linecap="square" stroke-width="1.5">
            <path d="M22.949 5H9.052c-.388 0-.72.28-.784.662L6.98 13.317h18.043l-1.29-7.655A.795.795 0 0 0 22.95 5zM28 25.947a.795.795 0 0 1-.794.794h-2.933a.795.795 0 0 1-.794-.794v-2.14H8.52v2.14a.795.795 0 0 1-.794.794H4.794A.795.795 0 0 1 4 25.947V15.503c0-1.208.98-2.186 2.187-2.186h19.626c1.209 0 2.187.978 2.187 2.186v10.444z"/>
            <path d="M11.402 18.562a2.121 2.121 0 1 1-4.243 0 2.121 2.121 0 0 1 4.243 0zM24.842 18.562a2.121 2.121 0 1 1-4.243 0 2.121 2.121 0 0 1 4.243 0z"/>
        </g>
    </g>
</svg>
