<svg width="80" height="80" viewBox="0 0 80 80" xmlns="http://www.w3.org/2000/svg">
    <g fill="none" fill-rule="evenodd">
        <circle fill="#666" cx="40" cy="40" r="40"/>
        <g fill="#FFF" fill-rule="nonzero">
            <path d="M23.047 56.688h9.867v-9.23h-9.75v1.053h8.58v7.111h-8.697zM39.167 57.26h4.537c1.157 0 1.651 0 2.249-.026v-1.092c-.78.039-1.339.052-2.158.052h-4.563c-1.495 0-1.612-.208-1.612-1.235v-3.146c2.691-.546 5.343-1.222 8.047-2.002v-1.274a79.956 79.956 0 0 1-8.047 2.158v-3.913h-1.131v8.489c0 1.716.702 1.989 2.678 1.989zm6.448-8.853c.715 0 1.287-.572 1.287-1.287s-.572-1.287-1.287-1.287c-.728 0-1.3.572-1.3 1.287s.572 1.287 1.3 1.287zm0-.598c-.377 0-.663-.312-.663-.689 0-.377.286-.689.663-.689.377 0 .663.312.663.689 0 .377-.286.689-.663.689zM48.332 52.619h11.336v-1.157H48.332z"/>
        </g>
        <g fill="#FFF" fill-rule="nonzero">
            <path d="M28.013 39.99c4.104 0 6.174-2.754 6.174-6.498V25.14h-2.79v8.154c0 2.484-.99 4.104-3.384 4.104s-3.402-1.62-3.402-4.104V25.14h-2.754v8.352c0 3.744 2.052 6.498 6.156 6.498zM37.157 39.684h2.772v-5.868h2.322l4.356 5.868h3.33v-.072l-4.698-5.994c1.908-.504 3.186-1.98 3.186-4.122 0-2.7-2.016-4.356-4.824-4.356h-6.444v14.544zm2.772-8.28v-3.816h3.384c1.476 0 2.232.702 2.232 1.908 0 1.188-.756 1.908-2.232 1.908h-3.384zM51.449 39.684h9.81v-2.43h-7.038V25.14h-2.772z"/>
        </g>
    </g>
</svg>
