<?xml version="1.0" encoding="UTF-8"?>
<svg width="68px" height="20px" viewBox="0 0 68 20" version="1.1" xmlns="http://www.w3.org/2000/svg" xmlns:xlink="http://www.w3.org/1999/xlink">
    <title>ic / linepay</title>
    <defs>
        <polygon id="path-1" points="0 1.72631752e-15 7 1.72631752e-15 7 11 0 11"></polygon>
    </defs>
    <g id="MO-/-상세견적" stroke="none" stroke-width="1" fill="none" fill-rule="evenodd">
        <g id="MO-SC-FE-CP-100-상세견적-All-0924" transform="translate(-64.000000, -5619.000000)">
            <g id="Group-33" transform="translate(0.000000, 5417.000000)">
                <g id="Group-24" transform="translate(20.000000, 86.000000)">
                    <g id="Group-16-Copy-2" transform="translate(0.000000, 96.000000)">
                        <g id="ic-/-linepay" transform="translate(44.000000, 20.000000)">
                            <path d="M11.4643652,4 L9.5358371,4 C9.23990291,4 9,4.20188484 9,4.4507513 L9,14.5492487 C9,14.7982854 9.23990291,15 9.5358371,15 L11.4643652,15 C11.7602994,15 12,14.7982854 12,14.5492487 L12,4.4507513 C12,4.20188484 11.7602994,4 11.4643652,4" id="Fill-1" fill="#000000"></path>
                            <g id="Group-5" transform="translate(0.000000, 4.000000)">
                                <mask id="mask-2" fill="white">
                                    <use xlink:href="#path-1"></use>
                                </mask>
                                <g id="Clip-4"></g>
                                <path d="M6.57061482,8.47541821 L2.4048651,8.47541821 L2.4048651,0.450751304 C2.4048651,0.201884836 2.21271199,1.72631752e-15 1.97547992,1.72631752e-15 L0.429498688,1.72631752e-15 C0.192266619,1.72631752e-15 -4.86463573e-05,0.201884836 -4.86463573e-05,0.450751304 L-4.86463573e-05,10.5492487 C-4.86463573e-05,10.7981152 0.192266619,11 0.429498688,11 L6.57061482,11 C6.80784689,11 7,10.7981152 7,10.5492487 L7,8.92616951 C7,8.67730304 6.80784689,8.47541821 6.57061482,8.47541821" id="Fill-3" fill="#000000" mask="url(#mask-2)"></path>
                            </g>
                            <path d="M31.5706178,6.52458179 C31.8078482,6.52458179 32,6.32269696 32,6.07383049 L32,4.4507513 C32,4.20188484 31.8078482,4 31.5706178,4 L25.4295443,4 C25.1923139,4 25,4.20188484 25,4.4507513 L25,14.5492487 C25,14.7981152 25.1923139,15 25.4295443,15 L31.5706178,15 C31.8078482,15 32,14.7981152 32,14.5492487 L32,12.9261695 C32,12.677303 31.8078482,12.4754182 31.5706178,12.4754182 L27.404897,12.4754182 L27.404897,10.7622909 L31.5706178,10.7622909 C31.8078482,10.7622909 32,10.5604061 32,10.3115396 L32,8.68846041 C32,8.43959394 31.8078482,8.2377091 31.5706178,8.2377091 L27.404897,8.2377091 L27.404897,6.52458179 L31.5706178,6.52458179 Z" id="Fill-6" fill="#000000"></path>
                            <path d="M22.5215985,4.00189104 L20.7991364,4.00189104 C20.5348232,4.00189104 20.3205543,4.20374117 20.3205543,4.45256486 L20.3205543,10.2948156 L15.8127766,4.22314329 C15.6850463,4.05090693 15.4944445,4.00189104 15.2827049,4.00189104 C15.2561471,3.99763619 15.2288667,4.00189104 15.2008636,4.00189104 L13.4784015,4.00189104 C13.2140883,4.00189104 13,4.20374117 13,4.45256486 L13,14.5493262 C13,14.7983201 13.2140883,15 13.4784015,15 L15.2008636,15 C15.4651768,15 15.6794457,14.7983201 15.6794457,14.5493262 L15.6794457,8.44752952 L20.3792705,14.7778968 C20.3960723,14.8005326 20.4148615,14.8212963 20.4343734,14.8406984 C20.5153114,14.9303906 20.6327438,14.9913201 20.765352,15 L20.85171,15 L22.5215985,15 C22.7859117,15 23,14.7983201 23,14.5493262 L23,4.45256486 C23,4.20374117 22.7859117,4.00189104 22.5215985,4.00189104" id="Fill-8" fill="#000000"></path>
                            <path d="M66.836418,20 L37.1637578,20 C36.5210541,20 36,19.4808334 36,18.840633 L36,1.15936698 C36,0.519166601 36.5210541,0 37.1637578,0 L66.836418,0 C67.4791217,0 68,0.519166601 68,1.15936698 L68,18.840633 C68,19.4808334 67.4791217,20 66.836418,20" id="Fill-10" fill="#08BF5B"></path>
                            <path d="M46,8 C46,7.43326458 45.431612,7 44.6578507,7 L43,7 L43,9 L44.6578507,9 C45.431612,9 46,8.56673542 46,8 M48,8.08574838 C48,9.79577225 46.531354,11.1714968 44.6372192,11.1714968 L43.1960535,11.1714968 L43.1960535,13.6972383 C43.1960535,13.8644732 43.0513727,14 42.8728421,14 L41.3233933,14 C41.1448627,14 41,13.8644732 41,13.6972383 L41,5.30293215 C41,5.13552676 41.1448627,5 41.3233933,5 L44.6372192,5 C46.531354,5 48,6.37572451 48,8.08574838" id="Fill-12" fill="#FFFFFF"></path>
                            <path d="M54,10.5 C54,9.57776329 53.3697493,9 52.5,9 C51.6302507,9 51,9.57776329 51,10.5 C51,11.4222367 51.6302507,12 52.5,12 C53.3697493,12 54,11.4222367 54,10.5 M56,7.34998242 L56,13.6500176 C56,13.7407212 55.9277159,13.814374 55.8386978,13.814374 L54.2096313,13.814374 C54.1206132,13.814374 54.0483291,13.7407212 54.0483291,13.6500176 L54.0483291,13.191226 C53.6189373,13.6950178 52.981319,14 52.1095968,14 C50.405141,14 49,12.4754407 49,10.5 C49,8.52455929 50.405141,7 52.1095968,7 C52.981319,7 53.6189373,7.30498217 54.0483291,7.80877404 L54.0483291,7.34998242 C54.0483291,7.25910301 54.1206132,7.18562604 54.2096313,7.18562604 L55.8386978,7.18562604 C55.9277159,7.18562604 56,7.25910301 56,7.34998242" id="Fill-14" fill="#FFFFFF"></path>
                            <path d="M61.9819427,7.16761934 L60.523894,10.8930613 L59.0163033,7.16489382 C58.9759979,7.06524208 58.8802725,7 58.7741349,7 L57.1572158,7 C57.0455361,7 56.9694597,7.11498278 57.0119483,7.21991521 L59.5273425,13.4398872 L58.6105621,15.7819586 C58.5697528,15.8865503 58.6456614,16 58.7565013,16 L60.3740922,16 C60.4814054,16 60.5778026,15.9337359 60.6174362,15.832551 L63.9888168,7.21821176 C64.029626,7.11362002 63.9537175,7 63.8427097,7 L62.2252867,7 C62.1179735,7 62.0215763,7.06643449 61.9819427,7.16761934" id="Fill-16" fill="#FFFFFF"></path>
                        </g>
                    </g>
                </g>
            </g>
        </g>
    </g>
</svg>