<svg width="24" height="24" xmlns="http://www.w3.org/2000/svg">
    <path d="M6.6 1C2.933 1.067 0 3.933 0 7.667c0 4.533 4.067 8.2 10.267 13.866l1.733 1.6 1.733-1.6C19.933 15.933 24 12.2 24 7.667c0-3.734-2.933-6.6-6.6-6.6A7.231 7.231 0 0 0 12 3.533C10.667 2 8.667 1 6.6 1m.009 1c1.714.003 3.446.821 4.636 2.19l.755.867.755-.867A6.236 6.236 0 0 1 17.4 2.067c3.14 0 5.6 2.459 5.6 5.6 0 4.149-4.168 7.914-9.945 13.132L12 21.772l-1.059-.977-.201-.184C4.875 15.251 1 11.71 1 7.667 1 4.549 3.463 2.062 6.609 2" fill="#999" fill-rule="evenodd"/>
</svg>
