<svg width="24" height="24" xmlns="http://www.w3.org/2000/svg">
    <path d="M12 20.877C6.84 15.8 1.917 11.438 1.917 7.675c0-3.475 2.812-4.758 4.84-4.758 1.203 0 3.806.459 5.243 4.085 1.457-3.637 4.092-4.076 5.249-4.076 2.328 0 4.834 1.486 4.834 4.75 0 3.729-4.708 7.905-10.083 13.2M17.249 2.01c-2.02 0-4.076.955-5.249 2.968C10.822 2.955 8.771 2 6.758 2 3.84 2 1 4.005 1 7.675c0 4.273 5.107 8.643 11 14.492 5.894-5.849 11-10.22 11-14.492 0-3.677-2.837-5.666-5.751-5.666" fill="#191919" fill-rule="evenodd"/>
</svg>
