<svg width="84" height="24" viewBox="0 0 84 24" xmlns="http://www.w3.org/2000/svg">
    <g fill="none" fill-rule="evenodd">
        <path d="M0 0h84v24H0z"/>
        <path d="M19.042 2A2.966 2.966 0 0 1 22 4.958v14.084A2.966 2.966 0 0 1 19.042 22H4.958A2.966 2.966 0 0 1 2 19.042V8.258L2.007 4.8A2.966 2.966 0 0 1 4.958 2h14.084z" fill="#FFF" fill-rule="nonzero"/>
        <path d="M59.256 6h-3.652a.6.6 0 0 0-.604.599V18h2.572v-4.078h1.684c2.489 0 4.744-1.54 4.744-4.147S61.745 6 59.256 6zM57 12V7s.732.003 1.554.003c1.164 0 2.446.867 2.446 2.354C61 10.843 59.715 12 58.554 12H57zm10.942-3c-2.003 0-3.032.465-3.032.465l.243.703s.756-.33 2.231-.33c1.644 0 1.977.755 1.977 1.788l-.023.462c-.352-.1-1.175-.228-2.017-.228-1.255 0-3.321.731-3.321 3.123C64 17.258 65.823 18 67.115 18c1.067 0 1.718-.312 2.242-.621v.468H72v-6.22C72.011 9.66 69.948 9 67.942 9zm-.14 8C66.753 17 66 16.172 66 14.945 66 13.718 67.01 13 67.926 13c.462 0 .903.136 1.074.293v3.14c-.294.278-.64.567-1.197.567zm10.052 1.974c-.728 1.695-1.924 1.913-2.46 1.98-.561.069-1.164.04-1.164.04v-1.385c1.067 0 1.646.09 2.276-1.227l.427-1.142L73 9h2.51l2.578 5.478L80.368 9H82c.003.004-3.418 8.283-4.146 9.974zM30.256 6h-3.652a.6.6 0 0 0-.604.599V18h2.572v-4.078h1.684c2.489 0 4.744-1.54 4.744-4.147C35.004 7.168 32.748 6 30.256 6zM29 12V7s.732.003 1.554.003c1.164 0 2.446.867 2.446 2.354C33 10.843 31.715 12 30.554 12H29zm9.942-3c-2.003 0-3.032.465-3.032.465l.243.703s.752-.33 2.231-.33c1.644 0 1.977.755 1.977 1.788l-.023.462c-.352-.1-1.175-.228-2.017-.228-1.25 0-3.321.731-3.321 3.123C35 17.258 36.823 18 38.115 18c1.067 0 1.714-.312 2.242-.621v.468H43v-6.22C43.007 9.66 40.945 9 38.942 9zm-.14 8C37.753 17 37 16.172 37 14.945 37 13.718 38.01 13 38.926 13c.462 0 .903.136 1.074.293v3.14c-.298.278-.643.567-1.197.567zm10.052 1.974c-.728 1.695-1.924 1.913-2.46 1.98-.561.069-1.164.04-1.164.04v-1.385c1.067 0 1.646.09 2.276-1.227l.427-1.142L44 9h2.51l2.578 5.478L51.368 9H53c.003.004-3.418 8.283-4.146 9.974z" fill="#3F3A39" fill-rule="nonzero"/>
        <path d="M5.734 22h-.897C3.277 22 2 20.664 2 19.03V8.207c2.545-.269 4.918-.262 7-.053L5.734 22zm12.22-9.927c.451-1.79-2.505-3.448-7.237-4.073L9 14.98c3.966.186 8.47-.982 8.955-2.907zM19.042 2H4.952A2.966 2.966 0 0 0 2 4.799c11.797-.332 17.535 3.769 16.635 7.86-.812 3.68-4.555 5.092-10.636 5.558L7.09 22H19.04A2.966 2.966 0 0 0 22 19.043V4.957A2.966 2.966 0 0 0 19.041 2z" fill="#F03" fill-rule="nonzero"/>
    </g>
</svg>
