<svg width="48" height="48" xmlns="http://www.w3.org/2000/svg">
    <g fill="none" fill-rule="evenodd">
        <path fill="none" d="M0 0h48v48H0z"/>
        <g transform="translate(1 3)" stroke-width="2">
            <path d="M9.537 18h-1.31c-.656-.2-1.056-1.057-1.2-2.57-.143-1.515.275-2.557 1.255-3.126 2.988-2.676 6.137-4.103 9.45-4.282 3.311-.179 5.956.74 7.933 2.756.994.655 2.21 1.164 3.649 1.526 2.157.542 4.694.777 4.65 3.125-.043 2.348.586 2.545-2.072 2.571" stroke="#666"/>
            <circle stroke="#666" cx="14" cy="18" r="2"/>
            <circle stroke="#666" cx="27" cy="18" r="2"/>
            <path stroke="#666" stroke-linecap="square" d="M20 18.5h1"/>
            <g transform="translate(25 23)" stroke="#0793EA">
                <circle cx="11" cy="11" r="10"/>
                <path stroke-linecap="square" d="m7 11.657 2.828 2.828 5.511-5.803"/>
            </g>
            <path d="M22 31H0V3.545C0 1.587 1.72 0 3.844 0h33.312C39.28 0 41 1.587 41 3.545V20" stroke="#666" stroke-linecap="square"/>
        </g>
    </g>
</svg>
