<svg width="48" height="48" viewBox="0 0 48 48" xmlns="http://www.w3.org/2000/svg">
    <g stroke-width="2" fill="none" fill-rule="evenodd">
        <path d="m27.702 37.908 4.142-4.142a5.124 5.124 0 0 1-.248-1.564A5.202 5.202 0 0 1 36.798 27c.446 0 .818.024 1.226.146.382.114.528.722.139 1.11-.388.389-2.108 2.13-2.108 2.13l.496 2.064 1.848.495s2.005-2.025 2.332-2.353c.443-.443.945-.306 1.08.27.116.498.189.802.189 1.34a5.201 5.201 0 0 1-5.202 5.202c-.546 0-1.07-.09-1.564-.247l-4.142 4.14a2.397 2.397 0 1 1-3.39-3.39z" stroke="#0793EA"/>
        <g stroke="#666" transform="translate(4 6)">
            <path d="M15.98 31H0V3.545C0 1.587 1.679 0 3.75 0h32.5C38.321 0 40 1.587 40 3.545v18.408"/>
            <path d="M11.067 14H10c-.534-.16-.86-.846-.976-2.057-.118-1.21.223-2.044 1.022-2.5 2.434-2.14 5-3.282 7.699-3.426 2.699-.143 4.854.592 6.465 2.205.81.525 1.8.931 2.972 1.22 1.758.435 3.826.623 3.79 2.501-.036 1.879.477 2.036-1.689 2.057"/>
            <circle cx="14.5" cy="14.5" r="1.5"/>
            <circle cx="25.5" cy="14.5" r="1.5"/>
            <path d="M18 14.5h4"/>
            <path stroke-linejoin="round" d="M9 21h10M9 25h9.986"/>
        </g>
    </g>
</svg>
