<?xml version="1.0" encoding="UTF-8"?>
<svg width="69px" height="36px" viewBox="0 0 69 36" version="1.1" xmlns="http://www.w3.org/2000/svg" xmlns:xlink="http://www.w3.org/1999/xlink">
    <title>592E92AF-50DA-4654-84C9-42095C087F7E</title>
    <g id="home-&gt;-common-0924_ic-upd" stroke="none" stroke-width="1" fill="none" fill-rule="evenodd">
        <g id="PC-JP-DS-FE-CO-Main_01basic-3header-1shop" transform="translate(-400.000000, -30.000000)">
            <g id="Icon-/-Navigation-/-Logo" transform="translate(400.000000, 30.000000)">
                <polygon id="Fill-349" points="0 36 69 36 69 0 0 0"></polygon>
                <g id="Logo" fill="#fff">
                    <path d="M22.5631523,4.33546366 C23.29842,4.19461847 23.7830492,4.19553902 23.9569238,4.3814915 C24.0595839,4.49840221 24.0901044,4.69171914 23.9550741,4.93290502 C23.8746109,5.06270353 23.7941476,5.17777313 23.6480189,5.35267892 C17.421828,12.6572971 12.681895,23.4305733 11.3334419,26.5429759 C11.2335565,26.7565451 11.1308964,26.9691937 11.0485835,27.1081978 C10.9265013,27.3272903 10.7581759,27.5104811 10.4594445,27.5279717 C10.2929688,27.5380978 10.0682266,27.4985138 9.72417682,27.290468 C5.592805,24.7552546 3.13636364,21.5940625 3.13636364,18.1668296 C3.13636364,11.9779262 11.1308964,6.65802846 22.5631523,4.33546366 M28.1867787,9.0213712 C28.7740258,7.69090659 29.7848307,4.84055836 32.1060753,3.70766956 C32.8107719,3.36508399 33.6763834,3.20104169 34.4550639,3.17929022 C34.628926,3.17294605 34.7537738,3.17929022 34.803713,3.17929022 C41.3031978,3.17929022 47.3504562,4.06022456 52.4183527,5.57557662 C52.4553447,5.58645235 52.5737189,5.6317679 52.6097861,5.64536257 C53.0768094,5.79762282 53.3181818,6.00788698 53.3181818,6.26981088 C53.3181818,6.49638864 53.193334,6.66768142 53.0268702,6.8299111 C52.9556607,6.89879074 52.8483841,6.98942184 52.7059651,7.10633597 C51.5379444,8.06521305 48.017236,10.5602873 41.3864297,13.0472048 C39.0577867,13.9208887 36.1502198,15.0039304 33.1048579,15.6356292 C31.3125981,16.0063104 24.6864158,16.9941894 28.1867787,9.0213712 M58.9975389,8.89130761 C59.1223998,8.67315336 59.2898058,8.49181839 59.5913215,8.47248827 C59.7568777,8.460522 59.983477,8.50102321 60.3238384,8.71089312 C64.459044,11.2440598 66.9090909,14.4049952 66.9090909,17.8310294 C66.9090909,24.0203508 58.9142984,29.3370552 47.4862956,31.6640339 C46.7519289,31.8067086 46.2645093,31.8030267 46.0971033,31.6189303 C45.9833412,31.50387 45.9528196,31.3059664 46.0971033,31.0629591 C46.1692451,30.9377736 46.2515607,30.8227133 46.4023186,30.6413783 C52.627787,23.3373531 57.3678739,12.5686335 58.715446,9.45832456 C58.8181093,9.24293176 58.9189229,9.03122088 58.9975389,8.89130761 M41.8587674,26.9744018 C41.2723566,28.3102118 40.2613992,31.1594562 37.9388795,32.2931728 C37.2377764,32.6321096 36.3683345,32.7988593 35.5895366,32.8215155 C35.4147233,32.8260468 35.2907816,32.8215155 35.2380601,32.8215155 C28.7375947,32.8215155 22.690349,31.9379235 17.6281625,30.4272077 C17.5846904,30.4154264 17.4681482,30.3692078 17.4320756,30.355614 C16.9659068,30.2042706 16.7272727,29.990396 16.7272727,29.7321153 C16.7272727,29.5001157 16.8475147,29.3306473 17.0158534,29.1702413 C17.0852238,29.099554 17.1943665,29.0116479 17.3340322,28.8920231 C18.5059288,27.9368375 22.0253185,25.4355923 28.658975,22.9497534 C30.9861194,22.0797551 33.8941249,20.9940697 36.943646,20.3642271 C38.7297016,19.9953841 45.3596584,19.002136 41.8587674,26.9744018 M34.5,36 C53.5548901,36 69,27.9421316 69,17.9976914 C69,8.05786841 53.5548901,0 34.5,0 C15.4460162,0 0,8.05786841 0,17.9976914 C0,27.9421316 15.4460162,36 34.5,36" id="logo"></path>
                </g>
            </g>
        </g>
    </g>
</svg>