<svg width="53" height="50" viewBox="0 0 53 50" xmlns="http://www.w3.org/2000/svg">
    <g stroke-width="2" fill="none" fill-rule="evenodd">
        <path d="M31.363 27.03H45.75c2.85 0 5.163 2.522 5.163 5.635 0 3.11-2.313 5.631-5.163 5.631H34.11" stroke="#666"/>
        <path d="M47.893 27.582s-1.277-6.487-1.74-9.098c-.049-.28-.369-.877-1.161-1.035-6.472-1.292-11.713-1.645-17.406-1.096M47.196 23.93l2.84-.187a1.846 1.846 0 1 1 .24 3.684l-2.298.152M41.979 38.296v4.015c0 .476.388.863.864.863h4.889c.479 0 .863-.387.863-.863v-4.949" stroke="#666"/>
        <path stroke="#666" stroke-linecap="round" d="M45.031 32.876h.152"/>
        <path d="M25.59 39.325 11.439 37.07c-2.126-.34-3.909 1.145-4.295 2.833-.358 1.562.593 3.106 2.04 3.088.86-.01 1.936-.432 2.868-.43.743 0 1.54.161 2.553.578a353.172 353.172 0 0 0 11.65 4.545c2.527 1.164 6.098.205 5.883-3.263-.202-3.26-.667-8.868-.802-10.197-.651-6.352-4.792-8.539-9.323-8.539l-5.067 3.868-5.136-3.91c-4.74 0-8.736 2.417-9.31 8.707-.174 1.916-.821 7.94-.874 10.07-.16 1.92 1.439 4.076 4.11 3.67l12.287-3.565" stroke="#666" stroke-linejoin="round"/>
        <path d="M25.567 39.334c0-1.091 0-2.347-.95-3.256-1.232-1.174-2.806-.487-5.675.494l-3.375 1.155" stroke="#666" stroke-linecap="round" stroke-linejoin="round"/>
        <path d="M24.456 13.965a7.695 7.695 0 0 1-7.563 9.125 7.697 7.697 0 0 1-7.58-9.048" stroke="#666" stroke-linejoin="round"/>
        <path d="M25.02 14.238c.207.106.392.156.547.156.327 0 .5-.233.39-.706-.178-.768-.501-1.726-.67-2.475l-.59-5.645c0-.917-.77-1.478-1.678-1.662-1.027-.204-2.983-.72-4.405-1.104-.162-.501-.838-.879-1.652-.879-.806 0-1.476.37-1.646.864-1.403.387-3.371.913-4.41 1.12-.91.183-1.68.744-1.68 1.66l-.611 5.741c-.24.69-.421 1.557-.648 2.374-.106.379.03.7.42.7.143 0 .316-.044.516-.144 3.026-1.483 5.427-2.235 8.08-2.236 2.64 0 5.087.771 8.037 2.236z" stroke="#0793EA" stroke-linejoin="round"/>
        <path d="M8.585 11.443c2.65-1.467 5.848-2.378 8.341-2.378 2.439 0 5.435.844 8.432 2.378" stroke="#0793EA" stroke-linejoin="round"/>
        <path stroke="#666" stroke-linejoin="round" d="M16.946 29.552v5.125"/>
    </g>
</svg>
