<?xml version="1.0" encoding="UTF-8"?>
<svg width="64px" height="64px" viewBox="0 0 64 64" version="1.1" xmlns="http://www.w3.org/2000/svg" xmlns:xlink="http://www.w3.org/1999/xlink">
    <title>1673D181-6C76-4CA6-AF25-47AD75497B05</title>
    <g id="03_Template" stroke="none" stroke-width="1" fill="none" fill-rule="evenodd">
        <g id="[PC]-Result-Message_2" transform="translate(-1070.000000, -164.000000)">
            <g id="Group" transform="translate(851.500000, 164.000000)">
                <g id="ic_satisfaction" transform="translate(218.500000, 0.000000)">
                    <rect id="Rectangle" stroke="#979797" fill="#D8D8D8" opacity="0" x="0.5" y="0.5" width="63" height="63"></rect>
                    <path d="M45.9847467,15 C55.5407401,15 63.2871282,22.61101 63.2871282,32 C63.2871282,41.38899 55.5407401,49 45.9847467,49 C41.8543578,49 37.9527661,47.5702866 34.8744426,45.0331626 C35.3468701,44.4972234 35.789676,43.9354986 36.2015617,43.3512527 C38.9044134,45.6055169 42.3409914,46.875 45.9847467,46.875 C54.3462599,46.875 61.1243305,40.215385 61.1243305,32 C61.1243305,23.784615 54.3462599,17.125 45.9847467,17.125 C42.3408945,17.125 38.9041816,18.3945569 36.2008462,20.6475762 C35.7899309,20.0648629 35.347418,19.5034717 34.8763348,18.9668379 C37.9528329,16.4296743 41.8544251,15 45.9847467,15 Z" id="Combined-Shape" fill="#666666" fill-rule="nonzero"></path>
                    <path d="M18,16 C26.8367059,16 34,23.1632941 34,32 C34,40.8367059 26.8367059,48 18,48 C9.16329412,48 2,40.8367059 2,32 C2,23.1632941 9.16329412,16 18,16 Z" id="Stroke-13" stroke="#666666" stroke-width="2"></path>
                    <path d="M13.5,27 C14.328,27 15,27.672 15,28.5 C15,29.328 14.328,30 13.5,30 C12.672,30 12,29.328 12,28.5 C12,27.672 12.672,27 13.5,27" id="Fill-17" fill="#666666"></path>
                    <path d="M42.5,27 C43.328,27 44,27.672 44,28.5 C44,29.328 43.328,30 42.5,30 C41.672,30 41,29.328 41,28.5 C41,27.672 41.672,27 42.5,27" id="Fill-17-Copy-2" fill="#666666"></path>
                    <path d="M23.5,27 C24.328,27 25,27.672 25,28.5 C25,29.328 24.328,30 23.5,30 C22.672,30 22,29.328 22,28.5 C22,27.672 22.672,27 23.5,27" id="Fill-17-Copy" fill="#666666"></path>
                    <path d="M52.5,27 C53.328,27 54,27.672 54,28.5 C54,29.328 53.328,30 52.5,30 C51.672,30 51,29.328 51,28.5 C51,27.672 51.672,27 52.5,27" id="Fill-17-Copy-3" fill="#666666"></path>
                    <path d="M12,36 C13.8165333,39.3928758 16.1088667,40.0183539 18.3873333,39.9995967 C20.6649333,39.981561 22.7466667,39.5927114 25,36" id="Path" stroke="#0793EA" stroke-width="2" stroke-linecap="square"></path>
                    <path d="M41,35 C42.8165333,38.3928758 45.1088667,39.0183539 47.3873333,38.9995967 C49.6649333,38.981561 51.7466667,38.5927114 54,35" id="Path-Copy" stroke="#0793EA" stroke-width="2" stroke-linecap="square" transform="translate(47.500000, 37.000000) scale(1, -1) translate(-47.500000, -37.000000) "></path>
                </g>
            </g>
        </g>
    </g>
</svg>