<?xml version="1.0" encoding="UTF-8"?>
<svg width="16px" height="16px" viewBox="0 0 16 16" version="1.1" xmlns="http://www.w3.org/2000/svg" xmlns:xlink="http://www.w3.org/1999/xlink">
    <title>584C04B3-04B1-4F83-BC90-896104723CB2</title>
    <g id="❇️-icon" stroke="none" stroke-width="1" fill="none" fill-rule="evenodd">
        <g id="[PC/MO]Icon" transform="translate(-1069.000000, -615.000000)">
            <g id="common-/-content-/-ic_phone" transform="translate(1069.000000, 615.000000)">
                <rect id="Rectangle" x="0" y="0" width="16" height="16"></rect>
                <g id="Group-2" transform="translate(1.000000, 1.000000)" fill="#0793EA">
                    <path d="M10.8726698,13.9232615 C9.7634619,14.1386413 8.5121031,13.8888008 7.263975,13.3223521 C4.58679945,12.1065335 1.89347038,9.41320985 0.677649307,6.73603972 C0.111199452,5.48791415 -0.138641548,4.23763478 0.0767386245,3.12842914 C0.301810905,1.97507065 1.70393583,0.350030535 3.00052447,0.0129612472 C3.33759444,-0.0753444448 3.72958636,0.296185601 4.08065604,0.864788105 C4.50280118,1.54754187 5.01002149,2.69982346 5.12201918,3.46011393 C5.18017182,3.85856644 5.11340397,4.16009807 4.87110127,4.28286452 C4.60510676,4.43147654 4.32942014,4.56178128 4.04511831,4.67270185 C3.67574131,4.82454456 3.38820878,4.94408032 3.27621109,5.17884423 C3.26974969,5.19176701 3.30528742,5.27899581 3.37313217,5.42222333 C4.00527298,6.7521932 7.12613169,9.97427406 8.49056508,10.623644 C8.66286922,10.7044114 8.78132831,10.7431797 8.82117365,10.7237955 C9.05593804,10.6117981 9.17439713,10.3242661 9.32731705,9.95488989 C9.42962264,9.70720319 9.54377413,9.42720953 9.71607827,9.1289086 C10.022995,8.56245989 11.2528158,9.03198771 11.8214195,9.26352093 C12.2812561,9.4498244 12.7550925,9.68351142 13.1352385,9.92042913 C13.7027653,10.2704212 14.075373,10.6634892 13.9870671,10.9994816 C13.6489202,12.2960676 12.0249537,13.6981897 10.8726698,13.9232615" id="Fill-1"></path>
                </g>
            </g>
        </g>
    </g>
</svg>