<?xml version="1.0" encoding="UTF-8"?>
<svg width="16px" height="16px" viewBox="0 0 16 16" version="1.1" xmlns="http://www.w3.org/2000/svg" xmlns:xlink="http://www.w3.org/1999/xlink">
    <title>21435CC5-F381-4D3B-A2C2-764034B84D20</title>
    <g id="❇️-icon" stroke="none" stroke-width="1" fill="none" fill-rule="evenodd">
        <g id="[PC/MO]Icon" transform="translate(-981.000000, -615.000000)">
            <g id="common-/-content-/-ic_fax" transform="translate(981.000000, 615.000000)">
                <rect id="Rectangle" x="0" y="0" width="16" height="16"></rect>
                <polyline id="Path" stroke="#0793EA" stroke-linecap="round" points="3.5378418 4.50537109 3.5378418 1.50537109 12.4978418 1.50537109 12.4978418 4.50537109"></polyline>
                <polygon id="Rectangle" stroke="#0793EA" stroke-linecap="round" points="3.5378418 9.73034668 12.5 9.73034668 12.5 14.5115967 3.5378418 14.5115967"></polygon>
                <path d="M3.80083797,11.75 L1.52856445,11.75 L1.52856445,5.63037109 C1.52856445,5.00905047 2.07179245,4.50537109 2.74189755,4.50537109 L13.3019257,4.50537109 C13.9720308,4.50537109 14.5152588,5.00905047 14.5152588,5.63037109 L14.5152588,11.75 L12.760838,11.75" id="Path" stroke="#0793EA"></path>
                <circle id="Oval" fill="#FFFFFF" fill-rule="nonzero" cx="12.5" cy="7.5" r="1"></circle>
                <path d="M1.52856445,11.75 L1.52856445,5.50537109 C1.52856445,4.95308634 1.9762797,4.50537109 2.52856445,4.50537109 L13.5152588,4.50537109 C14.0675435,4.50537109 14.5152588,4.95308634 14.5152588,5.50537109 L14.5152588,11.75 L14.5152588,11.75 L12.760838,11.75 L12.760838,10 L3.5378418,10 L3.5378418,11.75 L1.52856445,11.75 Z" id="Path-14" stroke="#0793EA" fill="#0793EA"></path>
                <circle id="Oval" fill="#FFFFFF" cx="12.5" cy="7.5" r="1"></circle>
            </g>
        </g>
    </g>
</svg>