<?xml version="1.0" encoding="UTF-8"?>
<svg width="24px" height="24px" viewBox="0 0 24 24" version="1.1" xmlns="http://www.w3.org/2000/svg" xmlns:xlink="http://www.w3.org/1999/xlink">
    <title>720DD7AC-041A-4255-A4E7-53C287C1748E</title>
    <g id="❇️-icon" stroke="none" stroke-width="1" fill="none" fill-rule="evenodd">
        <g id="[PC/MO]Icon" transform="translate(-264.000000, -2496.000000)">
            <g id="pictogram-/-mymain-/-ic_ask" transform="translate(264.000000, 2496.000000)">
                <rect id="Rectangle" x="0" y="0" width="24" height="24"></rect>
                <path d="M18,9 L18,8.03623188 C18,4.70251307 15.3137085,2 12,2 C8.6862915,2 6,4.70251307 6,8.03623188 L6,9" id="Path" stroke="#666666"></path>
                <path d="M15.1070234,21.4818115 C16.5200596,21.4818115 17.9904785,20.3363193 17.9904785,18.9232831 L17.9904785,18.5721125 L17.9904785,18" id="Path" stroke="#666666"></path>
                <path d="M4.5,8.52173913 L6,8.52173913 L6,8.52173913 L6,15.5217391 L4.5,15.5217391 C3.3954305,15.5217391 2.5,14.6263086 2.5,13.5217391 L2.5,10.5217391 C2.5,9.41716963 3.3954305,8.52173913 4.5,8.52173913 Z" id="Rectangle" stroke="#0793EA"></path>
                <path d="M20,8.52173913 L21.5,8.52173913 L21.5,8.52173913 L21.5,12.6666014 L21.5,15.5217391 L20,15.5217391 C18.8954305,15.5217391 18,14.6263086 18,13.5217391 L18,10.5217391 C18,9.41716963 18.8954305,8.52173913 20,8.52173913 Z" id="Rectangle" stroke="#0793EA" transform="translate(19.750000, 12.021739) rotate(-180.000000) translate(-19.750000, -12.021739) "></path>
                <path d="M11.2008057,20.1792462 L14.3178625,20.1792462 C14.8701473,20.1792462 15.3178625,20.6269614 15.3178625,21.1792462 L15.3178625,21.4869385 C15.3178625,22.0392232 14.8701473,22.4869385 14.3178625,22.4869385 L11.2008057,22.4869385 C10.6485209,22.4869385 10.2008057,22.0392232 10.2008057,21.4869385 L10.2008057,21.1792462 C10.2008057,20.6269614 10.6485209,20.1792462 11.2008057,20.1792462 Z" id="Rectangle" stroke="#666666"></path>
            </g>
        </g>
    </g>
</svg>