<?xml version="1.0" encoding="UTF-8"?>
<svg width="24px" height="24px" viewBox="0 0 24 24" version="1.1" xmlns="http://www.w3.org/2000/svg" xmlns:xlink="http://www.w3.org/1999/xlink">
    <title>B5F1949A-CD18-4F7A-803C-898A053B336D</title>
    <g id="❇️-icon" stroke="none" stroke-width="1" fill="none" fill-rule="evenodd">
        <g id="[PC/MO]Icon" transform="translate(-480.000000, -2496.000000)">
            <g id="pictogram-/-mymain-/-ic_services" transform="translate(480.000000, 2496.000000)">
                <rect id="Rectangle" x="0" y="0" width="24" height="24"></rect>
                <g id="Group-2" transform="translate(2.309665, 1.500000)">
                    <path d="M9.47458763,15.0732357 C9.48605868,15.2944783 9.48123974,15.5169956 9.46017149,15.7389085 L10.2197493,17.0672632 C9.97092044,17.820289 9.56950767,18.5166623 9.04258648,19.1094125 L7.51156063,19.1157766 C7.32972526,19.2446938 7.13926357,19.3598259 6.94178393,19.4602008 L6.17008293,20.8477191 C5.41780004,21.0308117 4.6427387,21.047975 3.8971773,20.8980513 L3.18238279,19.5415898 C2.98907711,19.4492628 2.80343533,19.341876 2.62702518,19.2203361 L1.09574507,19.279505 C0.592290248,18.7095716 0.218640947,18.0303611 0,17.2876867 L0.816229582,15.9248601 C0.804758787,15.7036168 0.809578328,15.4810988 0.830647506,15.2591853 L0.0710726401,13.9308347 C0.319901622,13.177809 0.721314541,12.4814357 1.24823586,11.8886856 L2.77925906,11.88232 C2.96109439,11.7534031 3.15155599,11.6382711 3.34903549,11.5378963 L4.12073595,10.1503789 C4.87301903,9.96728594 5.6480806,9.95012218 6.39364239,10.1000454 L7.10843707,11.4565075 C7.30174314,11.5488337 7.48738537,11.6562198 7.66379602,11.7777589 L9.19507516,11.7185907 C9.69853045,12.2885237 10.0721798,12.9677343 10.2908202,13.710409 L9.47458763,15.0732357 Z" id="Path" stroke="#0793EA" stroke-linecap="round" stroke-linejoin="round"></path>
                    <path d="M4.64549453,16.3649298 C5.12370731,16.6410261 5.73519561,16.4771783 6.01129188,15.9989655 C6.28738815,15.5207528 6.12354036,14.9092645 5.64532758,14.6331682 C5.16711481,14.3570719 4.55562651,14.5209197 4.27953024,14.9991325 C4.00343396,15.4773453 4.16728176,16.0888336 4.64549453,16.3649298 Z" id="Oval" stroke="#0793EA" stroke-linecap="round" stroke-linejoin="round"></path>
                    <path d="M2.2164582,8.50378418 L2.2164582,3.10869565 C2.2164582,2.60307192 2.2164582,1.56684004 2.2164582,0 C3.26487582,0 4.0368699,0 4.53244041,0 L16.8482299,0 C16.962265,0 17.0763001,0 17.1903351,0 C18.2949046,-2.02906125e-16 19.1903351,0.8954305 19.1903351,2 C19.1903351,2.36956522 19.1903351,2.73913043 19.1903351,3.10869565 L19.1903351,19 C19.1903351,20.1045695 18.2949046,21 17.1903351,21 L11.6897248,21 L11.6897248,21" id="Path" stroke="#666666"></path>
                </g>
                <line x1="9" y1="5.52160645" x2="17" y2="5.49923514" id="Path-45" stroke="#666666"></line>
                <line x1="9" y1="8.5" x2="17" y2="8.49923514" id="Path-45-Copy" stroke="#666666"></line>
            </g>
        </g>
    </g>
</svg>