<svg width="80" height="80" viewBox="0 0 80 80" xmlns="http://www.w3.org/2000/svg">
    <g fill="none" fill-rule="evenodd">
        <path d="M0 0h80v80H0z"/>
        <path d="M25.5 4C37.374 4 47 13.626 47 25.5S37.374 47 25.5 47 4 37.374 4 25.5 13.626 4 25.5 4zM51.961 33.15c.832-.1 1.68-.15 2.539-.15C66.374 33 76 42.626 76 54.5S66.374 76 54.5 76 33 66.374 33 54.5c0-.86.05-1.707.149-2.54" stroke="#666" stroke-width="3"/>
        <path d="M17 29c2.236 5.09 5.057 6.028 7.861 6 2.804-.028 5.366-.61 8.139-6" stroke="#0793EA" stroke-width="3" stroke-linecap="square"/>
        <path d="M49 47a2 2 0 1 1-.001 4.001A2 2 0 0 1 49 47M20 19a2 2 0 1 1-.001 4.001A2 2 0 0 1 20 19M60 47a2 2 0 1 1-.001 4.001A2 2 0 0 1 60 47M31 19a2 2 0 1 1-.001 4.001A2 2 0 0 1 31 19" fill="#666"/>
        <path d="M47 62c2.236-5.09 5.057-6.028 7.861-6 2.804.028 5.366.61 8.139 6" stroke="#0793EA" stroke-width="3" stroke-linecap="square"/>
    </g>
</svg>
