<?xml version="1.0" encoding="UTF-8"?>
<svg width="48px" height="48px" viewBox="0 0 48 48" version="1.1" xmlns="http://www.w3.org/2000/svg" xmlns:xlink="http://www.w3.org/1999/xlink">
    <title>CD35DF28-4A70-4F77-81FB-AC63C6E9E1F7</title>
    <g id="❇️-icon" stroke="none" stroke-width="1" fill="none" fill-rule="evenodd">
        <g id="[PC/MO]Icon_U" transform="translate(-353.000000, -497.000000)">
            <g id="common-/-gnb-/-ic_shopping" transform="translate(353.000000, 497.000000)">
                <rect id="Rectangle" x="0" y="0" width="48" height="48"></rect>
                <path d="M28,17 L28,16 C28,13.790861 26.209139,12 24,12 C21.790861,12 20,13.790861 20,16 L20,17" id="Path" stroke="#191919"></path>
                <path d="M33.5,19.5 L33.5,33 C33.5,33.4142136 33.3321068,33.7892136 33.0606602,34.0606602 C32.7892136,34.3321068 32.4142136,34.5 32,34.5 L32,34.5 L16,34.5 C15.5857864,34.5 15.2107864,34.3321068 14.9393398,34.0606602 C14.6678932,33.7892136 14.5,33.4142136 14.5,33 L14.5,33 L14.5,19.5 L33.5,19.5 Z" id="Rectangle" stroke="#191919"></path>
            </g>
        </g>
    </g>
</svg>