<svg width="72" height="24" viewBox="0 0 72 24" xmlns="http://www.w3.org/2000/svg" xmlns:xlink="http://www.w3.org/1999/xlink">
    <defs>
        <path id="a" d="M0 0h7v11H0z"/>
    </defs>
    <g fill="none" fill-rule="evenodd">
        <path d="M0 0h72v24H0z"/>
        <path d="M13.464 6h-1.928c-.296 0-.536.202-.536.45v10.1c0 .248.24.45.536.45h1.928c.296 0 .536-.202.536-.45V6.45c0-.248-.24-.45-.536-.45" fill="#000"/>
        <g transform="translate(2 6)">
            <mask id="b" fill="#fff">
                <use xlink:href="#a"/>
            </mask>
            <path d="M6.57 8.475H2.406V.451A.44.44 0 0 0 1.975 0H.43A.44.44 0 0 0 0 .45v10.1c0 .248.192.45.43.45h6.14a.44.44 0 0 0 .43-.45V8.925a.44.44 0 0 0-.43-.45" fill="#000" mask="url(#b)"/>
        </g>
        <path d="M33.57 8.525a.44.44 0 0 0 .43-.451V6.45A.44.44 0 0 0 33.57 6h-6.14a.44.44 0 0 0-.43.45v10.1c0 .248.192.45.43.45h6.14a.44.44 0 0 0 .43-.45v-1.624a.44.44 0 0 0-.43-.45h-4.165v-1.714h4.166a.44.44 0 0 0 .429-.45v-1.624a.44.44 0 0 0-.43-.45h-4.165V8.525h4.166zM24.522 6.002h-1.723c-.264 0-.478.202-.478.45v5.843l-4.508-6.072c-.128-.172-.319-.221-.53-.221-.027-.004-.054 0-.082 0h-1.723c-.264 0-.478.202-.478.45V16.55c0 .25.214.451.478.451h1.723c.264 0 .478-.202.478-.45v-6.102l4.7 6.33a.559.559 0 0 0 .055.063c.081.09.199.15.331.159h1.757c.264 0 .478-.202.478-.45V6.452c0-.25-.214-.451-.478-.451" fill="#000"/>
        <path d="M68.836 22H39.164C38.52 22 38 21.48 38 20.84V3.16c0-.64.521-1.16 1.164-1.16h29.672C69.48 2 70 2.52 70 3.16v17.68c0 .64-.52 1.16-1.164 1.16" fill="#08BF5B"/>
        <path d="M48 10c0-.567-.568-1-1.342-1H45v2h1.658c.774 0 1.342-.433 1.342-1m2 .086c0 1.71-1.469 3.085-3.363 3.085h-1.44v2.526c0 .167-.146.303-.324.303h-1.55c-.178 0-.323-.136-.323-.303V7.303c0-.167.145-.303.323-.303h3.314C48.531 7 50 8.376 50 10.086M56 12.5c0-.922-.63-1.5-1.5-1.5s-1.5.578-1.5 1.5.63 1.5 1.5 1.5 1.5-.578 1.5-1.5m2-3.15v6.3c0 .09-.072.164-.161.164h-1.63a.163.163 0 0 1-.16-.164v-.459c-.43.504-1.068.809-1.94.809C52.406 16 51 14.475 51 12.5S52.405 9 54.11 9c.871 0 1.509.305 1.938.809V9.35c0-.09.073-.164.162-.164h1.629c.089 0 .161.073.161.164M63.982 9.168l-1.458 3.725-1.508-3.728A.262.262 0 0 0 60.774 9h-1.617a.16.16 0 0 0-.145.22l2.515 6.22-.916 2.342a.16.16 0 0 0 .146.218h1.617a.262.262 0 0 0 .243-.167l3.372-8.615A.16.16 0 0 0 65.843 9h-1.618a.262.262 0 0 0-.243.168" fill="#FFF"/>
    </g>
</svg>
