<?xml version="1.0" encoding="UTF-8"?>
<svg width="80px" height="20px" viewBox="0 0 80 20" version="1.1" xmlns="http://www.w3.org/2000/svg" xmlns:xlink="http://www.w3.org/1999/xlink">
    <title>ic / paypay</title>
    <g id="MO-/-상세견적" stroke="none" stroke-width="1" fill="none" fill-rule="evenodd">
        <g id="MO-SC-FE-CP-100-상세견적-All-0924" transform="translate(-222.000000, -5619.000000)" fill-rule="nonzero">
            <g id="Group-33" transform="translate(0.000000, 5417.000000)">
                <g id="Group-24" transform="translate(20.000000, 86.000000)">
                    <g id="Group-16-Copy-3" transform="translate(164.000000, 96.000000)">
                        <g id="ic-/-paypay" transform="translate(38.000000, 20.000000)">
                            <path d="M17.0420049,0 C18.6692552,0 20,1.33074479 20,2.95799506 L20,17.0420049 C20,18.6692552 18.6692552,20 17.0420049,20 L2.95799506,20 C1.33074479,20 0,18.6692552 0,17.0420049 L0,6.25838334 L0.00705965408,2.79915284 C0.091775503,1.24602894 1.3836922,0 2.95799506,0 L17.0420049,0 Z" id="Path" fill="#FFFFFF"></path>
                            <path d="M57.2562652,4 L53.6038804,4 C53.2691997,4 53,4.26682692 53,4.59855769 L53,16 L55.5719483,16 L55.5719483,11.921875 L57.2562652,11.921875 C59.7445432,11.921875 62,10.3822115 62,7.77524038 C62,5.16826923 59.7445432,4 57.2562652,4 Z M55,10 L55,5 C55,5 55.7315436,5.00329598 56.5536913,5.00329598 C57.7181208,5.00329598 59,5.87013843 59,7.35662492 C59,8.8431114 57.7147651,10 56.5536913,10 L55,10 Z M65.9419522,7 C63.939156,7 62.9096813,7.46490536 62.9096813,7.46490536 L63.1530117,8.16758675 C63.1530117,8.16758675 63.9092076,7.83753943 65.3841641,7.83753943 C67.0275801,7.83753943 67.3607556,8.59345426 67.3607556,9.62618297 L67.3382943,10.0875394 C66.9864011,9.98817035 66.1628214,9.86041009 65.3205239,9.86041009 C64.0664365,9.86041009 62,10.5914826 62,12.9834385 C62,15.2582808 63.8231061,16 65.1146289,16 C66.1815391,16 66.8329158,15.6876972 67.357012,15.3789432 L67.357012,15.8473975 L70,15.8473975 L70,9.62618297 C70.011185,7.66009464 67.948492,7 65.9419522,7 L65.9419522,7 Z M65.8027366,15 C64.7525656,15 64,14.1721612 64,12.9450549 C64,11.7179487 65.009122,11 65.9258837,11 C66.3876853,11 66.8289624,11.1355311 67,11.2930403 L67,14.4322344 C66.7058153,14.7106227 66.3603193,15 65.8027366,15 L65.8027366,15 Z M75.8539693,16.9742115 C75.1257045,18.6692921 73.9299954,18.8869762 73.3948055,18.9547794 C72.8325174,19.0225826 72.2295819,18.9940339 72.2295819,18.9940339 L72.2295819,17.6094206 C73.2965744,17.6094206 73.875799,17.6986354 74.5058327,16.3818254 L74.9326297,15.2398763 L71,7 L73.509973,7 L76.0876915,12.477787 L78.3673295,7 L80,7 C80.0033848,7.00356859 76.582234,15.2826994 75.8539693,16.9742115 L75.8539693,16.9742115 Z M28.2562631,4 L24.6038801,4 C24.2691995,4 24,4.26682692 24,4.59855769 L24,16 L26.571947,16 L26.571947,11.921875 L28.2562631,11.921875 C30.74454,11.921875 33,10.3822115 33,7.77524038 C33.0036334,5.16826923 30.7481778,4 28.2562631,4 Z M27,10 L27,5 C27,5 27.7315436,5.00329598 28.5536913,5.00329598 C29.7181208,5.00329598 31,5.87013843 31,7.35662492 C31,8.8431114 29.7147651,10 28.5536913,10 L27,10 Z M36.9419647,7 C34.9391621,7 33.9096842,7.46490536 33.9096842,7.46490536 L34.1530153,8.16758675 C34.1530153,8.16758675 34.9054701,7.83753943 36.3841748,7.83753943 C38.027596,7.83753943 38.3607725,8.59345426 38.3607725,9.62618297 L38.3383112,10.0875394 C37.9864169,9.98817035 37.1628345,9.86041009 36.3205344,9.86041009 C35.0701866,9.86041009 33,10.5914826 33,12.9834385 C33,15.2582808 34.8231119,16 36.1146388,16 C37.1815523,16 37.8291875,15.6876972 38.357029,15.3789432 L38.357029,15.8473975 L41,15.8473975 L41,9.62618297 C41.0074668,7.66009464 38.9447673,7 36.9419647,7 L36.9419647,7 Z M36.8027366,15 C35.7525656,15 35,14.1721612 35,12.9450549 C35,11.7179487 36.009122,11 36.9258837,11 C37.3876853,11 37.8289624,11.1355311 38,11.2930403 L38,14.4322344 C37.7023945,14.7106227 37.3568985,15 36.8027366,15 Z M46.8539693,16.9742115 C46.1257045,18.6692921 44.9299954,18.8869762 44.3948055,18.9547794 C43.8325174,19.0225826 43.2295819,18.9940339 43.2295819,18.9940339 L43.2295819,17.6094206 C44.2965744,17.6094206 44.875799,17.6986354 45.5058327,16.3818254 L45.9326297,15.2398763 L42,7 L44.509973,7 L47.0876915,12.477787 L49.3673295,7 L51,7 C51.0033848,7.00356859 47.582234,15.2826994 46.8539693,16.9742115 L46.8539693,16.9742115 Z" id="Shape" fill="#3F3A39"></path>
                            <path d="M3.73355899,20 L2.83655706,20 C1.27611219,20 1.77635684e-15,18.6642177 1.77635684e-15,17.0308075 L1.77635684e-15,6.20636474 C2.54545455,5.93708237 4.91827853,5.94416875 7,6.15321691 L3.73355899,20 Z M15.9548523,10.0726725 C16.4053044,8.28281399 13.4485774,6.62529253 8.71713695,6 L7,12.980779 C10.9660106,13.1660509 15.4705316,11.9981765 15.9548523,10.0726725 L15.9548523,10.0726725 Z M17.0409605,0 L2.9519774,0 C1.37711864,0 0.0847457627,1.24580907 0,2.7986589 C11.7973164,2.46691371 17.5353107,6.56784895 16.634887,10.6581966 C15.8227401,14.3391565 12.0798023,15.7508382 5.99929379,16.2166931 L5.08827684,20 L17.0409605,20 C18.6687853,20 20,18.66949 20,17.0425269 L20,2.95747309 C20,1.33050997 18.6687853,0 17.0409605,0 Z" id="Shape" fill="#FF0033"></path>
                        </g>
                    </g>
                </g>
            </g>
        </g>
    </g>
</svg>