<?xml version="1.0" encoding="UTF-8"?>
<svg width="16px" height="16px" viewBox="0 0 16 16" version="1.1" xmlns="http://www.w3.org/2000/svg" xmlns:xlink="http://www.w3.org/1999/xlink">
    <title>FADD22B0-7C02-4B06-922F-6F0034769BCB</title>
    <g id="❇️-icon" stroke="none" stroke-width="1" fill="none" fill-rule="evenodd">
        <g id="[PC/MO]Icon" transform="translate(-248.000000, -2665.000000)">
            <g id="common-/-shop-/-ic_cart" transform="translate(248.000000, 2665.000000)">
                <rect id="Rectangle" x="0" y="0" width="16" height="16"></rect>
                <g id="Group-3-Copy" transform="translate(2.000000, 2.000000)" fill="#191919">
                    <g id="Group">
                        <ellipse id="Oval" cx="4.60749064" cy="10.7586207" rx="1.25658836" ry="1.24137931"></ellipse>
                        <ellipse id="Oval-Copy" cx="9.63384407" cy="10.7586207" rx="1.25658836" ry="1.24137931"></ellipse>
                        <path d="M1.9006597,0 C2.07638105,0 2.23046601,0.107807446 2.29165413,0.265275045 L2.31198229,0.33563205 L2.52406715,1.43006897 L10.8828259,1.43042419 C10.9182611,1.43042419 10.953656,1.43209002 10.9888913,1.4354104 L11.0939981,1.45032397 C11.6618972,1.55833857 12.0458946,2.07355597 11.9955781,2.63062513 L11.9796497,2.74248873 L11.075647,7.38103005 C10.9811627,7.86583947 10.5740381,8.22516942 10.0848266,8.27092537 L9.97882312,8.27586207 L3.35090229,8.27586207 C3.17518094,8.27586207 3.02109598,8.16805462 2.95990786,8.01058702 L2.9395797,7.94023002 L1.55398093,0.827586207 L0,0.827586207 L0,0 L1.9006597,0 Z M3.69604522,7.44827586 L9.97882312,7.44827586 C10.0935644,7.44827586 10.1944699,7.37932606 10.236896,7.2778486 L10.2530291,7.22456786 L11.1570318,2.58602653 C11.1861886,2.4364197 11.0870587,2.29178924 10.9356189,2.26298534 L10.9093422,2.25925695 L2.68574818,2.25765517 L3.69604522,7.44827586 Z" id="Path-12" fill-rule="nonzero"></path>
                    </g>
                    <g id="Group-2" transform="translate(2.412354, 1.733276)">
                        <path d="M1.27372746,5.82227919 L0,0 L8.21716188,0 C8.58535171,-6.76353751e-17 8.88382855,0.298476833 8.88382855,0.666666667 C8.88382855,0.702469624 8.88094439,0.738214402 8.87520405,0.773554185 L8.14605279,5.26250004 C8.0936353,5.58520299 7.81494301,5.82227919 7.48801062,5.82227919 L1.27372746,5.82227919 L1.27372746,5.82227919 Z" id="Path-15"></path>
                    </g>
                </g>
            </g>
        </g>
    </g>
</svg>