<svg width="96" height="96" viewBox="0 0 96 96" xmlns="http://www.w3.org/2000/svg" xmlns:xlink="http://www.w3.org/1999/xlink">
    <defs>
        <path id="a" d="M0 0h96v96H0z"/>
    </defs>
    <g fill="none" fill-rule="evenodd">
        <mask id="b" fill="#fff">
            <use xlink:href="#a"/>
        </mask>
        <use fill="#F5F5F5" xlink:href="#a"/>
        <g mask="url(#b)">
            <path d="M25.184 59.242v-4.959l3.97 4.959h1.206V51.97h-1.386v4.968l-3.96-4.968h-1.215v7.272h1.386zm9.226.153c1.908 0 2.916-1.377 2.916-2.898 0-1.503-1.008-2.889-2.916-2.889-1.926 0-2.934 1.386-2.934 2.889 0 1.521 1.008 2.898 2.934 2.898zm0-1.206c-.891 0-1.548-.666-1.548-1.692 0-1.017.657-1.674 1.547-1.674.883 0 1.53.657 1.53 1.674 0 1.026-.648 1.692-1.53 1.692zm7.55-5.382v-1.404h-1.386v1.404h1.387zm-.008 6.435v-5.508h-1.35v5.508h1.35zm2.654 0v-3.456c.136-.504.55-.963 1.224-.963.793 0 1.17.459 1.17 1.332v3.087h1.36v-3.456c.135-.504.53-.963 1.224-.963.81 0 1.17.459 1.17 1.332v3.087h1.35v-3.231c0-1.422-.612-2.403-2.044-2.403-.945 0-1.566.396-1.97 1.044-.298-.639-.873-1.044-1.783-1.044-.855 0-1.395.414-1.7.9v-.774h-1.35v5.508h1.35zm11.07.135a2.3 2.3 0 0 0 1.728-.756v.621h1.36v-5.508h-1.36v.648a2.282 2.282 0 0 0-1.728-.774c-1.52 0-2.645 1.143-2.645 2.889 0 1.737 1.125 2.88 2.645 2.88zm.306-1.215c-.882 0-1.575-.603-1.575-1.665 0-1.071.694-1.674 1.576-1.674.603 0 1.178.306 1.422.828v1.692c-.244.513-.82.819-1.422.819zm6.418 3.069c1.494 0 2.889-.927 2.889-2.925v-4.572h-1.36v.648a2.12 2.12 0 0 0-1.665-.774c-1.539 0-2.51 1.044-2.51 2.637 0 1.584.971 2.628 2.51 2.628.711 0 1.288-.306 1.666-.765v.297c0 1.206-.801 1.647-1.593 1.647-.82 0-1.288-.315-1.657-.801l-.828.855c.424.603 1.207 1.125 2.548 1.125zm.197-3.519c-.89 0-1.467-.594-1.467-1.467 0-.882.576-1.476 1.467-1.476.595 0 1.09.306 1.333.81v1.341c-.244.486-.738.792-1.333.792zm6.57 1.674a3.028 3.028 0 0 0 2.367-1.107l-.756-.882c-.315.441-.882.81-1.547.81-.954 0-1.477-.495-1.611-1.233h3.986c.028-.225.064-.486.064-.666 0-1.584-1.044-2.7-2.656-2.7-1.593 0-2.763 1.179-2.763 2.898 0 1.602 1.125 2.88 2.916 2.88zm1.162-3.528h-2.682c.18-.729.674-1.125 1.367-1.125.739 0 1.234.405 1.315 1.125zM27.052 72.377a2.3 2.3 0 0 0 1.728-.756v.621h1.359v-5.508H28.78v.648a2.282 2.282 0 0 0-1.728-.774c-1.521 0-2.646 1.143-2.646 2.889 0 1.737 1.125 2.88 2.646 2.88zm.306-1.215c-.882 0-1.575-.603-1.575-1.665 0-1.071.693-1.674 1.575-1.674.603 0 1.179.306 1.422.828v1.692c-.243.513-.819.819-1.422.819zm7.065 1.08 2.241-5.508h-1.449l-1.467 3.834-1.458-3.834h-1.458l2.232 5.508h1.359zm5.283.135a2.3 2.3 0 0 0 1.728-.756v.621h1.359v-5.508h-1.359v.648a2.282 2.282 0 0 0-1.728-.774c-1.521 0-2.646 1.143-2.646 2.889 0 1.737 1.125 2.88 2.646 2.88zm.306-1.215c-.882 0-1.575-.603-1.575-1.665 0-1.071.693-1.674 1.575-1.674.603 0 1.179.306 1.422.828v1.692c-.243.513-.819.819-1.422.819zm5.436-5.355v-1.404h-1.386v1.404h1.386zm-.009 6.435v-5.508h-1.35v5.508h1.35zm2.655 0v-7.587h-1.35v7.587h1.35zm3.645.135a2.3 2.3 0 0 0 1.728-.756v.621h1.359v-5.508h-1.359v.648a2.282 2.282 0 0 0-1.728-.774c-1.521 0-2.646 1.143-2.646 2.889 0 1.737 1.125 2.88 2.646 2.88zm.306-1.215c-.882 0-1.575-.603-1.575-1.665 0-1.071.693-1.674 1.575-1.674.603 0 1.179.306 1.422.828v1.692c-.243.513-.819.819-1.422.819zm7.155 1.215c1.539 0 2.655-1.143 2.655-2.88 0-1.746-1.116-2.889-2.655-2.889-.729 0-1.314.315-1.719.774v-2.727h-1.35v7.587h1.35v-.621c.405.45.99.756 1.719.756zm-.297-1.215c-.612 0-1.179-.306-1.422-.819v-1.692c.243-.522.81-.828 1.422-.828.891 0 1.575.603 1.575 1.674 0 1.062-.684 1.665-1.575 1.665zm5.292 1.08v-7.587h-1.35v7.587h1.35zm3.915.144a3.028 3.028 0 0 0 2.367-1.107l-.756-.882c-.315.441-.882.81-1.548.81-.954 0-1.476-.495-1.611-1.233h3.987c.027-.225.063-.486.063-.666 0-1.584-1.044-2.7-2.655-2.7-1.593 0-2.763 1.179-2.763 2.898 0 1.602 1.125 2.88 2.916 2.88zm1.161-3.528h-2.682c.18-.729.675-1.125 1.368-1.125.738 0 1.233.405 1.314 1.125z" fill="#DBDBDB" fill-rule="nonzero"/>
            <path d="M40.772 24.276c.384-.074.637-.073.727.024.054.062.07.163 0 .29a1.776 1.776 0 0 1-.16.22c-3.25 3.835-5.722 9.491-6.426 11.125a3.905 3.905 0 0 1-.149.297c-.063.115-.151.211-.307.22-.087.006-.204-.015-.384-.125-2.155-1.33-3.437-2.99-3.437-4.79 0-3.249 4.171-6.042 10.136-7.26m2.934 2.46c.307-.7.834-2.196 2.045-2.79.368-.18.82-.266 1.226-.278.09-.003.155 0 .181 0 3.391 0 6.547.463 9.19 1.258.02.006.082.03.1.037.244.08.37.19.37.328 0 .119-.065.209-.152.294a3.03 3.03 0 0 1-.167.145c-.61.503-2.447 1.813-5.906 3.119-1.215.458-2.732 1.027-4.32 1.359-.936.194-4.393.713-2.567-3.473m16.075-.068c.065-.115.153-.21.31-.22.087-.006.205.015.382.125 2.158 1.33 3.436 2.99 3.436 4.788 0 3.25-4.171 6.041-10.134 7.263-.383.075-.637.073-.724-.024-.06-.06-.076-.164 0-.292.037-.066.08-.126.159-.221 3.248-3.835 5.721-9.488 6.424-11.121.054-.113.106-.225.147-.298m-8.942 9.494c-.306.7-.833 2.197-2.045 2.792-.366.178-.82.265-1.226.277-.09.003-.155 0-.183 0-3.391 0-6.547-.464-9.188-1.257-.022-.006-.083-.03-.102-.037-.243-.08-.368-.192-.368-.328 0-.121.063-.21.15-.295.037-.037.094-.083.167-.146.611-.501 2.447-1.814 5.909-3.12 1.214-.456 2.73-1.026 4.322-1.357.932-.193 4.39-.715 2.564 3.47M47 40.9c9.942 0 18-4.23 18-9.451C65 26.23 56.942 22 47 22c-9.941 0-18 4.23-18 9.449 0 5.22 8.059 9.451 18 9.451" fill="#DBDBDB"/>
        </g>
    </g>
</svg>
