<svg width="136" height="136" viewBox="0 0 136 136" xmlns="http://www.w3.org/2000/svg" xmlns:xlink="http://www.w3.org/1999/xlink">
    <defs>
        <path id="a" d="M0 0h136v136H0z"/>
    </defs>
    <g fill="none" fill-rule="evenodd">
        <mask id="b" fill="#fff">
            <use xlink:href="#a"/>
        </mask>
        <use fill="#F5F5F5" xlink:href="#a"/>
        <g mask="url(#b)">
            <path d="M38.746 81.416v-6.612l5.292 6.612h1.608V71.72h-1.848v6.624l-5.28-6.624h-1.62v9.696h1.848zm12.3.204c2.544 0 3.888-1.836 3.888-3.864 0-2.004-1.344-3.852-3.888-3.852-2.568 0-3.912 1.848-3.912 3.852 0 2.028 1.344 3.864 3.912 3.864zm0-1.608c-1.188 0-2.064-.888-2.064-2.256 0-1.356.876-2.232 2.064-2.232 1.176 0 2.04.876 2.04 2.232 0 1.368-.864 2.256-2.04 2.256zm10.068-7.176v-1.872h-1.848v1.872h1.848zm-.012 8.58v-7.344h-1.8v7.344h1.8zm3.54 0v-4.608c.18-.672.732-1.284 1.632-1.284 1.056 0 1.56.612 1.56 1.776v4.116h1.812v-4.608c.18-.672.708-1.284 1.632-1.284 1.08 0 1.56.612 1.56 1.776v4.116h1.8v-4.308c0-1.896-.816-3.204-2.724-3.204-1.26 0-2.088.528-2.628 1.392-.396-.852-1.164-1.392-2.376-1.392-1.14 0-1.86.552-2.268 1.2v-1.032h-1.8v7.344h1.8zm14.76.18c.96 0 1.764-.408 2.304-1.008v.828h1.812v-7.344h-1.812v.864a3.042 3.042 0 0 0-2.304-1.032c-2.028 0-3.528 1.524-3.528 3.852 0 2.316 1.5 3.84 3.528 3.84zm.408-1.62c-1.176 0-2.1-.804-2.1-2.22 0-1.428.924-2.232 2.1-2.232.804 0 1.572.408 1.896 1.104v2.256c-.324.684-1.092 1.092-1.896 1.092zm8.556 4.092c1.992 0 3.852-1.236 3.852-3.9v-6.096h-1.812v.864a2.826 2.826 0 0 0-2.22-1.032c-2.052 0-3.348 1.392-3.348 3.516 0 2.112 1.296 3.504 3.348 3.504.948 0 1.716-.408 2.22-1.02v.396c0 1.608-1.068 2.196-2.124 2.196-1.092 0-1.716-.42-2.208-1.068l-1.104 1.14c.564.804 1.608 1.5 3.396 1.5zm.264-4.692c-1.188 0-1.956-.792-1.956-1.956 0-1.176.768-1.968 1.956-1.968.792 0 1.452.408 1.776 1.08v1.788c-.324.648-.984 1.056-1.776 1.056zm8.76 2.232a4.037 4.037 0 0 0 3.156-1.476l-1.008-1.176c-.42.588-1.176 1.08-2.064 1.08-1.272 0-1.968-.66-2.148-1.644h5.316c.036-.3.084-.648.084-.888 0-2.112-1.392-3.6-3.54-3.6-2.124 0-3.684 1.572-3.684 3.864 0 2.136 1.5 3.84 3.888 3.84zm1.548-4.704h-3.576c.24-.972.9-1.5 1.824-1.5.984 0 1.644.54 1.752 1.5zM41.236 99.596c.96 0 1.764-.408 2.304-1.008v.828h1.812v-7.344H43.54v.864a3.042 3.042 0 0 0-2.304-1.032c-2.028 0-3.528 1.524-3.528 3.852 0 2.316 1.5 3.84 3.528 3.84zm.408-1.62c-1.176 0-2.1-.804-2.1-2.22 0-1.428.924-2.232 2.1-2.232.804 0 1.572.408 1.896 1.104v2.256c-.324.684-1.092 1.092-1.896 1.092zm9.42 1.44 2.988-7.344H52.12l-1.956 5.112-1.944-5.112h-1.944l2.976 7.344h1.812zm7.044.18c.96 0 1.764-.408 2.304-1.008v.828h1.812v-7.344h-1.812v.864a3.042 3.042 0 0 0-2.304-1.032c-2.028 0-3.528 1.524-3.528 3.852 0 2.316 1.5 3.84 3.528 3.84zm.408-1.62c-1.176 0-2.1-.804-2.1-2.22 0-1.428.924-2.232 2.1-2.232.804 0 1.572.408 1.896 1.104v2.256c-.324.684-1.092 1.092-1.896 1.092zm7.248-7.14v-1.872h-1.848v1.872h1.848zm-.012 8.58v-7.344h-1.8v7.344h1.8zm3.54 0V89.3h-1.8v10.116h1.8zm4.86.18c.96 0 1.764-.408 2.304-1.008v.828h1.812v-7.344h-1.812v.864a3.042 3.042 0 0 0-2.304-1.032c-2.028 0-3.528 1.524-3.528 3.852 0 2.316 1.5 3.84 3.528 3.84zm.408-1.62c-1.176 0-2.1-.804-2.1-2.22 0-1.428.924-2.232 2.1-2.232.804 0 1.572.408 1.896 1.104v2.256c-.324.684-1.092 1.092-1.896 1.092zm9.54 1.62c2.052 0 3.54-1.524 3.54-3.84 0-2.328-1.488-3.852-3.54-3.852-.972 0-1.752.42-2.292 1.032V89.3h-1.8v10.116h1.8v-.828a3.02 3.02 0 0 0 2.292 1.008zm-.396-1.62c-.816 0-1.572-.408-1.896-1.092v-2.256c.324-.696 1.08-1.104 1.896-1.104 1.188 0 2.1.804 2.1 2.232 0 1.416-.912 2.22-2.1 2.22zm7.056 1.44V89.3h-1.8v10.116h1.8zm5.22.192a4.037 4.037 0 0 0 3.156-1.476l-1.008-1.176c-.42.588-1.176 1.08-2.064 1.08-1.272 0-1.968-.66-2.148-1.644h5.316c.036-.3.084-.648.084-.888 0-2.112-1.392-3.6-3.54-3.6-2.124 0-3.684 1.572-3.684 3.864 0 2.136 1.5 3.84 3.888 3.84zm1.548-4.704h-3.576c.24-.972.9-1.5 1.824-1.5.984 0 1.644.54 1.752 1.5z" fill="#DBDBDB" fill-rule="nonzero"/>
            <path d="M60.696 35.006c.512-.098.849-.097.97.032.071.08.092.215-.002.382-.056.09-.112.17-.213.291-4.331 5.065-7.629 12.534-8.567 14.692-.07.148-.14.296-.198.392-.085.152-.202.279-.41.291-.116.007-.272-.02-.511-.165-2.874-1.757-4.583-3.95-4.583-6.325 0-4.291 5.561-7.98 13.514-9.59m3.912 3.249c.409-.923 1.112-2.899 2.727-3.684.49-.238 1.092-.352 1.634-.367.12-.004.208 0 .242 0 4.522 0 8.728.611 12.254 1.662.026.007.108.039.133.048.325.106.493.251.493.433 0 .157-.087.276-.203.388a4.03 4.03 0 0 1-.223.192c-.813.665-3.262 2.395-7.874 4.12-1.62.605-3.643 1.356-5.762 1.794-1.246.257-5.856.942-3.42-4.586m21.433-.09c.087-.152.203-.277.413-.29.115-.009.273.019.51.165 2.876 1.756 4.58 3.947 4.58 6.323 0 4.291-5.561 7.977-13.511 9.59-.51.1-.85.097-.966-.03-.08-.08-.1-.218 0-.386.05-.087.107-.167.212-.292 4.33-5.064 7.628-12.53 8.566-14.687.07-.15.141-.296.196-.393M74.119 50.702c-.408.926-1.111 2.902-2.727 3.688-.487.235-1.092.35-1.634.366-.122.003-.208 0-.245 0-4.522 0-8.728-.612-12.25-1.66-.03-.008-.111-.04-.136-.05-.325-.104-.49-.253-.49-.432 0-.16.083-.278.2-.39.048-.048.124-.11.221-.192.816-.662 3.264-2.397 7.879-4.12 1.619-.603 3.642-1.356 5.763-1.793 1.242-.256 5.855-.944 3.42 4.583M69 56.96c13.256 0 24-5.587 24-12.482C93 37.587 82.256 32 69 32c-13.255 0-24 5.587-24 12.478 0 6.895 10.745 12.482 24 12.482" fill="#DBDBDB"/>
        </g>
    </g>
</svg>
