<svg width="160" height="160" viewBox="0 0 160 160" xmlns="http://www.w3.org/2000/svg" xmlns:xlink="http://www.w3.org/1999/xlink">
    <defs>
        <path id="a" d="M0 0h160v160H0z"/>
    </defs>
    <g fill="none" fill-rule="evenodd">
        <mask id="b" fill="#fff">
            <use xlink:href="#a"/>
        </mask>
        <use fill="#F5F5F5" xlink:href="#a"/>
        <g mask="url(#b)">
            <path d="M50.746 94.456v-6.612l5.292 6.612h1.608V84.76h-1.848v6.624l-5.28-6.624h-1.62v9.696h1.848zm12.3.204c2.544 0 3.888-1.836 3.888-3.864 0-2.004-1.344-3.852-3.888-3.852-2.568 0-3.912 1.848-3.912 3.852 0 2.028 1.344 3.864 3.912 3.864zm0-1.608c-1.188 0-2.064-.888-2.064-2.256 0-1.356.876-2.232 2.064-2.232 1.176 0 2.04.876 2.04 2.232 0 1.368-.864 2.256-2.04 2.256zm10.068-7.176v-1.872h-1.848v1.872h1.848zm-.012 8.58v-7.344h-1.8v7.344h1.8zm3.54 0v-4.608c.18-.672.732-1.284 1.632-1.284 1.056 0 1.56.612 1.56 1.776v4.116h1.812v-4.608c.18-.672.708-1.284 1.632-1.284 1.08 0 1.56.612 1.56 1.776v4.116h1.8v-4.308c0-1.896-.816-3.204-2.724-3.204-1.26 0-2.088.528-2.628 1.392-.396-.852-1.164-1.392-2.376-1.392-1.14 0-1.86.552-2.268 1.2v-1.032h-1.8v7.344h1.8zm14.76.18c.96 0 1.764-.408 2.304-1.008v.828h1.812v-7.344h-1.812v.864a3.042 3.042 0 0 0-2.304-1.032c-2.028 0-3.528 1.524-3.528 3.852 0 2.316 1.5 3.84 3.528 3.84zm.408-1.62c-1.176 0-2.1-.804-2.1-2.22 0-1.428.924-2.232 2.1-2.232.804 0 1.572.408 1.896 1.104v2.256c-.324.684-1.092 1.092-1.896 1.092zm8.556 4.092c1.992 0 3.852-1.236 3.852-3.9v-6.096h-1.812v.864a2.826 2.826 0 0 0-2.22-1.032c-2.052 0-3.348 1.392-3.348 3.516 0 2.112 1.296 3.504 3.348 3.504.948 0 1.716-.408 2.22-1.02v.396c0 1.608-1.068 2.196-2.124 2.196-1.092 0-1.716-.42-2.208-1.068l-1.104 1.14c.564.804 1.608 1.5 3.396 1.5zm.264-4.692c-1.188 0-1.956-.792-1.956-1.956 0-1.176.768-1.968 1.956-1.968.792 0 1.452.408 1.776 1.08v1.788c-.324.648-.984 1.056-1.776 1.056zm8.76 2.232a4.037 4.037 0 0 0 3.156-1.476l-1.008-1.176c-.42.588-1.176 1.08-2.064 1.08-1.272 0-1.968-.66-2.148-1.644h5.316c.036-.3.084-.648.084-.888 0-2.112-1.392-3.6-3.54-3.6-2.124 0-3.684 1.572-3.684 3.864 0 2.136 1.5 3.84 3.888 3.84zm1.548-4.704h-3.576c.24-.972.9-1.5 1.824-1.5.984 0 1.644.54 1.752 1.5zm-57.702 24.692c.96 0 1.764-.408 2.304-1.008v.828h1.812v-7.344H55.54v.864a3.042 3.042 0 0 0-2.304-1.032c-2.028 0-3.528 1.524-3.528 3.852 0 2.316 1.5 3.84 3.528 3.84zm.408-1.62c-1.176 0-2.1-.804-2.1-2.22 0-1.428.924-2.232 2.1-2.232.804 0 1.572.408 1.896 1.104v2.256c-.324.684-1.092 1.092-1.896 1.092zm9.42 1.44 2.988-7.344H64.12l-1.956 5.112-1.944-5.112h-1.944l2.976 7.344h1.812zm7.044.18c.96 0 1.764-.408 2.304-1.008v.828h1.812v-7.344h-1.812v.864a3.042 3.042 0 0 0-2.304-1.032c-2.028 0-3.528 1.524-3.528 3.852 0 2.316 1.5 3.84 3.528 3.84zm.408-1.62c-1.176 0-2.1-.804-2.1-2.22 0-1.428.924-2.232 2.1-2.232.804 0 1.572.408 1.896 1.104v2.256c-.324.684-1.092 1.092-1.896 1.092zm7.248-7.14v-1.872h-1.848v1.872h1.848zm-.012 8.58v-7.344h-1.8v7.344h1.8zm3.54 0V104.34h-1.8v10.116h1.8zm4.86.18c.96 0 1.764-.408 2.304-1.008v.828h1.812v-7.344h-1.812v.864a3.042 3.042 0 0 0-2.304-1.032c-2.028 0-3.528 1.524-3.528 3.852 0 2.316 1.5 3.84 3.528 3.84zm.408-1.62c-1.176 0-2.1-.804-2.1-2.22 0-1.428.924-2.232 2.1-2.232.804 0 1.572.408 1.896 1.104v2.256c-.324.684-1.092 1.092-1.896 1.092zm9.54 1.62c2.052 0 3.54-1.524 3.54-3.84 0-2.328-1.488-3.852-3.54-3.852-.972 0-1.752.42-2.292 1.032v-3.636h-1.8v10.116h1.8v-.828a3.02 3.02 0 0 0 2.292 1.008zm-.396-1.62c-.816 0-1.572-.408-1.896-1.092v-2.256c.324-.696 1.08-1.104 1.896-1.104 1.188 0 2.1.804 2.1 2.232 0 1.416-.912 2.22-2.1 2.22zm7.056 1.44V104.34h-1.8v10.116h1.8zm5.22.192a4.037 4.037 0 0 0 3.156-1.476l-1.008-1.176c-.42.588-1.176 1.08-2.064 1.08-1.272 0-1.968-.66-2.148-1.644h5.316c.036-.3.084-.648.084-.888 0-2.112-1.392-3.6-3.54-3.6-2.124 0-3.684 1.572-3.684 3.864 0 2.136 1.5 3.84 3.888 3.84zm1.548-4.704h-3.576c.24-.972.9-1.5 1.824-1.5.984 0 1.644.54 1.752 1.5z" fill="#DBDBDB" fill-rule="nonzero"/>
            <path d="M70.658 44.372c.576-.11.955-.109 1.09.036.081.09.105.241 0 .429-.064.1-.126.19-.24.326-4.874 5.682-8.583 14.06-9.638 16.482a5.757 5.757 0 0 1-.223.44c-.096.17-.228.312-.461.326-.13.008-.307-.023-.576-.185-3.233-1.972-5.155-4.43-5.155-7.096 0-4.814 6.256-8.952 15.203-10.758m4.401 3.645c.46-1.035 1.25-3.252 3.067-4.133.552-.267 1.23-.394 1.839-.411.136-.005.234 0 .273 0 5.086 0 9.819.685 13.785 1.864.029.008.122.043.15.054.365.118.554.282.554.486 0 .176-.097.309-.228.435a4.53 4.53 0 0 1-.25.215c-.915.746-3.67 2.687-8.86 4.62-1.822.68-4.098 1.523-6.48 2.014-1.403.288-6.59 1.057-3.85-5.144m24.113-.102c.098-.17.229-.31.465-.325.13-.01.307.022.573.185 3.236 1.97 5.154 4.429 5.154 7.094 0 4.813-6.257 8.949-15.2 10.759-.576.11-.957.108-1.088-.035-.089-.09-.113-.244 0-.433.056-.097.12-.187.239-.328 4.872-5.68 8.582-14.056 9.636-16.476.08-.167.16-.332.221-.44M85.759 61.98c-.459 1.04-1.25 3.255-3.068 4.137-.548.264-1.229.393-1.838.41-.137.004-.234 0-.275 0-5.088 0-9.82-.686-13.782-1.861-.034-.01-.125-.046-.154-.056-.364-.118-.551-.284-.551-.485 0-.18.094-.312.226-.437.054-.055.14-.123.249-.216.917-.743 3.671-2.689 8.863-4.622 1.821-.677 4.097-1.521 6.483-2.011 1.398-.287 6.587-1.06 3.847 5.141M80 69c14.913 0 27-6.267 27-14.002C107 47.268 94.913 41 80 41c-14.912 0-27 6.267-27 13.998C53 62.733 65.088 69 80 69" fill="#DBDBDB"/>
        </g>
    </g>
</svg>
