<svg width="352" height="280" viewBox="0 0 352 280" xmlns="http://www.w3.org/2000/svg" xmlns:xlink="http://www.w3.org/1999/xlink">
    <defs>
        <path id="a" d="M0 0h352v280H0z"/>
    </defs>
    <g fill="none" fill-rule="evenodd">
        <mask id="b" fill="#fff">
            <use xlink:href="#a"/>
        </mask>
        <use fill="#F5F5F5" xlink:href="#a"/>
        <g mask="url(#b)">
            <path d="M101.388 179.92v-7.714l6.174 7.714h1.876v-11.312h-2.156v7.728l-6.16-7.728h-1.89v11.312h2.156zm14.35.238c2.968 0 4.536-2.142 4.536-4.508 0-2.338-1.568-4.494-4.536-4.494-2.996 0-4.564 2.156-4.564 4.494 0 2.366 1.568 4.508 4.564 4.508zm0-1.876c-1.386 0-2.408-1.036-2.408-2.632 0-1.582 1.022-2.604 2.408-2.604 1.372 0 2.38 1.022 2.38 2.604 0 1.596-1.008 2.632-2.38 2.632zm11.746-8.372v-2.184h-2.156v2.184h2.156zm-.014 10.01v-8.568h-2.1v8.568h2.1zm4.13 0v-5.376c.21-.784.854-1.498 1.904-1.498 1.232 0 1.82.714 1.82 2.072v4.802h2.114v-5.376c.21-.784.826-1.498 1.904-1.498 1.26 0 1.82.714 1.82 2.072v4.802h2.1v-5.026c0-2.212-.952-3.738-3.178-3.738-1.47 0-2.436.616-3.066 1.624-.462-.994-1.358-1.624-2.772-1.624-1.33 0-2.17.644-2.646 1.4v-1.204h-2.1v8.568h2.1zm17.22.21c1.12 0 2.058-.476 2.688-1.176v.966h2.114v-8.568h-2.114v1.008a3.55 3.55 0 0 0-2.688-1.204c-2.366 0-4.116 1.778-4.116 4.494 0 2.702 1.75 4.48 4.116 4.48zm.476-1.89c-1.372 0-2.45-.938-2.45-2.59 0-1.666 1.078-2.604 2.45-2.604.938 0 1.834.476 2.212 1.288v2.632c-.378.798-1.274 1.274-2.212 1.274zm9.982 4.774c2.324 0 4.494-1.442 4.494-4.55v-7.112h-2.114v1.008a3.297 3.297 0 0 0-2.59-1.204c-2.394 0-3.906 1.624-3.906 4.102 0 2.464 1.512 4.088 3.906 4.088 1.106 0 2.002-.476 2.59-1.19v.462c0 1.876-1.246 2.562-2.478 2.562-1.274 0-2.002-.49-2.576-1.246l-1.288 1.33c.658.938 1.876 1.75 3.962 1.75zm.308-5.474c-1.386 0-2.282-.924-2.282-2.282 0-1.372.896-2.296 2.282-2.296.924 0 1.694.476 2.072 1.26v2.086c-.378.756-1.148 1.232-2.072 1.232zm10.22 2.604a4.71 4.71 0 0 0 3.682-1.722l-1.176-1.372c-.49.686-1.372 1.26-2.408 1.26-1.484 0-2.296-.77-2.506-1.918h6.202c.042-.35.098-.756.098-1.036 0-2.464-1.624-4.2-4.13-4.2-2.478 0-4.298 1.834-4.298 4.508 0 2.492 1.75 4.48 4.536 4.48zm1.806-5.488h-4.172c.28-1.134 1.05-1.75 2.128-1.75 1.148 0 1.918.63 2.044 1.75zm10.822 5.474c1.12 0 2.058-.476 2.688-1.176v.966h2.114v-8.568h-2.114v1.008a3.55 3.55 0 0 0-2.688-1.204c-2.366 0-4.116 1.778-4.116 4.494 0 2.702 1.75 4.48 4.116 4.48zm.476-1.89c-1.372 0-2.45-.938-2.45-2.59 0-1.666 1.078-2.604 2.45-2.604.938 0 1.834.476 2.212 1.288v2.632c-.378.798-1.274 1.274-2.212 1.274zm10.99 1.68 3.486-8.568h-2.254l-2.282 5.964-2.268-5.964h-2.268l3.472 8.568h2.114zm8.218.21c1.12 0 2.058-.476 2.688-1.176v.966h2.114v-8.568h-2.114v1.008a3.55 3.55 0 0 0-2.688-1.204c-2.366 0-4.116 1.778-4.116 4.494 0 2.702 1.75 4.48 4.116 4.48zm.476-1.89c-1.372 0-2.45-.938-2.45-2.59 0-1.666 1.078-2.604 2.45-2.604.938 0 1.834.476 2.212 1.288v2.632c-.378.798-1.274 1.274-2.212 1.274zm8.456-8.33v-2.184h-2.156v2.184h2.156zm-.014 10.01v-8.568h-2.1v8.568h2.1zm4.13 0v-11.802h-2.1v11.802h2.1zm5.67.21c1.12 0 2.058-.476 2.688-1.176v.966h2.114v-8.568h-2.114v1.008a3.55 3.55 0 0 0-2.688-1.204c-2.366 0-4.116 1.778-4.116 4.494 0 2.702 1.75 4.48 4.116 4.48zm.476-1.89c-1.372 0-2.45-.938-2.45-2.59 0-1.666 1.078-2.604 2.45-2.604.938 0 1.834.476 2.212 1.288v2.632c-.378.798-1.274 1.274-2.212 1.274zm11.13 1.89c2.394 0 4.13-1.778 4.13-4.48 0-2.716-1.736-4.494-4.13-4.494-1.134 0-2.044.49-2.674 1.204v-4.242h-2.1v11.802h2.1v-.966c.63.7 1.54 1.176 2.674 1.176zm-.462-1.89c-.952 0-1.834-.476-2.212-1.274v-2.632c.378-.812 1.26-1.288 2.212-1.288 1.386 0 2.45.938 2.45 2.604 0 1.652-1.064 2.59-2.45 2.59zm8.232 1.68v-11.802h-2.1v11.802h2.1zm6.09.224a4.71 4.71 0 0 0 3.682-1.722l-1.176-1.372c-.49.686-1.372 1.26-2.408 1.26-1.484 0-2.296-.77-2.506-1.918h6.202c.042-.35.098-.756.098-1.036 0-2.464-1.624-4.2-4.13-4.2-2.478 0-4.298 1.834-4.298 4.508 0 2.492 1.75 4.48 4.536 4.48zm1.806-5.488h-4.172c.28-1.134 1.05-1.75 2.128-1.75 1.148 0 1.918.63 2.044 1.75z" fill="#DBDBDB" fill-rule="nonzero"/>
            <path d="M124.59 147.388h102.274V94H124.59z"/>
            <path d="M158.034 100.43c1.09-.21 1.808-.208 2.066.068.152.173.198.46-.003.817-.119.193-.238.364-.455.623-9.228 10.833-16.254 26.81-18.253 31.425-.148.317-.3.632-.422.838-.18.325-.43.597-.873.623-.247.015-.58-.044-1.09-.353-6.123-3.76-9.764-8.447-9.764-13.53 0-9.178 11.85-17.067 28.794-20.512m8.336 6.95c.87-1.973 2.368-6.2 5.809-7.88 1.044-.509 2.327-.752 3.482-.784.257-.01.442 0 .516 0 9.634 0 18.597 1.306 26.11 3.554.054.016.23.083.283.103.692.226 1.05.538 1.05.926 0 .336-.185.59-.432.83a8.596 8.596 0 0 1-.476.41c-1.73 1.423-6.95 5.123-16.778 8.81-3.451 1.297-7.76 2.903-12.275 3.84-2.656.55-12.478 2.014-7.29-9.81m45.669-.192c.185-.324.433-.593.88-.621.245-.018.581.042 1.086.353 6.129 3.757 9.76 8.444 9.76 13.525 0 9.179-11.85 17.064-28.788 20.514-1.089.212-1.811.207-2.06-.066-.168-.171-.213-.465 0-.825.108-.186.23-.356.453-.625 9.228-10.832 16.253-26.802 18.25-31.414.153-.32.302-.634.419-.841m-25.403 26.817c-.87 1.98-2.368 6.206-5.81 7.887-1.04.503-2.328.75-3.483.784-.259.007-.443 0-.52 0-9.636 0-18.6-1.31-26.102-3.55-.065-.018-.238-.087-.291-.107-.691-.224-1.045-.542-1.045-.925 0-.344.179-.595.428-.833.103-.105.265-.235.472-.412 1.737-1.417 6.953-5.126 16.786-8.813 3.449-1.29 7.76-2.9 12.28-3.834 2.647-.547 12.474-2.02 7.285 9.803m-10.908 13.385c28.244 0 51.137-11.95 51.137-26.698 0-14.74-22.893-26.69-51.137-26.69-28.242 0-51.136 11.95-51.136 26.69 0 14.748 22.894 26.698 51.136 26.698" fill="#DBDBDB"/>
        </g>
    </g>
</svg>
