<svg width="48" height="48" viewBox="0 0 48 48" fill="none" xmlns="http://www.w3.org/2000/svg">
<path d="M45 8.58077H38.7334L42.8963 4.40763L41.4921 3L1 43.5924L2.40415 45L6.72079 40.6727H45V8.58077ZM43.0153 38.6831H8.86919L21.189 26.3328L28.0113 33.172L28.7109 32.4706L32.9581 28.2129L43.0153 38.2951V38.6831ZM32.9581 25.3977L28.0063 30.3617L22.5038 24.8456L36.7438 10.5703H43.0104V35.4799L32.9531 25.3977H32.9581Z" fill="#999999"/>
<path d="M37.8681 13.9434C35.9678 13.9434 34.4297 15.4853 34.4297 17.3903C34.4297 19.2953 35.9678 20.8372 37.8681 20.8372C39.7684 20.8372 41.3065 19.2953 41.3065 17.3903C41.3065 15.4853 39.7684 13.9434 37.8681 13.9434ZM38.8952 18.4249C38.6273 18.6885 38.27 18.8526 37.8681 18.8526C37.4613 18.8526 37.104 18.6885 36.8411 18.4249C36.5781 18.1563 36.4144 17.7982 36.4144 17.3953C36.4144 16.9874 36.5781 16.6293 36.8411 16.3657C37.109 16.1021 37.4662 15.9379 37.8681 15.9379C38.275 15.9379 38.6322 16.1021 38.8952 16.3657C39.1581 16.6343 39.3219 16.9924 39.3219 17.3953C39.3219 17.8031 39.1581 18.1613 38.8952 18.4249Z" fill="#999999"/>
<path d="M19.56 20.8856L18.1558 19.478L5.72685 31.9377V10.5697H29.8455L31.8301 8.58008H31.7011H3.74219V36.7326H3.75211L19.56 20.8856Z" fill="#999999"/>
</svg>
