<svg width="24" height="24" viewBox="0 0 24 24" fill="none" xmlns="http://www.w3.org/2000/svg">
<path fill-rule="evenodd" clip-rule="evenodd" d="M15.9518 4.1571H21V21H3V4.1571H8.04821V3H9.12065V4.1571H14.8794V3H15.9518V4.1571ZM8.04821 6.38664V5.22954H4.07244V7.27634H19.9276V5.22954H15.9518V6.38664H14.8794V5.22954H9.12065V6.38664H8.04821ZM19.9276 8.34878H12.5362V13.567H19.9276V8.34878ZM4.07244 13.567H11.4638V8.34878H4.07244V13.567ZM11.4638 14.6395H4.07244V19.9276H11.4638V14.6395ZM12.5362 14.6395V19.9276H19.9276V14.6395H12.5362ZM15.8076 11.0068L17.4677 9.34668L18.2262 10.1051L15.8076 12.5238L14.2998 11.016L15.0576 10.2575L15.8076 11.0068Z" fill="#231916"/>
</svg>
