<svg width="80" height="80" viewBox="0 0 80 80" fill="none" xmlns="http://www.w3.org/2000/svg">
<path d="M39.8132 50.7539C40.9408 50.7539 42.0431 51.0883 42.9807 51.7148C43.9183 52.3413 44.6491 53.2317 45.0806 54.2735C45.5122 55.3153 45.6251 56.4617 45.4051 57.5677C45.1851 58.6736 44.6421 59.6895 43.8447 60.4869C43.0474 61.2843 42.0315 61.8273 40.9255 62.0473C39.8195 62.2673 38.6731 62.1544 37.6313 61.7228C36.5895 61.2913 35.6991 60.5605 35.0726 59.6229C34.4461 58.6853 34.1117 57.583 34.1117 56.4554C34.1117 54.9432 34.7124 53.4931 35.7816 52.4238C36.8509 51.3546 38.3011 50.7539 39.8132 50.7539ZM39.8132 59.8534C40.4898 59.8534 41.1512 59.6528 41.7137 59.2769C42.2763 58.901 42.7147 58.3668 42.9737 57.7417C43.2326 57.1166 43.3003 56.4288 43.1683 55.7652C43.0363 55.1016 42.7105 54.4921 42.2321 54.0136C41.7537 53.5352 41.1442 53.2094 40.4806 53.0774C39.817 52.9454 39.1292 53.0132 38.5041 53.2721C37.879 53.531 37.3447 53.9695 36.9688 54.532C36.5929 55.0946 36.3923 55.756 36.3923 56.4326C36.3923 57.3398 36.7527 58.2099 37.3943 58.8515C38.0358 59.493 38.9059 59.8534 39.8132 59.8534Z" fill="#333333"/>
<path d="M42.8267 19.9525H36.8059V46.8777H34.5282V17.6748H45.1016V46.8777H42.8267V19.9525Z" fill="#333333"/>
<path d="M40 4C47.1201 4 54.0803 6.11136 60.0005 10.0671C65.9207 14.0228 70.5349 19.6453 73.2596 26.2234C75.9844 32.8015 76.6973 40.0399 75.3083 47.0232C73.9192 54.0066 70.4905 60.4211 65.4558 65.4558C60.4211 70.4905 54.0066 73.9192 47.0232 75.3083C40.0399 76.6973 32.8015 75.9844 26.2234 73.2596C19.6453 70.5349 14.0228 65.9207 10.0671 60.0005C6.11136 54.0803 4 47.1201 4 40C3.99966 35.2723 4.9306 30.5909 6.73965 26.223C8.5487 21.8551 11.2004 17.8864 14.5434 14.5434C17.8864 11.2004 21.8551 8.5487 26.223 6.73965C30.5909 4.9306 35.2723 3.99966 40 4ZM15.994 64.0034C19.1464 67.1558 22.8887 69.6563 27.0075 71.3624C31.1262 73.0684 35.5406 73.9465 39.9987 73.9465C44.4568 73.9465 48.8712 73.0684 52.99 71.3624C57.1087 69.6563 60.8511 67.1558 64.0034 64.0034C67.1557 60.8511 69.6563 57.1087 71.3624 52.99C73.0684 48.8712 73.9465 44.4568 73.9465 39.9987C73.9465 35.5406 73.0684 31.1262 71.3624 27.0075C69.6563 22.8887 67.1557 19.1464 64.0034 15.994C60.8511 12.8417 57.1087 10.3411 52.99 8.63506C48.8712 6.92902 44.4568 6.05094 39.9987 6.05094C35.5406 6.05094 31.1262 6.92902 27.0075 8.63506C22.8887 10.3411 19.1464 12.8417 15.994 15.994C12.8417 19.1464 10.3411 22.8887 8.63506 27.0075C6.92902 31.1262 6.05093 35.5406 6.05093 39.9987C6.05093 44.4568 6.92902 48.8712 8.63506 52.99C10.3411 57.1087 12.8417 60.8511 15.994 64.0034Z" fill="#333333"/>
</svg>
