<svg width="24" height="24" viewBox="0 0 24 24" fill="none" xmlns="http://www.w3.org/2000/svg">
<path fill-rule="evenodd" clip-rule="evenodd" d="M5.3002 10.5C5.3002 7.62813 7.62831 5.30001 10.5002 5.30001C13.3721 5.30001 15.7002 7.62813 15.7002 10.5C15.7002 13.3719 13.3721 15.7 10.5002 15.7C7.62831 15.7 5.3002 13.3719 5.3002 10.5ZM10.5002 3.70001C6.74466 3.70001 3.7002 6.74448 3.7002 10.5C3.7002 14.2555 6.74466 17.3 10.5002 17.3C12.22 17.3 13.7907 16.6615 14.9882 15.6087L19.3954 20.0159L20.5268 18.8845L16.0594 14.4171C16.841 13.3097 17.3002 11.9585 17.3002 10.5C17.3002 6.74448 14.2557 3.70001 10.5002 3.70001Z" fill="#999999"/>
</svg>
