<svg width="60" height="60" viewBox="0 0 60 60" fill="none" xmlns="http://www.w3.org/2000/svg">
<g filter="url(#filter0_d_3211_1179)">
<g filter="url(#filter1_d_3211_1179)">
<path fill-rule="evenodd" clip-rule="evenodd" d="M30 6.69231C18.7844 6.69231 9.69231 15.7844 9.69231 27C9.69231 38.2156 18.7844 47.3077 30 47.3077C41.2156 47.3077 50.3077 38.2156 50.3077 27C50.3077 15.7844 41.2156 6.69231 30 6.69231ZM6 27C6 13.7452 16.7452 3 30 3C43.2548 3 54 13.7452 54 27C54 40.2548 43.2548 51 30 51C16.7452 51 6 40.2548 6 27ZM28.1534 39.3089L28.1534 22.0781H31.8457V39.3089H28.1534ZM28.1534 14.6914V18.3837L31.8457 18.3837V14.6914H28.1534Z" fill="white"/>
</g>
</g>
<defs>
<filter id="filter0_d_3211_1179" x="0" y="0" width="60" height="60" filterUnits="userSpaceOnUse" color-interpolation-filters="sRGB">
<feFlood flood-opacity="0" result="BackgroundImageFix"/>
<feColorMatrix in="SourceAlpha" type="matrix" values="0 0 0 0 0 0 0 0 0 0 0 0 0 0 0 0 0 0 127 0" result="hardAlpha"/>
<feOffset dy="3"/>
<feGaussianBlur stdDeviation="3"/>
<feComposite in2="hardAlpha" operator="out"/>
<feColorMatrix type="matrix" values="0 0 0 0 0 0 0 0 0 0 0 0 0 0 0 0 0 0 0.1 0"/>
<feBlend mode="normal" in2="BackgroundImageFix" result="effect1_dropShadow_3211_1179"/>
<feBlend mode="normal" in="SourceGraphic" in2="effect1_dropShadow_3211_1179" result="shape"/>
</filter>
<filter id="filter1_d_3211_1179" x="0" y="0" width="60" height="60" filterUnits="userSpaceOnUse" color-interpolation-filters="sRGB">
<feFlood flood-opacity="0" result="BackgroundImageFix"/>
<feColorMatrix in="SourceAlpha" type="matrix" values="0 0 0 0 0 0 0 0 0 0 0 0 0 0 0 0 0 0 127 0" result="hardAlpha"/>
<feOffset dy="3"/>
<feGaussianBlur stdDeviation="3"/>
<feComposite in2="hardAlpha" operator="out"/>
<feColorMatrix type="matrix" values="0 0 0 0 0 0 0 0 0 0 0 0 0 0 0 0 0 0 0.1 0"/>
<feBlend mode="normal" in2="BackgroundImageFix" result="effect1_dropShadow_3211_1179"/>
<feBlend mode="normal" in="SourceGraphic" in2="effect1_dropShadow_3211_1179" result="shape"/>
</filter>
</defs>
</svg>
