<?xml version="1.0" encoding="UTF-8"?>
<svg width="32px" height="32px" viewBox="0 0 32 32" version="1.1" xmlns="http://www.w3.org/2000/svg" xmlns:xlink="http://www.w3.org/1999/xlink">
    <title>006B7785-41F0-471D-98F4-09DF4206CAA4</title>
    <g id="home-&gt;-common-+-main" stroke="none" stroke-width="1" fill="none" fill-rule="evenodd">
        <g id="PC-JP-DS-FE-CO-Main_01basic-2quickmenu_1019" transform="translate(-1706.000000, -627.000000)">
            <g id="ic_simulator" transform="translate(1707.000000, 628.000000)">
                <path d="M11.3740716,18 C12.8568535,18 14.01553,17.2092747 14.01553,15.9441141 C14.01553,15.1533888 13.5941931,14.529132 12.8406482,14.2711058 C13.3511141,13.9548157 13.6752194,13.43044 13.6752194,12.8810939 C13.6752194,11.6991677 12.8244429,11 11.4226874,11 C10.4908845,11 9.74544227,11.4994055 9.32410533,12.0570749 L10.0533423,12.8478002 C10.304524,12.4815696 10.7177583,12.1736029 11.4226874,12.1736029 C11.9736664,12.1736029 12.4193113,12.4482759 12.4193113,12.980975 C12.4193113,13.4221165 12.1033086,13.8216409 11.3902768,13.8216409 L10.7420662,13.8216409 L10.7420662,14.9286564 L11.3902768,14.9286564 C12.313977,14.9286564 12.7677245,15.2532699 12.7677245,15.8359096 C12.7677245,16.4768133 12.1843349,16.8347206 11.3740716,16.8347206 C10.5638082,16.8347206 10.0371371,16.4019025 9.71303174,16.0023781 L9,16.8680143 C9.42943957,17.3674197 10.2072924,18 11.3740716,18 Z M17.7427414,17.8585018 C19.630655,17.8585018 21,16.6765755 21,14.4958383 C21,12.3234245 19.630655,11.1331748 17.7427414,11.1331748 L15.1012829,11.1331748 L15.1012829,17.8585018 L17.7427414,17.8585018 Z M17.6779203,16.7431629 L16.3490885,16.7431629 L16.3490885,12.2568371 L17.6779203,12.2568371 C18.9257259,12.2568371 19.7116813,13.039239 19.7116813,14.4958383 C19.7116813,15.960761 18.9257259,16.7431629 17.6779203,16.7431629 Z" id="3D" fill="#FFFFFF" fill-rule="nonzero"></path>
                <polyline id="Path" stroke="#FAFAFA" stroke-linejoin="round" points="15 21.0133104 15 30 2.01921813e-14 24.0088736 2.01921813e-14 5.03697323 15 3.39567038e-14 30 5.03697323 21 8.03253645"></polyline>
                <polyline id="Path-17" stroke="#FAFAFA" stroke-linejoin="round" points="30 10 30 24 15 30"></polyline>
                <line x1="0" y1="5" x2="9" y2="8" id="Path" stroke="#FAFAFA"></line>
            </g>
        </g>
    </g>
</svg>