<svg width="14" height="14" viewBox="0 0 14 14" fill="none" xmlns="http://www.w3.org/2000/svg">
<path d="M5.82812 2.91602H2.32812V11.666H11.0781V8.16602" stroke="black" stroke-width="1.5"/>
<path d="M12.25 1.75H13V1H12.25V1.75ZM7.875 2.5C7.87729 2.5 7.87958 2.5 7.88187 2.5C7.88417 2.5 7.88647 2.5 7.88877 2.5C7.89107 2.5 7.89337 2.5 7.89568 2.5C7.89799 2.5 7.9003 2.5 7.90262 2.5C7.90493 2.5 7.90725 2.5 7.90957 2.5C7.91189 2.5 7.91421 2.5 7.91654 2.5C7.91887 2.5 7.9212 2.5 7.92353 2.5C7.92586 2.5 7.9282 2.5 7.93054 2.5C7.93288 2.5 7.93522 2.5 7.93757 2.5C7.93992 2.5 7.94227 2.5 7.94462 2.5C7.94697 2.5 7.94933 2.5 7.95169 2.5C7.95404 2.5 7.95641 2.5 7.95877 2.5C7.96114 2.5 7.96351 2.5 7.96588 2.5C7.96825 2.5 7.97062 2.5 7.973 2.5C7.97538 2.5 7.97776 2.5 7.98014 2.5C7.98253 2.5 7.98491 2.5 7.9873 2.5C7.98969 2.5 7.99209 2.5 7.99448 2.5C7.99688 2.5 7.99928 2.5 8.00168 2.5C8.00408 2.5 8.00649 2.5 8.0089 2.5C8.0113 2.5 8.01371 2.5 8.01613 2.5C8.01854 2.5 8.02096 2.5 8.02338 2.5C8.0258 2.5 8.02823 2.5 8.03065 2.5C8.03308 2.5 8.03551 2.5 8.03794 2.5C8.04037 2.5 8.04281 2.5 8.04525 2.5C8.04768 2.5 8.05013 2.5 8.05257 2.5C8.05501 2.5 8.05746 2.5 8.05991 2.5C8.06236 2.5 8.06482 2.5 8.06727 2.5C8.06973 2.5 8.07219 2.5 8.07465 2.5C8.07711 2.5 8.07958 2.5 8.08204 2.5C8.08451 2.5 8.08698 2.5 8.08946 2.5C8.09193 2.5 8.09441 2.5 8.09688 2.5C8.09936 2.5 8.10185 2.5 8.10433 2.5C8.10682 2.5 8.1093 2.5 8.1118 2.5C8.11429 2.5 8.11678 2.5 8.11928 2.5C8.12177 2.5 8.12427 2.5 8.12677 2.5C8.12928 2.5 8.13178 2.5 8.13429 2.5C8.1368 2.5 8.13931 2.5 8.14182 2.5C8.14434 2.5 8.14685 2.5 8.14937 2.5C8.15189 2.5 8.15441 2.5 8.15694 2.5C8.15946 2.5 8.16199 2.5 8.16452 2.5C8.16705 2.5 8.16958 2.5 8.17212 2.5C8.17465 2.5 8.17719 2.5 8.17973 2.5C8.18228 2.5 8.18482 2.5 8.18737 2.5C8.18991 2.5 8.19246 2.5 8.19501 2.5C8.19757 2.5 8.20012 2.5 8.20268 2.5C8.20524 2.5 8.2078 2.5 8.21036 2.5C8.21292 2.5 8.21549 2.5 8.21806 2.5C8.22063 2.5 8.2232 2.5 8.22577 2.5C8.22834 2.5 8.23092 2.5 8.2335 2.5C8.23608 2.5 8.23866 2.5 8.24124 2.5C8.24383 2.5 8.24642 2.5 8.24901 2.5C8.2516 2.5 8.25419 2.5 8.25678 2.5C8.25938 2.5 8.26197 2.5 8.26457 2.5C8.26717 2.5 8.26978 2.5 8.27238 2.5C8.27499 2.5 8.2776 2.5 8.28021 2.5C8.28282 2.5 8.28543 2.5 8.28805 2.5C8.29066 2.5 8.29328 2.5 8.2959 2.5C8.29852 2.5 8.30114 2.5 8.30377 2.5C8.3064 2.5 8.30902 2.5 8.31165 2.5C8.31429 2.5 8.31692 2.5 8.31955 2.5C8.32219 2.5 8.32483 2.5 8.32747 2.5C8.33011 2.5 8.33275 2.5 8.3354 2.5C8.33805 2.5 8.34069 2.5 8.34335 2.5C8.346 2.5 8.34865 2.5 8.35131 2.5C8.35396 2.5 8.35662 2.5 8.35928 2.5C8.36194 2.5 8.3646 2.5 8.36727 2.5C8.36993 2.5 8.3726 2.5 8.37527 2.5C8.37794 2.5 8.38062 2.5 8.38329 2.5C8.38597 2.5 8.38864 2.5 8.39132 2.5C8.394 2.5 8.39669 2.5 8.39937 2.5C8.40206 2.5 8.40474 2.5 8.40743 2.5C8.41012 2.5 8.41282 2.5 8.41551 2.5C8.4182 2.5 8.4209 2.5 8.4236 2.5C8.4263 2.5 8.429 2.5 8.4317 2.5C8.43441 2.5 8.43711 2.5 8.43982 2.5C8.44253 2.5 8.44524 2.5 8.44795 2.5C8.45067 2.5 8.45338 2.5 8.4561 2.5C8.45882 2.5 8.46154 2.5 8.46426 2.5C8.46698 2.5 8.46971 2.5 8.47243 2.5C8.47516 2.5 8.47789 2.5 8.48062 2.5C8.48335 2.5 8.48608 2.5 8.48882 2.5C8.49156 2.5 8.49429 2.5 8.49703 2.5C8.49977 2.5 8.50252 2.5 8.50526 2.5C8.50801 2.5 8.51075 2.5 8.5135 2.5C8.51625 2.5 8.519 2.5 8.52176 2.5C8.52451 2.5 8.52727 2.5 8.53002 2.5C8.53278 2.5 8.53554 2.5 8.5383 2.5C8.54107 2.5 8.54383 2.5 8.5466 2.5C8.54936 2.5 8.55213 2.5 8.5549 2.5C8.55767 2.5 8.56045 2.5 8.56322 2.5C8.566 2.5 8.56877 2.5 8.57155 2.5C8.57433 2.5 8.57711 2.5 8.5799 2.5C8.58268 2.5 8.58547 2.5 8.58826 2.5C8.59104 2.5 8.59383 2.5 8.59662 2.5C8.59942 2.5 8.60221 2.5 8.60501 2.5C8.6078 2.5 8.6106 2.5 8.6134 2.5C8.6162 2.5 8.619 2.5 8.62181 2.5C8.62461 2.5 8.62742 2.5 8.63023 2.5C8.63303 2.5 8.63585 2.5 8.63866 2.5C8.64147 2.5 8.64428 2.5 8.6471 2.5C8.64992 2.5 8.65274 2.5 8.65556 2.5C8.65838 2.5 8.6612 2.5 8.66402 2.5C8.66685 2.5 8.66967 2.5 8.6725 2.5C8.67533 2.5 8.67816 2.5 8.68099 2.5C8.68382 2.5 8.68666 2.5 8.68949 2.5C8.69233 2.5 8.69517 2.5 8.69801 2.5C8.70085 2.5 8.70369 2.5 8.70653 2.5C8.70938 2.5 8.71222 2.5 8.71507 2.5C8.71792 2.5 8.72077 2.5 8.72362 2.5C8.72647 2.5 8.72932 2.5 8.73218 2.5C8.73503 2.5 8.73789 2.5 8.74075 2.5C8.74361 2.5 8.74647 2.5 8.74933 2.5C8.75219 2.5 8.75506 2.5 8.75793 2.5C8.76079 2.5 8.76366 2.5 8.76653 2.5C8.7694 2.5 8.77227 2.5 8.77514 2.5C8.77802 2.5 8.78089 2.5 8.78377 2.5C8.78665 2.5 8.78953 2.5 8.79241 2.5C8.79529 2.5 8.79817 2.5 8.80105 2.5C8.80394 2.5 8.80682 2.5 8.80971 2.5C8.8126 2.5 8.81549 2.5 8.81838 2.5C8.82127 2.5 8.82416 2.5 8.82706 2.5C8.82995 2.5 8.83285 2.5 8.83575 2.5C8.83865 2.5 8.84155 2.5 8.84445 2.5C8.84735 2.5 8.85025 2.5 8.85316 2.5C8.85606 2.5 8.85897 2.5 8.86188 2.5C8.86479 2.5 8.8677 2.5 8.87061 2.5C8.87352 2.5 8.87643 2.5 8.87935 2.5C8.88226 2.5 8.88518 2.5 8.8881 2.5C8.89102 2.5 8.89394 2.5 8.89686 2.5C8.89978 2.5 8.9027 2.5 8.90563 2.5C8.90855 2.5 8.91148 2.5 8.91441 2.5C8.91734 2.5 8.92026 2.5 8.9232 2.5C8.92613 2.5 8.92906 2.5 8.93199 2.5C8.93493 2.5 8.93787 2.5 8.9408 2.5C8.94374 2.5 8.94668 2.5 8.94962 2.5C8.95256 2.5 8.9555 2.5 8.95845 2.5C8.96139 2.5 8.96434 2.5 8.96728 2.5C8.97023 2.5 8.97318 2.5 8.97613 2.5C8.97908 2.5 8.98203 2.5 8.98498 2.5C8.98793 2.5 8.99089 2.5 8.99384 2.5C8.9968 2.5 8.99976 2.5 9.00272 2.5C9.00568 2.5 9.00864 2.5 9.0116 2.5C9.01456 2.5 9.01752 2.5 9.02049 2.5C9.02345 2.5 9.02642 2.5 9.02939 2.5C9.03235 2.5 9.03532 2.5 9.03829 2.5C9.04126 2.5 9.04423 2.5 9.04721 2.5C9.05018 2.5 9.05316 2.5 9.05613 2.5C9.05911 2.5 9.06209 2.5 9.06506 2.5C9.06804 2.5 9.07102 2.5 9.074 2.5C9.07699 2.5 9.07997 2.5 9.08295 2.5C9.08594 2.5 9.08892 2.5 9.09191 2.5C9.0949 2.5 9.09789 2.5 9.10088 2.5C9.10387 2.5 9.10686 2.5 9.10985 2.5C9.11284 2.5 9.11583 2.5 9.11883 2.5C9.12182 2.5 9.12482 2.5 9.12782 2.5C9.13082 2.5 9.13381 2.5 9.13682 2.5C9.13982 2.5 9.14282 2.5 9.14582 2.5C9.14882 2.5 9.15183 2.5 9.15483 2.5C9.15784 2.5 9.16084 2.5 9.16385 2.5C9.16686 2.5 9.16987 2.5 9.17288 2.5C9.17589 2.5 9.1789 2.5 9.18191 2.5C9.18492 2.5 9.18794 2.5 9.19095 2.5C9.19397 2.5 9.19698 2.5 9.2 2.5C9.20302 2.5 9.20604 2.5 9.20906 2.5C9.21208 2.5 9.2151 2.5 9.21812 2.5C9.22114 2.5 9.22417 2.5 9.22719 2.5C9.23022 2.5 9.23324 2.5 9.23627 2.5C9.2393 2.5 9.24232 2.5 9.24535 2.5C9.24838 2.5 9.25141 2.5 9.25444 2.5C9.25747 2.5 9.26051 2.5 9.26354 2.5C9.26657 2.5 9.26961 2.5 9.27264 2.5C9.27568 2.5 9.27872 2.5 9.28175 2.5C9.28479 2.5 9.28783 2.5 9.29087 2.5C9.29391 2.5 9.29695 2.5 9.29999 2.5C9.30304 2.5 9.30608 2.5 9.30912 2.5C9.31217 2.5 9.31521 2.5 9.31826 2.5C9.32131 2.5 9.32435 2.5 9.3274 2.5C9.33045 2.5 9.3335 2.5 9.33655 2.5C9.3396 2.5 9.34265 2.5 9.3457 2.5C9.34876 2.5 9.35181 2.5 9.35486 2.5C9.35792 2.5 9.36097 2.5 9.36403 2.5C9.36709 2.5 9.37014 2.5 9.3732 2.5C9.37626 2.5 9.37932 2.5 9.38238 2.5C9.38544 2.5 9.3885 2.5 9.39156 2.5C9.39462 2.5 9.39769 2.5 9.40075 2.5C9.40381 2.5 9.40688 2.5 9.40994 2.5C9.41301 2.5 9.41608 2.5 9.41914 2.5C9.42221 2.5 9.42528 2.5 9.42835 2.5C9.43142 2.5 9.43449 2.5 9.43756 2.5C9.44063 2.5 9.4437 2.5 9.44677 2.5C9.44985 2.5 9.45292 2.5 9.45599 2.5C9.45907 2.5 9.46214 2.5 9.46522 2.5C9.46829 2.5 9.47137 2.5 9.47445 2.5C9.47753 2.5 9.4806 2.5 9.48368 2.5C9.48676 2.5 9.48984 2.5 9.49292 2.5C9.496 2.5 9.49908 2.5 9.50217 2.5C9.50525 2.5 9.50833 2.5 9.51142 2.5C9.5145 2.5 9.51758 2.5 9.52067 2.5C9.52375 2.5 9.52684 2.5 9.52993 2.5C9.53301 2.5 9.5361 2.5 9.53919 2.5C9.54228 2.5 9.54537 2.5 9.54846 2.5C9.55154 2.5 9.55464 2.5 9.55773 2.5C9.56082 2.5 9.56391 2.5 9.567 2.5C9.57009 2.5 9.57319 2.5 9.57628 2.5C9.57937 2.5 9.58247 2.5 9.58556 2.5C9.58866 2.5 9.59175 2.5 9.59485 2.5C9.59795 2.5 9.60104 2.5 9.60414 2.5C9.60724 2.5 9.61034 2.5 9.61344 2.5C9.61653 2.5 9.61963 2.5 9.62273 2.5C9.62583 2.5 9.62893 2.5 9.63204 2.5C9.63514 2.5 9.63824 2.5 9.64134 2.5C9.64444 2.5 9.64755 2.5 9.65065 2.5C9.65375 2.5 9.65686 2.5 9.65996 2.5C9.66307 2.5 9.66617 2.5 9.66928 2.5C9.67238 2.5 9.67549 2.5 9.6786 2.5C9.6817 2.5 9.68481 2.5 9.68792 2.5C9.69103 2.5 9.69413 2.5 9.69724 2.5C9.70035 2.5 9.70346 2.5 9.70657 2.5C9.70968 2.5 9.71279 2.5 9.7159 2.5C9.71901 2.5 9.72212 2.5 9.72524 2.5C9.72835 2.5 9.73146 2.5 9.73457 2.5C9.73769 2.5 9.7408 2.5 9.74391 2.5C9.74703 2.5 9.75014 2.5 9.75325 2.5C9.75637 2.5 9.75948 2.5 9.7626 2.5C9.76571 2.5 9.76883 2.5 9.77195 2.5C9.77506 2.5 9.77818 2.5 9.78129 2.5C9.78441 2.5 9.78753 2.5 9.79065 2.5C9.79376 2.5 9.79688 2.5 9.8 2.5C9.80312 2.5 9.80624 2.5 9.80936 2.5C9.81247 2.5 9.81559 2.5 9.81871 2.5C9.82183 2.5 9.82495 2.5 9.82807 2.5C9.83119 2.5 9.83432 2.5 9.83744 2.5C9.84056 2.5 9.84368 2.5 9.8468 2.5C9.84992 2.5 9.85304 2.5 9.85617 2.5C9.85929 2.5 9.86241 2.5 9.86553 2.5C9.86866 2.5 9.87178 2.5 9.8749 2.5C9.87802 2.5 9.88115 2.5 9.88427 2.5C9.8874 2.5 9.89052 2.5 9.89364 2.5C9.89677 2.5 9.89989 2.5 9.90302 2.5C9.90614 2.5 9.90927 2.5 9.91239 2.5C9.91552 2.5 9.91864 2.5 9.92177 2.5C9.92489 2.5 9.92802 2.5 9.93114 2.5C9.93427 2.5 9.9374 2.5 9.94052 2.5C9.94365 2.5 9.94677 2.5 9.9499 2.5C9.95303 2.5 9.95615 2.5 9.95928 2.5C9.96241 2.5 9.96554 2.5 9.96866 2.5C9.97179 2.5 9.97492 2.5 9.97804 2.5C9.98117 2.5 9.9843 2.5 9.98743 2.5C9.99055 2.5 9.99368 2.5 9.99681 2.5C9.99994 2.5 10.0031 2.5 10.0062 2.5C10.0093 2.5 10.0124 2.5 10.0156 2.5C10.0187 2.5 10.0218 2.5 10.025 2.5C10.0281 2.5 10.0312 2.5 10.0343 2.5C10.0375 2.5 10.0406 2.5 10.0437 2.5C10.0469 2.5 10.05 2.5 10.0531 2.5C10.0562 2.5 10.0594 2.5 10.0625 2.5C10.0656 2.5 10.0688 2.5 10.0719 2.5C10.075 2.5 10.0781 2.5 10.0813 2.5C10.0844 2.5 10.0875 2.5 10.0907 2.5C10.0938 2.5 10.0969 2.5 10.1 2.5C10.1032 2.5 10.1063 2.5 10.1094 2.5C10.1126 2.5 10.1157 2.5 10.1188 2.5C10.1219 2.5 10.1251 2.5 10.1282 2.5C10.1313 2.5 10.1344 2.5 10.1376 2.5C10.1407 2.5 10.1438 2.5 10.147 2.5C10.1501 2.5 10.1532 2.5 10.1563 2.5C10.1595 2.5 10.1626 2.5 10.1657 2.5C10.1688 2.5 10.172 2.5 10.1751 2.5C10.1782 2.5 10.1814 2.5 10.1845 2.5C10.1876 2.5 10.1907 2.5 10.1939 2.5C10.197 2.5 10.2001 2.5 10.2032 2.5C10.2064 2.5 10.2095 2.5 10.2126 2.5C10.2157 2.5 10.2189 2.5 10.222 2.5C10.2251 2.5 10.2282 2.5 10.2314 2.5C10.2345 2.5 10.2376 2.5 10.2407 2.5C10.2439 2.5 10.247 2.5 10.2501 2.5C10.2532 2.5 10.2563 2.5 10.2595 2.5C10.2626 2.5 10.2657 2.5 10.2688 2.5C10.272 2.5 10.2751 2.5 10.2782 2.5C10.2813 2.5 10.2844 2.5 10.2876 2.5C10.2907 2.5 10.2938 2.5 10.2969 2.5C10.3 2.5 10.3032 2.5 10.3063 2.5C10.3094 2.5 10.3125 2.5 10.3156 2.5C10.3188 2.5 10.3219 2.5 10.325 2.5C10.3281 2.5 10.3312 2.5 10.3344 2.5C10.3375 2.5 10.3406 2.5 10.3437 2.5C10.3468 2.5 10.3499 2.5 10.3531 2.5C10.3562 2.5 10.3593 2.5 10.3624 2.5C10.3655 2.5 10.3686 2.5 10.3717 2.5C10.3749 2.5 10.378 2.5 10.3811 2.5C10.3842 2.5 10.3873 2.5 10.3904 2.5C10.3935 2.5 10.3967 2.5 10.3998 2.5C10.4029 2.5 10.406 2.5 10.4091 2.5C10.4122 2.5 10.4153 2.5 10.4184 2.5C10.4215 2.5 10.4246 2.5 10.4278 2.5C10.4309 2.5 10.434 2.5 10.4371 2.5C10.4402 2.5 10.4433 2.5 10.4464 2.5C10.4495 2.5 10.4526 2.5 10.4557 2.5C10.4588 2.5 10.4619 2.5 10.465 2.5C10.4681 2.5 10.4712 2.5 10.4743 2.5C10.4775 2.5 10.4806 2.5 10.4837 2.5C10.4868 2.5 10.4899 2.5 10.493 2.5C10.4961 2.5 10.4992 2.5 10.5023 2.5C10.5054 2.5 10.5085 2.5 10.5116 2.5C10.5147 2.5 10.5178 2.5 10.5209 2.5C10.524 2.5 10.5271 2.5 10.5301 2.5C10.5332 2.5 10.5363 2.5 10.5394 2.5C10.5425 2.5 10.5456 2.5 10.5487 2.5C10.5518 2.5 10.5549 2.5 10.558 2.5C10.5611 2.5 10.5642 2.5 10.5673 2.5C10.5704 2.5 10.5735 2.5 10.5765 2.5C10.5796 2.5 10.5827 2.5 10.5858 2.5C10.5889 2.5 10.592 2.5 10.5951 2.5C10.5982 2.5 10.6012 2.5 10.6043 2.5C10.6074 2.5 10.6105 2.5 10.6136 2.5C10.6167 2.5 10.6198 2.5 10.6228 2.5C10.6259 2.5 10.629 2.5 10.6321 2.5C10.6352 2.5 10.6382 2.5 10.6413 2.5C10.6444 2.5 10.6475 2.5 10.6506 2.5C10.6536 2.5 10.6567 2.5 10.6598 2.5C10.6629 2.5 10.6659 2.5 10.669 2.5C10.6721 2.5 10.6752 2.5 10.6782 2.5C10.6813 2.5 10.6844 2.5 10.6874 2.5C10.6905 2.5 10.6936 2.5 10.6967 2.5C10.6997 2.5 10.7028 2.5 10.7059 2.5C10.7089 2.5 10.712 2.5 10.7151 2.5C10.7181 2.5 10.7212 2.5 10.7242 2.5C10.7273 2.5 10.7304 2.5 10.7334 2.5C10.7365 2.5 10.7396 2.5 10.7426 2.5C10.7457 2.5 10.7487 2.5 10.7518 2.5C10.7549 2.5 10.7579 2.5 10.761 2.5C10.764 2.5 10.7671 2.5 10.7701 2.5C10.7732 2.5 10.7762 2.5 10.7793 2.5C10.7823 2.5 10.7854 2.5 10.7884 2.5C10.7915 2.5 10.7945 2.5 10.7976 2.5C10.8006 2.5 10.8037 2.5 10.8067 2.5C10.8098 2.5 10.8128 2.5 10.8159 2.5C10.8189 2.5 10.822 2.5 10.825 2.5C10.828 2.5 10.8311 2.5 10.8341 2.5C10.8372 2.5 10.8402 2.5 10.8432 2.5C10.8463 2.5 10.8493 2.5 10.8524 2.5C10.8554 2.5 10.8584 2.5 10.8615 2.5C10.8645 2.5 10.8675 2.5 10.8706 2.5C10.8736 2.5 10.8766 2.5 10.8796 2.5C10.8827 2.5 10.8857 2.5 10.8887 2.5C10.8918 2.5 10.8948 2.5 10.8978 2.5C10.9008 2.5 10.9039 2.5 10.9069 2.5C10.9099 2.5 10.9129 2.5 10.9159 2.5C10.919 2.5 10.922 2.5 10.925 2.5C10.928 2.5 10.931 2.5 10.934 2.5C10.9371 2.5 10.9401 2.5 10.9431 2.5C10.9461 2.5 10.9491 2.5 10.9521 2.5C10.9551 2.5 10.9581 2.5 10.9611 2.5C10.9642 2.5 10.9672 2.5 10.9702 2.5C10.9732 2.5 10.9762 2.5 10.9792 2.5C10.9822 2.5 10.9852 2.5 10.9882 2.5C10.9912 2.5 10.9942 2.5 10.9972 2.5C11.0002 2.5 11.0032 2.5 11.0062 2.5C11.0092 2.5 11.0122 2.5 11.0152 2.5C11.0181 2.5 11.0211 2.5 11.0241 2.5C11.0271 2.5 11.0301 2.5 11.0331 2.5C11.0361 2.5 11.0391 2.5 11.042 2.5C11.045 2.5 11.048 2.5 11.051 2.5C11.054 2.5 11.057 2.5 11.0599 2.5C11.0629 2.5 11.0659 2.5 11.0689 2.5C11.0718 2.5 11.0748 2.5 11.0778 2.5C11.0808 2.5 11.0837 2.5 11.0867 2.5C11.0897 2.5 11.0926 2.5 11.0956 2.5C11.0986 2.5 11.1015 2.5 11.1045 2.5C11.1075 2.5 11.1104 2.5 11.1134 2.5C11.1164 2.5 11.1193 2.5 11.1223 2.5C11.1252 2.5 11.1282 2.5 11.1312 2.5C11.1341 2.5 11.1371 2.5 11.14 2.5C11.143 2.5 11.1459 2.5 11.1489 2.5C11.1518 2.5 11.1548 2.5 11.1577 2.5C11.1607 2.5 11.1636 2.5 11.1666 2.5C11.1695 2.5 11.1724 2.5 11.1754 2.5C11.1783 2.5 11.1813 2.5 11.1842 2.5C11.1871 2.5 11.1901 2.5 11.193 2.5C11.1959 2.5 11.1989 2.5 11.2018 2.5C11.2047 2.5 11.2077 2.5 11.2106 2.5C11.2135 2.5 11.2164 2.5 11.2194 2.5C11.2223 2.5 11.2252 2.5 11.2281 2.5C11.2311 2.5 11.234 2.5 11.2369 2.5C11.2398 2.5 11.2427 2.5 11.2457 2.5C11.2486 2.5 11.2515 2.5 11.2544 2.5C11.2573 2.5 11.2602 2.5 11.2631 2.5C11.266 2.5 11.2689 2.5 11.2718 2.5C11.2747 2.5 11.2776 2.5 11.2806 2.5C11.2835 2.5 11.2864 2.5 11.2893 2.5C11.2921 2.5 11.295 2.5 11.2979 2.5C11.3008 2.5 11.3037 2.5 11.3066 2.5C11.3095 2.5 11.3124 2.5 11.3153 2.5C11.3182 2.5 11.3211 2.5 11.3239 2.5C11.3268 2.5 11.3297 2.5 11.3326 2.5C11.3355 2.5 11.3384 2.5 11.3412 2.5C11.3441 2.5 11.347 2.5 11.3499 2.5C11.3527 2.5 11.3556 2.5 11.3585 2.5C11.3613 2.5 11.3642 2.5 11.3671 2.5C11.3699 2.5 11.3728 2.5 11.3757 2.5C11.3785 2.5 11.3814 2.5 11.3842 2.5C11.3871 2.5 11.39 2.5 11.3928 2.5C11.3957 2.5 11.3985 2.5 11.4014 2.5C11.4042 2.5 11.4071 2.5 11.4099 2.5C11.4128 2.5 11.4156 2.5 11.4185 2.5C11.4213 2.5 11.4242 2.5 11.427 2.5C11.4298 2.5 11.4327 2.5 11.4355 2.5C11.4383 2.5 11.4412 2.5 11.444 2.5C11.4468 2.5 11.4497 2.5 11.4525 2.5C11.4553 2.5 11.4582 2.5 11.461 2.5C11.4638 2.5 11.4666 2.5 11.4694 2.5C11.4723 2.5 11.4751 2.5 11.4779 2.5C11.4807 2.5 11.4835 2.5 11.4863 2.5C11.4892 2.5 11.492 2.5 11.4948 2.5C11.4976 2.5 11.5004 2.5 11.5032 2.5C11.506 2.5 11.5088 2.5 11.5116 2.5C11.5144 2.5 11.5172 2.5 11.52 2.5C11.5228 2.5 11.5256 2.5 11.5284 2.5C11.5312 2.5 11.534 2.5 11.5367 2.5C11.5395 2.5 11.5423 2.5 11.5451 2.5C11.5479 2.5 11.5507 2.5 11.5534 2.5C11.5562 2.5 11.559 2.5 11.5618 2.5C11.5646 2.5 11.5673 2.5 11.5701 2.5C11.5729 2.5 11.5756 2.5 11.5784 2.5C11.5812 2.5 11.5839 2.5 11.5867 2.5C11.5895 2.5 11.5922 2.5 11.595 2.5C11.5977 2.5 11.6005 2.5 11.6032 2.5C11.606 2.5 11.6087 2.5 11.6115 2.5C11.6142 2.5 11.617 2.5 11.6197 2.5C11.6225 2.5 11.6252 2.5 11.628 2.5C11.6307 2.5 11.6334 2.5 11.6362 2.5C11.6389 2.5 11.6416 2.5 11.6444 2.5C11.6471 2.5 11.6498 2.5 11.6526 2.5C11.6553 2.5 11.658 2.5 11.6607 2.5C11.6635 2.5 11.6662 2.5 11.6689 2.5C11.6716 2.5 11.6743 2.5 11.677 2.5C11.6798 2.5 11.6825 2.5 11.6852 2.5C11.6879 2.5 11.6906 2.5 11.6933 2.5C11.696 2.5 11.6987 2.5 11.7014 2.5C11.7041 2.5 11.7068 2.5 11.7095 2.5C11.7122 2.5 11.7149 2.5 11.7176 2.5C11.7203 2.5 11.7229 2.5 11.7256 2.5C11.7283 2.5 11.731 2.5 11.7337 2.5C11.7364 2.5 11.739 2.5 11.7417 2.5C11.7444 2.5 11.7471 2.5 11.7497 2.5C11.7524 2.5 11.7551 2.5 11.7577 2.5C11.7604 2.5 11.7631 2.5 11.7657 2.5C11.7684 2.5 11.771 2.5 11.7737 2.5C11.7764 2.5 11.779 2.5 11.7817 2.5C11.7843 2.5 11.787 2.5 11.7896 2.5C11.7922 2.5 11.7949 2.5 11.7975 2.5C11.8002 2.5 11.8028 2.5 11.8054 2.5C11.8081 2.5 11.8107 2.5 11.8133 2.5C11.816 2.5 11.8186 2.5 11.8212 2.5C11.8239 2.5 11.8265 2.5 11.8291 2.5C11.8317 2.5 11.8343 2.5 11.837 2.5C11.8396 2.5 11.8422 2.5 11.8448 2.5C11.8474 2.5 11.85 2.5 11.8526 2.5C11.8552 2.5 11.8578 2.5 11.8604 2.5C11.863 2.5 11.8656 2.5 11.8682 2.5C11.8708 2.5 11.8734 2.5 11.876 2.5C11.8786 2.5 11.8812 2.5 11.8838 2.5C11.8863 2.5 11.8889 2.5 11.8915 2.5C11.8941 2.5 11.8967 2.5 11.8992 2.5C11.9018 2.5 11.9044 2.5 11.9069 2.5C11.9095 2.5 11.9121 2.5 11.9146 2.5C11.9172 2.5 11.9198 2.5 11.9223 2.5C11.9249 2.5 11.9274 2.5 11.93 2.5C11.9325 2.5 11.9351 2.5 11.9376 2.5C11.9402 2.5 11.9427 2.5 11.9453 2.5C11.9478 2.5 11.9503 2.5 11.9529 2.5C11.9554 2.5 11.958 2.5 11.9605 2.5C11.963 2.5 11.9655 2.5 11.9681 2.5C11.9706 2.5 11.9731 2.5 11.9756 2.5C11.9781 2.5 11.9807 2.5 11.9832 2.5C11.9857 2.5 11.9882 2.5 11.9907 2.5C11.9932 2.5 11.9957 2.5 11.9982 2.5C12.0007 2.5 12.0032 2.5 12.0057 2.5C12.0082 2.5 12.0107 2.5 12.0132 2.5C12.0157 2.5 12.0182 2.5 12.0207 2.5C12.0232 2.5 12.0256 2.5 12.0281 2.5C12.0306 2.5 12.0331 2.5 12.0355 2.5C12.038 2.5 12.0405 2.5 12.043 2.5C12.0454 2.5 12.0479 2.5 12.0504 2.5C12.0528 2.5 12.0553 2.5 12.0577 2.5C12.0602 2.5 12.0626 2.5 12.0651 2.5C12.0675 2.5 12.07 2.5 12.0724 2.5C12.0749 2.5 12.0773 2.5 12.0798 2.5C12.0822 2.5 12.0846 2.5 12.0871 2.5C12.0895 2.5 12.0919 2.5 12.0943 2.5C12.0968 2.5 12.0992 2.5 12.1016 2.5C12.104 2.5 12.1065 2.5 12.1089 2.5C12.1113 2.5 12.1137 2.5 12.1161 2.5C12.1185 2.5 12.1209 2.5 12.1233 2.5C12.1257 2.5 12.1281 2.5 12.1305 2.5C12.1329 2.5 12.1353 2.5 12.1377 2.5C12.1401 2.5 12.1425 2.5 12.1449 2.5C12.1472 2.5 12.1496 2.5 12.152 2.5C12.1544 2.5 12.1568 2.5 12.1591 2.5C12.1615 2.5 12.1639 2.5 12.1662 2.5C12.1686 2.5 12.171 2.5 12.1733 2.5C12.1757 2.5 12.178 2.5 12.1804 2.5C12.1827 2.5 12.1851 2.5 12.1874 2.5C12.1898 2.5 12.1921 2.5 12.1945 2.5C12.1968 2.5 12.1991 2.5 12.2015 2.5C12.2038 2.5 12.2061 2.5 12.2085 2.5C12.2108 2.5 12.2131 2.5 12.2154 2.5C12.2178 2.5 12.2201 2.5 12.2224 2.5C12.2247 2.5 12.227 2.5 12.2293 2.5C12.2316 2.5 12.2339 2.5 12.2362 2.5C12.2385 2.5 12.2408 2.5 12.2431 2.5C12.2454 2.5 12.2477 2.5 12.25 2.5V1C12.2477 1 12.2454 1 12.2431 1C12.2408 1 12.2385 1 12.2362 1C12.2339 1 12.2316 1 12.2293 1C12.227 1 12.2247 1 12.2224 1C12.2201 1 12.2178 1 12.2154 1C12.2131 1 12.2108 1 12.2085 1C12.2061 1 12.2038 1 12.2015 1C12.1991 1 12.1968 1 12.1945 1C12.1921 1 12.1898 1 12.1874 1C12.1851 1 12.1827 1 12.1804 1C12.178 1 12.1757 1 12.1733 1C12.171 1 12.1686 1 12.1662 1C12.1639 1 12.1615 1 12.1591 1C12.1568 1 12.1544 1 12.152 1C12.1496 1 12.1472 1 12.1449 1C12.1425 1 12.1401 1 12.1377 1C12.1353 1 12.1329 1 12.1305 1C12.1281 1 12.1257 1 12.1233 1C12.1209 1 12.1185 1 12.1161 1C12.1137 1 12.1113 1 12.1089 1C12.1065 1 12.104 1 12.1016 1C12.0992 1 12.0968 1 12.0943 1C12.0919 1 12.0895 1 12.0871 1C12.0846 1 12.0822 1 12.0798 1C12.0773 1 12.0749 1 12.0724 1C12.07 1 12.0675 1 12.0651 1C12.0626 1 12.0602 1 12.0577 1C12.0553 1 12.0528 1 12.0504 1C12.0479 1 12.0454 1 12.043 1C12.0405 1 12.038 1 12.0355 1C12.0331 1 12.0306 1 12.0281 1C12.0256 1 12.0232 1 12.0207 1C12.0182 1 12.0157 1 12.0132 1C12.0107 1 12.0082 1 12.0057 1C12.0032 1 12.0007 1 11.9982 1C11.9957 1 11.9932 1 11.9907 1C11.9882 1 11.9857 1 11.9832 1C11.9807 1 11.9781 1 11.9756 1C11.9731 1 11.9706 1 11.9681 1C11.9655 1 11.963 1 11.9605 1C11.958 1 11.9554 1 11.9529 1C11.9503 1 11.9478 1 11.9453 1C11.9427 1 11.9402 1 11.9376 1C11.9351 1 11.9325 1 11.93 1C11.9274 1 11.9249 1 11.9223 1C11.9198 1 11.9172 1 11.9146 1C11.9121 1 11.9095 1 11.9069 1C11.9044 1 11.9018 1 11.8992 1C11.8967 1 11.8941 1 11.8915 1C11.8889 1 11.8863 1 11.8838 1C11.8812 1 11.8786 1 11.876 1C11.8734 1 11.8708 1 11.8682 1C11.8656 1 11.863 1 11.8604 1C11.8578 1 11.8552 1 11.8526 1C11.85 1 11.8474 1 11.8448 1C11.8422 1 11.8396 1 11.837 1C11.8343 1 11.8317 1 11.8291 1C11.8265 1 11.8239 1 11.8212 1C11.8186 1 11.816 1 11.8133 1C11.8107 1 11.8081 1 11.8054 1C11.8028 1 11.8002 1 11.7975 1C11.7949 1 11.7922 1 11.7896 1C11.787 1 11.7843 1 11.7817 1C11.779 1 11.7764 1 11.7737 1C11.771 1 11.7684 1 11.7657 1C11.7631 1 11.7604 1 11.7577 1C11.7551 1 11.7524 1 11.7497 1C11.7471 1 11.7444 1 11.7417 1C11.739 1 11.7364 1 11.7337 1C11.731 1 11.7283 1 11.7256 1C11.7229 1 11.7203 1 11.7176 1C11.7149 1 11.7122 1 11.7095 1C11.7068 1 11.7041 1 11.7014 1C11.6987 1 11.696 1 11.6933 1C11.6906 1 11.6879 1 11.6852 1C11.6825 1 11.6798 1 11.677 1C11.6743 1 11.6716 1 11.6689 1C11.6662 1 11.6635 1 11.6607 1C11.658 1 11.6553 1 11.6526 1C11.6498 1 11.6471 1 11.6444 1C11.6416 1 11.6389 1 11.6362 1C11.6334 1 11.6307 1 11.628 1C11.6252 1 11.6225 1 11.6197 1C11.617 1 11.6142 1 11.6115 1C11.6087 1 11.606 1 11.6032 1C11.6005 1 11.5977 1 11.595 1C11.5922 1 11.5895 1 11.5867 1C11.5839 1 11.5812 1 11.5784 1C11.5756 1 11.5729 1 11.5701 1C11.5673 1 11.5646 1 11.5618 1C11.559 1 11.5562 1 11.5534 1C11.5507 1 11.5479 1 11.5451 1C11.5423 1 11.5395 1 11.5367 1C11.534 1 11.5312 1 11.5284 1C11.5256 1 11.5228 1 11.52 1C11.5172 1 11.5144 1 11.5116 1C11.5088 1 11.506 1 11.5032 1C11.5004 1 11.4976 1 11.4948 1C11.492 1 11.4892 1 11.4863 1C11.4835 1 11.4807 1 11.4779 1C11.4751 1 11.4723 1 11.4694 1C11.4666 1 11.4638 1 11.461 1C11.4582 1 11.4553 1 11.4525 1C11.4497 1 11.4468 1 11.444 1C11.4412 1 11.4383 1 11.4355 1C11.4327 1 11.4298 1 11.427 1C11.4242 1 11.4213 1 11.4185 1C11.4156 1 11.4128 1 11.4099 1C11.4071 1 11.4042 1 11.4014 1C11.3985 1 11.3957 1 11.3928 1C11.39 1 11.3871 1 11.3842 1C11.3814 1 11.3785 1 11.3757 1C11.3728 1 11.3699 1 11.3671 1C11.3642 1 11.3613 1 11.3585 1C11.3556 1 11.3527 1 11.3499 1C11.347 1 11.3441 1 11.3412 1C11.3384 1 11.3355 1 11.3326 1C11.3297 1 11.3268 1 11.3239 1C11.3211 1 11.3182 1 11.3153 1C11.3124 1 11.3095 1 11.3066 1C11.3037 1 11.3008 1 11.2979 1C11.295 1 11.2921 1 11.2893 1C11.2864 1 11.2835 1 11.2806 1C11.2776 1 11.2747 1 11.2718 1C11.2689 1 11.266 1 11.2631 1C11.2602 1 11.2573 1 11.2544 1C11.2515 1 11.2486 1 11.2457 1C11.2427 1 11.2398 1 11.2369 1C11.234 1 11.2311 1 11.2281 1C11.2252 1 11.2223 1 11.2194 1C11.2164 1 11.2135 1 11.2106 1C11.2077 1 11.2047 1 11.2018 1C11.1989 1 11.1959 1 11.193 1C11.1901 1 11.1871 1 11.1842 1C11.1813 1 11.1783 1 11.1754 1C11.1724 1 11.1695 1 11.1666 1C11.1636 1 11.1607 1 11.1577 1C11.1548 1 11.1518 1 11.1489 1C11.1459 1 11.143 1 11.14 1C11.1371 1 11.1341 1 11.1312 1C11.1282 1 11.1252 1 11.1223 1C11.1193 1 11.1164 1 11.1134 1C11.1104 1 11.1075 1 11.1045 1C11.1015 1 11.0986 1 11.0956 1C11.0926 1 11.0897 1 11.0867 1C11.0837 1 11.0808 1 11.0778 1C11.0748 1 11.0718 1 11.0689 1C11.0659 1 11.0629 1 11.0599 1C11.057 1 11.054 1 11.051 1C11.048 1 11.045 1 11.042 1C11.0391 1 11.0361 1 11.0331 1C11.0301 1 11.0271 1 11.0241 1C11.0211 1 11.0181 1 11.0152 1C11.0122 1 11.0092 1 11.0062 1C11.0032 1 11.0002 1 10.9972 1C10.9942 1 10.9912 1 10.9882 1C10.9852 1 10.9822 1 10.9792 1C10.9762 1 10.9732 1 10.9702 1C10.9672 1 10.9642 1 10.9611 1C10.9581 1 10.9551 1 10.9521 1C10.9491 1 10.9461 1 10.9431 1C10.9401 1 10.9371 1 10.934 1C10.931 1 10.928 1 10.925 1C10.922 1 10.919 1 10.9159 1C10.9129 1 10.9099 1 10.9069 1C10.9039 1 10.9008 1 10.8978 1C10.8948 1 10.8918 1 10.8887 1C10.8857 1 10.8827 1 10.8796 1C10.8766 1 10.8736 1 10.8706 1C10.8675 1 10.8645 1 10.8615 1C10.8584 1 10.8554 1 10.8524 1C10.8493 1 10.8463 1 10.8432 1C10.8402 1 10.8372 1 10.8341 1C10.8311 1 10.828 1 10.825 1C10.822 1 10.8189 1 10.8159 1C10.8128 1 10.8098 1 10.8067 1C10.8037 1 10.8006 1 10.7976 1C10.7945 1 10.7915 1 10.7884 1C10.7854 1 10.7823 1 10.7793 1C10.7762 1 10.7732 1 10.7701 1C10.7671 1 10.764 1 10.761 1C10.7579 1 10.7549 1 10.7518 1C10.7487 1 10.7457 1 10.7426 1C10.7396 1 10.7365 1 10.7334 1C10.7304 1 10.7273 1 10.7242 1C10.7212 1 10.7181 1 10.7151 1C10.712 1 10.7089 1 10.7059 1C10.7028 1 10.6997 1 10.6967 1C10.6936 1 10.6905 1 10.6874 1C10.6844 1 10.6813 1 10.6782 1C10.6752 1 10.6721 1 10.669 1C10.6659 1 10.6629 1 10.6598 1C10.6567 1 10.6536 1 10.6506 1C10.6475 1 10.6444 1 10.6413 1C10.6382 1 10.6352 1 10.6321 1C10.629 1 10.6259 1 10.6228 1C10.6198 1 10.6167 1 10.6136 1C10.6105 1 10.6074 1 10.6043 1C10.6012 1 10.5982 1 10.5951 1C10.592 1 10.5889 1 10.5858 1C10.5827 1 10.5796 1 10.5765 1C10.5735 1 10.5704 1 10.5673 1C10.5642 1 10.5611 1 10.558 1C10.5549 1 10.5518 1 10.5487 1C10.5456 1 10.5425 1 10.5394 1C10.5363 1 10.5332 1 10.5301 1C10.5271 1 10.524 1 10.5209 1C10.5178 1 10.5147 1 10.5116 1C10.5085 1 10.5054 1 10.5023 1C10.4992 1 10.4961 1 10.493 1C10.4899 1 10.4868 1 10.4837 1C10.4806 1 10.4775 1 10.4743 1C10.4712 1 10.4681 1 10.465 1C10.4619 1 10.4588 1 10.4557 1C10.4526 1 10.4495 1 10.4464 1C10.4433 1 10.4402 1 10.4371 1C10.434 1 10.4309 1 10.4278 1C10.4246 1 10.4215 1 10.4184 1C10.4153 1 10.4122 1 10.4091 1C10.406 1 10.4029 1 10.3998 1C10.3967 1 10.3935 1 10.3904 1C10.3873 1 10.3842 1 10.3811 1C10.378 1 10.3749 1 10.3717 1C10.3686 1 10.3655 1 10.3624 1C10.3593 1 10.3562 1 10.3531 1C10.3499 1 10.3468 1 10.3437 1C10.3406 1 10.3375 1 10.3344 1C10.3312 1 10.3281 1 10.325 1C10.3219 1 10.3188 1 10.3156 1C10.3125 1 10.3094 1 10.3063 1C10.3032 1 10.3 1 10.2969 1C10.2938 1 10.2907 1 10.2876 1C10.2844 1 10.2813 1 10.2782 1C10.2751 1 10.272 1 10.2688 1C10.2657 1 10.2626 1 10.2595 1C10.2563 1 10.2532 1 10.2501 1C10.247 1 10.2439 1 10.2407 1C10.2376 1 10.2345 1 10.2314 1C10.2282 1 10.2251 1 10.222 1C10.2189 1 10.2157 1 10.2126 1C10.2095 1 10.2064 1 10.2032 1C10.2001 1 10.197 1 10.1939 1C10.1907 1 10.1876 1 10.1845 1C10.1814 1 10.1782 1 10.1751 1C10.172 1 10.1688 1 10.1657 1C10.1626 1 10.1595 1 10.1563 1C10.1532 1 10.1501 1 10.147 1C10.1438 1 10.1407 1 10.1376 1C10.1344 1 10.1313 1 10.1282 1C10.1251 1 10.1219 1 10.1188 1C10.1157 1 10.1126 1 10.1094 1C10.1063 1 10.1032 1 10.1 1C10.0969 1 10.0938 1 10.0907 1C10.0875 1 10.0844 1 10.0813 1C10.0781 1 10.075 1 10.0719 1C10.0688 1 10.0656 1 10.0625 1C10.0594 1 10.0562 1 10.0531 1C10.05 1 10.0469 1 10.0437 1C10.0406 1 10.0375 1 10.0343 1C10.0312 1 10.0281 1 10.025 1C10.0218 1 10.0187 1 10.0156 1C10.0124 1 10.0093 1 10.0062 1C10.0031 1 9.99994 1 9.99681 1C9.99368 1 9.99055 1 9.98743 1C9.9843 1 9.98117 1 9.97804 1C9.97492 1 9.97179 1 9.96866 1C9.96554 1 9.96241 1 9.95928 1C9.95615 1 9.95303 1 9.9499 1C9.94677 1 9.94365 1 9.94052 1C9.9374 1 9.93427 1 9.93114 1C9.92802 1 9.92489 1 9.92177 1C9.91864 1 9.91552 1 9.91239 1C9.90927 1 9.90614 1 9.90302 1C9.89989 1 9.89677 1 9.89364 1C9.89052 1 9.8874 1 9.88427 1C9.88115 1 9.87802 1 9.8749 1C9.87178 1 9.86866 1 9.86553 1C9.86241 1 9.85929 1 9.85617 1C9.85304 1 9.84992 1 9.8468 1C9.84368 1 9.84056 1 9.83744 1C9.83432 1 9.83119 1 9.82807 1C9.82495 1 9.82183 1 9.81871 1C9.81559 1 9.81247 1 9.80936 1C9.80624 1 9.80312 1 9.8 1C9.79688 1 9.79376 1 9.79065 1C9.78753 1 9.78441 1 9.78129 1C9.77818 1 9.77506 1 9.77195 1C9.76883 1 9.76571 1 9.7626 1C9.75948 1 9.75637 1 9.75325 1C9.75014 1 9.74703 1 9.74391 1C9.7408 1 9.73769 1 9.73457 1C9.73146 1 9.72835 1 9.72524 1C9.72212 1 9.71901 1 9.7159 1C9.71279 1 9.70968 1 9.70657 1C9.70346 1 9.70035 1 9.69724 1C9.69413 1 9.69103 1 9.68792 1C9.68481 1 9.6817 1 9.6786 1C9.67549 1 9.67238 1 9.66928 1C9.66617 1 9.66307 1 9.65996 1C9.65686 1 9.65375 1 9.65065 1C9.64755 1 9.64444 1 9.64134 1C9.63824 1 9.63514 1 9.63204 1C9.62893 1 9.62583 1 9.62273 1C9.61963 1 9.61653 1 9.61344 1C9.61034 1 9.60724 1 9.60414 1C9.60104 1 9.59795 1 9.59485 1C9.59175 1 9.58866 1 9.58556 1C9.58247 1 9.57937 1 9.57628 1C9.57319 1 9.57009 1 9.567 1C9.56391 1 9.56082 1 9.55773 1C9.55464 1 9.55154 1 9.54846 1C9.54537 1 9.54228 1 9.53919 1C9.5361 1 9.53301 1 9.52993 1C9.52684 1 9.52375 1 9.52067 1C9.51758 1 9.5145 1 9.51142 1C9.50833 1 9.50525 1 9.50217 1C9.49908 1 9.496 1 9.49292 1C9.48984 1 9.48676 1 9.48368 1C9.4806 1 9.47753 1 9.47445 1C9.47137 1 9.46829 1 9.46522 1C9.46214 1 9.45907 1 9.45599 1C9.45292 1 9.44985 1 9.44677 1C9.4437 1 9.44063 1 9.43756 1C9.43449 1 9.43142 1 9.42835 1C9.42528 1 9.42221 1 9.41914 1C9.41608 1 9.41301 1 9.40994 1C9.40688 1 9.40381 1 9.40075 1C9.39769 1 9.39462 1 9.39156 1C9.3885 1 9.38544 1 9.38238 1C9.37932 1 9.37626 1 9.3732 1C9.37014 1 9.36709 1 9.36403 1C9.36097 1 9.35792 1 9.35486 1C9.35181 1 9.34876 1 9.3457 1C9.34265 1 9.3396 1 9.33655 1C9.3335 1 9.33045 1 9.3274 1C9.32435 1 9.32131 1 9.31826 1C9.31521 1 9.31217 1 9.30912 1C9.30608 1 9.30304 1 9.29999 1C9.29695 1 9.29391 1 9.29087 1C9.28783 1 9.28479 1 9.28175 1C9.27872 1 9.27568 1 9.27264 1C9.26961 1 9.26657 1 9.26354 1C9.26051 1 9.25747 1 9.25444 1C9.25141 1 9.24838 1 9.24535 1C9.24232 1 9.2393 1 9.23627 1C9.23324 1 9.23022 1 9.22719 1C9.22417 1 9.22114 1 9.21812 1C9.2151 1 9.21208 1 9.20906 1C9.20604 1 9.20302 1 9.2 1C9.19698 1 9.19397 1 9.19095 1C9.18794 1 9.18492 1 9.18191 1C9.1789 1 9.17589 1 9.17288 1C9.16987 1 9.16686 1 9.16385 1C9.16084 1 9.15784 1 9.15483 1C9.15183 1 9.14882 1 9.14582 1C9.14282 1 9.13982 1 9.13682 1C9.13381 1 9.13082 1 9.12782 1C9.12482 1 9.12182 1 9.11883 1C9.11583 1 9.11284 1 9.10985 1C9.10686 1 9.10387 1 9.10088 1C9.09789 1 9.0949 1 9.09191 1C9.08892 1 9.08594 1 9.08295 1C9.07997 1 9.07699 1 9.074 1C9.07102 1 9.06804 1 9.06506 1C9.06209 1 9.05911 1 9.05613 1C9.05316 1 9.05018 1 9.04721 1C9.04423 1 9.04126 1 9.03829 1C9.03532 1 9.03235 1 9.02939 1C9.02642 1 9.02345 1 9.02049 1C9.01752 1 9.01456 1 9.0116 1C9.00864 1 9.00568 1 9.00272 1C8.99976 1 8.9968 1 8.99384 1C8.99089 1 8.98793 1 8.98498 1C8.98203 1 8.97908 1 8.97613 1C8.97318 1 8.97023 1 8.96728 1C8.96434 1 8.96139 1 8.95845 1C8.9555 1 8.95256 1 8.94962 1C8.94668 1 8.94374 1 8.9408 1C8.93787 1 8.93493 1 8.93199 1C8.92906 1 8.92613 1 8.9232 1C8.92026 1 8.91734 1 8.91441 1C8.91148 1 8.90855 1 8.90563 1C8.9027 1 8.89978 1 8.89686 1C8.89394 1 8.89102 1 8.8881 1C8.88518 1 8.88226 1 8.87935 1C8.87643 1 8.87352 1 8.87061 1C8.8677 1 8.86479 1 8.86188 1C8.85897 1 8.85606 1 8.85316 1C8.85025 1 8.84735 1 8.84445 1C8.84155 1 8.83865 1 8.83575 1C8.83285 1 8.82995 1 8.82706 1C8.82416 1 8.82127 1 8.81838 1C8.81549 1 8.8126 1 8.80971 1C8.80682 1 8.80394 1 8.80105 1C8.79817 1 8.79529 1 8.79241 1C8.78953 1 8.78665 1 8.78377 1C8.78089 1 8.77802 1 8.77514 1C8.77227 1 8.7694 1 8.76653 1C8.76366 1 8.76079 1 8.75793 1C8.75506 1 8.75219 1 8.74933 1C8.74647 1 8.74361 1 8.74075 1C8.73789 1 8.73503 1 8.73218 1C8.72932 1 8.72647 1 8.72362 1C8.72077 1 8.71792 1 8.71507 1C8.71222 1 8.70938 1 8.70653 1C8.70369 1 8.70085 1 8.69801 1C8.69517 1 8.69233 1 8.68949 1C8.68666 1 8.68382 1 8.68099 1C8.67816 1 8.67533 1 8.6725 1C8.66967 1 8.66685 1 8.66402 1C8.6612 1 8.65838 1 8.65556 1C8.65274 1 8.64992 1 8.6471 1C8.64428 1 8.64147 1 8.63866 1C8.63585 1 8.63303 1 8.63023 1C8.62742 1 8.62461 1 8.62181 1C8.619 1 8.6162 1 8.6134 1C8.6106 1 8.6078 1 8.60501 1C8.60221 1 8.59942 1 8.59662 1C8.59383 1 8.59104 1 8.58826 1C8.58547 1 8.58268 1 8.5799 1C8.57711 1 8.57433 1 8.57155 1C8.56877 1 8.566 1 8.56322 1C8.56045 1 8.55767 1 8.5549 1C8.55213 1 8.54936 1 8.5466 1C8.54383 1 8.54107 1 8.5383 1C8.53554 1 8.53278 1 8.53002 1C8.52727 1 8.52451 1 8.52176 1C8.519 1 8.51625 1 8.5135 1C8.51075 1 8.50801 1 8.50526 1C8.50252 1 8.49977 1 8.49703 1C8.49429 1 8.49156 1 8.48882 1C8.48608 1 8.48335 1 8.48062 1C8.47789 1 8.47516 1 8.47243 1C8.46971 1 8.46698 1 8.46426 1C8.46154 1 8.45882 1 8.4561 1C8.45338 1 8.45067 1 8.44795 1C8.44524 1 8.44253 1 8.43982 1C8.43711 1 8.43441 1 8.4317 1C8.429 1 8.4263 1 8.4236 1C8.4209 1 8.4182 1 8.41551 1C8.41282 1 8.41012 1 8.40743 1C8.40474 1 8.40206 1 8.39937 1C8.39669 1 8.394 1 8.39132 1C8.38864 1 8.38597 1 8.38329 1C8.38062 1 8.37794 1 8.37527 1C8.3726 1 8.36993 1 8.36727 1C8.3646 1 8.36194 1 8.35928 1C8.35662 1 8.35396 1 8.35131 1C8.34865 1 8.346 1 8.34335 1C8.34069 1 8.33805 1 8.3354 1C8.33275 1 8.33011 1 8.32747 1C8.32483 1 8.32219 1 8.31955 1C8.31692 1 8.31429 1 8.31165 1C8.30902 1 8.3064 1 8.30377 1C8.30114 1 8.29852 1 8.2959 1C8.29328 1 8.29066 1 8.28805 1C8.28543 1 8.28282 1 8.28021 1C8.2776 1 8.27499 1 8.27238 1C8.26978 1 8.26717 1 8.26457 1C8.26197 1 8.25938 1 8.25678 1C8.25419 1 8.2516 1 8.24901 1C8.24642 1 8.24383 1 8.24124 1C8.23866 1 8.23608 1 8.2335 1C8.23092 1 8.22834 1 8.22577 1C8.2232 1 8.22063 1 8.21806 1C8.21549 1 8.21292 1 8.21036 1C8.2078 1 8.20524 1 8.20268 1C8.20012 1 8.19757 1 8.19501 1C8.19246 1 8.18991 1 8.18737 1C8.18482 1 8.18228 1 8.17973 1C8.17719 1 8.17465 1 8.17212 1C8.16958 1 8.16705 1 8.16452 1C8.16199 1 8.15946 1 8.15694 1C8.15441 1 8.15189 1 8.14937 1C8.14685 1 8.14434 1 8.14182 1C8.13931 1 8.1368 1 8.13429 1C8.13178 1 8.12928 1 8.12677 1C8.12427 1 8.12177 1 8.11928 1C8.11678 1 8.11429 1 8.1118 1C8.1093 1 8.10682 1 8.10433 1C8.10185 1 8.09936 1 8.09688 1C8.09441 1 8.09193 1 8.08946 1C8.08698 1 8.08451 1 8.08204 1C8.07958 1 8.07711 1 8.07465 1C8.07219 1 8.06973 1 8.06727 1C8.06482 1 8.06236 1 8.05991 1C8.05746 1 8.05501 1 8.05257 1C8.05013 1 8.04768 1 8.04525 1C8.04281 1 8.04037 1 8.03794 1C8.03551 1 8.03308 1 8.03065 1C8.02823 1 8.0258 1 8.02338 1C8.02096 1 8.01854 1 8.01613 1C8.01371 1 8.0113 1 8.0089 1C8.00649 1 8.00408 1 8.00168 1C7.99928 1 7.99688 1 7.99448 1C7.99209 1 7.98969 1 7.9873 1C7.98491 1 7.98253 1 7.98014 1C7.97776 1 7.97538 1 7.973 1C7.97062 1 7.96825 1 7.96588 1C7.96351 1 7.96114 1 7.95877 1C7.95641 1 7.95404 1 7.95169 1C7.94933 1 7.94697 1 7.94462 1C7.94227 1 7.93992 1 7.93757 1C7.93522 1 7.93288 1 7.93054 1C7.9282 1 7.92586 1 7.92353 1C7.9212 1 7.91887 1 7.91654 1C7.91421 1 7.91189 1 7.90957 1C7.90725 1 7.90493 1 7.90262 1C7.9003 1 7.89799 1 7.89568 1C7.89337 1 7.89107 1 7.88877 1C7.88647 1 7.88417 1 7.88187 1C7.87958 1 7.87729 1 7.875 1V2.5ZM11.5 1.75V6.125H13V1.75H11.5ZM11.7197 1.21967L6.46967 6.46967L7.53033 7.53033L12.7803 2.28033L11.7197 1.21967Z" fill="black"/>
</svg>
