<svg width="24" height="24" viewBox="0 0 24 24" fill="none" xmlns="http://www.w3.org/2000/svg">
<rect x="3" y="3" width="18" height="18" stroke="#333333" stroke-width="1.5"/>
<path d="M8.5 10C9.32843 10 10 9.32843 10 8.5C10 7.67157 9.32843 7 8.5 7C7.67157 7 7 7.67157 7 8.5C7 9.32843 7.67157 10 8.5 10Z" stroke="#333333" stroke-width="1.5" stroke-linecap="round" stroke-linejoin="round"/>
<path d="M16 10L16.5303 9.46967L16.0424 8.9817L15.5155 9.42746L16 10ZM21.5303 14.4697L16.5303 9.46967L15.4697 10.5303L20.4697 15.5303L21.5303 14.4697ZM15.5155 9.42746L2.51554 20.4275L3.48446 21.5725L16.4845 10.5725L15.5155 9.42746Z" fill="#333333"/>
</svg>
