<svg width="24" height="24" viewBox="0 0 24 24" fill="none" xmlns="http://www.w3.org/2000/svg">
<path d="M10.637 15.4335C10.6 15.2948 10.563 15.1474 10.526 14.9913C10.4889 14.8179 10.4704 14.6618 10.4704 14.5231C10.4704 13.8468 10.6278 13.2659 10.9424 12.7803C11.2571 12.2775 11.7753 11.7399 12.4972 11.1676L13.8021 10.1792C14.2833 9.79769 14.6442 9.41619 14.8848 9.03468C15.1255 8.65318 15.2458 8.23699 15.2458 7.78613C15.2458 7.02312 14.9681 6.40751 14.4129 5.93931C13.8761 5.4711 13.182 5.23699 12.3306 5.23699C11.4236 5.23699 10.6925 5.45376 10.1373 5.88728C9.60051 6.30347 9.24884 6.87572 9.08226 7.60405L7 6.8237C7.12956 6.33815 7.34242 5.86127 7.63856 5.39306C7.9347 4.92486 8.30488 4.51734 8.7491 4.17052C9.19332 3.8237 9.72082 3.54624 10.3316 3.33815C10.9424 3.11272 11.6458 3 12.4416 3C13.219 3 13.9316 3.12139 14.5794 3.36416C15.2272 3.5896 15.7918 3.9104 16.273 4.32659C16.7542 4.72543 17.1244 5.21098 17.3835 5.78324C17.6612 6.35549 17.8 6.97977 17.8 7.65607C17.8 8.15896 17.7352 8.6185 17.6057 9.03468C17.4761 9.43353 17.3003 9.79769 17.0781 10.1272C16.8745 10.4566 16.6339 10.7601 16.3563 11.0376C16.0972 11.2977 15.8288 11.5318 15.5512 11.7399L14.2463 12.7283C13.9686 12.9538 13.7373 13.1532 13.5522 13.3266C13.3856 13.5 13.2468 13.6821 13.1357 13.8728C13.0432 14.0462 12.9692 14.237 12.9136 14.4451C12.8766 14.6358 12.8581 14.8699 12.8581 15.1474V15.4335H10.637ZM10.1095 17.9046H13.4134V21H10.1095V17.9046Z" fill="#002C5F"/>
</svg>
