<?xml version="1.0" encoding="UTF-8"?>
<svg width="64px" height="64px" viewBox="0 0 64 64" version="1.1" xmlns="http://www.w3.org/2000/svg" xmlns:xlink="http://www.w3.org/1999/xlink">
    <title>333322BA-9D64-46DB-A55B-74A6312F0ABB</title>
    <g id="Page-1" stroke="none" stroke-width="1" fill="none" fill-rule="evenodd">
        <g id="SC-FE-CN-300_견적서" transform="translate(-492.000000, -526.000000)">
            <g id="Group-2" transform="translate(492.000000, 526.000000)">
                <rect id="Rectangle" fill-opacity="0" fill="#D8D8D8" x="0" y="0" width="64" height="64"></rect>
                <g id="ic_contract-receipt" transform="translate(35.775000, 33.714286)" stroke="#0793EA" stroke-linejoin="round" stroke-width="2">
                    <g id="Path">
                        <path d="M7.50804053,24.2857143 L0,24.2857143 L0,17.2042463 C0,16.9190679 0.113003519,16.6455696 0.314151164,16.4439181 L16.4028094,0.314937368 C16.8216768,-0.104979123 17.5007942,-0.104979123 17.9196616,0.314937368 L23.91085,6.3211413 C24.3297167,6.74105842 24.3297167,7.42187792 23.91085,7.84179504 L7.50804053,24.2857143 Z" stroke-linecap="round"></path>
                        <line x1="12.825" y1="4.28571429" x2="19.1809911" y2="10.6576352" stroke-linecap="square"></line>
                    </g>
                </g>
                <g id="Group" transform="translate(13.000000, 17.000000)" stroke="#666666" stroke-width="2">
                    <path d="M1.86910494,10 L1.2731464,10 C0.59289955,9.80002553 0.178076848,8.94304329 0.0286782954,7.42905327 C-0.120720257,5.91506325 0.313595994,4.87324886 1.33162705,4.30361012 C4.43344041,1.62794817 7.70398993,0.20069716 11.1432756,0.0218570887 C14.5825613,-0.156982982 17.3286564,0.761662004 19.3815609,2.77779205 C20.4136273,3.43322356 21.6764973,3.94182958 23.1701709,4.30361012 C25.4106814,4.84628091 28,4.87586166 28,7.42905327 C28,9.98224487 28.0339608,9.98224487 26.1674691,10" id="Path-33" stroke-linecap="square"></path>
                    <circle id="Oval" cx="7" cy="10" r="2"></circle>
                    <circle id="Oval-Copy" cx="21" cy="10" r="2"></circle>
                    <polyline id="Path-34" stroke-linecap="square" points="12 10.5 14.6536252 10.5 16 10.5"></polyline>
                </g>
                <line x1="19" y1="38" x2="35" y2="38" id="Path-30-Copy" stroke="#666666" stroke-width="2" stroke-linecap="square"></line>
                <line x1="19" y1="44" x2="35" y2="44" id="Path-30-Copy-2" stroke="#666666" stroke-width="2" stroke-linecap="square"></line>
                <path d="M31.9430466,58 L4,58 L4,10 C4,7.790861 5.790861,6 8,6 C8.1999668,6 8.3999336,6 8.59990041,6 L46,6 C48.209139,6 50,7.790861 50,10 L50,30.9967575 L50,30.9967575" id="Path" stroke="#666666" stroke-width="2"></path>
            </g>
        </g>
    </g>
</svg>