<svg width="16" height="16" viewBox="0 0 16 16" xmlns="http://www.w3.org/2000/svg">
    <g fill="none" fill-rule="evenodd">
        <path d="M0 0h16v16H0z"/>
        <path d="M13 2.5a1.495 1.495 0 0 1 1.492 1.347L14.5 4v6a1.504 1.504 0 0 1-1.85 1.46l-.15-.04v1.646L10.151 11.5H3a1.495 1.495 0 0 1-1.492-1.347L1.5 10V4a1.495 1.495 0 0 1 1.347-1.492L3 2.5h10zm-5 3c-.414 0-.79.168-1.06.44a1.495 1.495 0 0 0 0 2.121c.27.271.646.439 1.06.439.414 0 .79-.168 1.06-.44a1.495 1.495 0 0 0 0-2.121A1.495 1.495 0 0 0 8 5.5zm-4 0c-.414 0-.79.168-1.06.44a1.495 1.495 0 0 0 0 2.121c.27.271.646.439 1.06.439.414 0 .79-.168 1.06-.44a1.495 1.495 0 0 0 0-2.121A1.495 1.495 0 0 0 4 5.5zm8 0-.153.008A1.495 1.495 0 0 0 10.5 7c0 .414.168.79.44 1.06a1.495 1.495 0 0 0 2.121 0c.271-.27.439-.646.439-1.06 0-.414-.168-.79-.44-1.06A1.495 1.495 0 0 0 12 5.5z" stroke="#191919" fill="#191919"/>
    </g>
</svg>
