<?xml version="1.0" encoding="UTF-8"?>
<svg width="64px" height="64px" viewBox="0 0 64 64" version="1.1" xmlns="http://www.w3.org/2000/svg" xmlns:xlink="http://www.w3.org/1999/xlink">
    <title>97687C89-9C96-41D7-A8F9-E3C9B75249F2</title>
    <g id="Page-1" stroke="none" stroke-width="1" fill="none" fill-rule="evenodd">
        <g id="SC-FE-CN-300_견적서" transform="translate(-164.000000, -526.000000)">
            <g id="Group-2" transform="translate(40.000000, 506.000000)">
                <g id="Group-5" transform="translate(124.000000, 20.000000)">
                    <rect id="Rectangle" fill-opacity="0" fill="#D8D8D8" x="0" y="0" width="64" height="64"></rect>
                    <g id="Group-19" transform="translate(4.000000, 8.000000)">
                        <polyline id="Stroke-1" stroke="#666666" stroke-width="2" stroke-linecap="round" stroke-linejoin="round" points="37.3 8.72727273 53.9 8.72727273 53.9 42.5454545"></polyline>
                        <polyline id="Stroke-3" stroke="#666666" stroke-width="2" stroke-linecap="round" stroke-linejoin="round" points="2.2 42.5454545 2.2 8.72727273 8.9 8.72727273"></polyline>
                        <path d="M34.32,42.9179944 L34.32,42.9179944 C34.32,43.2395736 34.065625,43.4996485 33.7510938,43.4996485 L21.2489063,43.4996485 C20.9360938,43.4996485 20.68,43.2395736 20.68,42.9179944 C20.68,42.7123946 20.5184375,42.5454545 20.3173438,42.5454545 L0,42.5454545 C0,45.5574039 2.3890625,48 5.335,48 L49.6667188,48 C52.6126563,48 55,45.5574039 55,42.5454545 L34.684375,42.5454545 C34.4832813,42.5454545 34.32,42.7123946 34.32,42.9179944 Z" id="Stroke-5" stroke="#666666" stroke-width="2" stroke-linecap="round" stroke-linejoin="round"></path>
                        <path d="M41.2,31.6363636 L41.8,36 L37.0503007,33.1893534 C35.5823402,33.6999112 33.9979309,33.9973068 32.3253028,33.9973068 C26.2099767,33.9973068 21.1021092,31.1913303 19.8,26.0909091" id="Stroke-9" stroke="#666666" stroke-width="2" stroke-linecap="round" stroke-linejoin="round"></path>
                        <path d="M41.1935477,31.6363636 L41.2180068,31.6240303 C43.6080008,29.4815612 45.1,26.4845711 45.1,23.1704393 C45.1,17.9552184 42.5084376,13.5310902 37.4,12" id="Stroke-11" stroke="#666666" stroke-width="2" stroke-linecap="round" stroke-linejoin="round"></path>
                        <path d="M23.1,0 C15.2032729,0 8.8,5.83905832 8.8,13.0391658 C8.8,16.7326934 10.4915298,20.0610615 13.1997303,22.433725 L13.1664256,22.4197476 L12.5686933,28.3636364 L17.8571341,25.1628121 C19.4820544,25.7463685 21.2472052,26.0783317 23.1,26.0783317 C30.9967271,26.0783317 37.4,20.2410205 37.4,13.0391658 C37.4,5.83905832 30.9967271,0 23.1,0 Z" id="Stroke-7" stroke="#0793EA" stroke-width="2" stroke-linecap="round" stroke-linejoin="round"></path>
                        <path d="M18.1678,13.0743802 C18.1678,13.9843967 17.4238,14.7283967 16.5,14.7283967 C15.5824,14.7283967 14.8322,13.9843967 14.8322,13.0743802 C14.8322,12.1643636 15.5824,11.4203636 16.5,11.4203636 C17.4238,11.4203636 18.1678,12.1643636 18.1678,13.0743802 Z" id="Stroke-13" fill="#0793EA"></path>
                        <path d="M24.7678,13.0743802 C24.7678,13.9843967 24.0238,14.7283967 23.1,14.7283967 C22.1824,14.7283967 21.4322,13.9843967 21.4322,13.0743802 C21.4322,12.1643636 22.1824,11.4203636 23.1,11.4203636 C24.0238,11.4203636 24.7678,12.1643636 24.7678,13.0743802 Z" id="Stroke-15" fill="#0793EA"></path>
                        <path d="M31.3678,13.0743802 C31.3678,13.9843967 30.6238,14.7283967 29.7,14.7283967 C28.7824,14.7283967 28.0322,13.9843967 28.0322,13.0743802 C28.0322,12.1643636 28.7824,11.4203636 29.7,11.4203636 C30.6238,11.4203636 31.3678,12.1643636 31.3678,13.0743802 Z" id="Stroke-17" fill="#0793EA"></path>
                    </g>
                </g>
            </g>
        </g>
    </g>
</svg>