<svg width="46" height="24" viewBox="0 0 46 24" xmlns="http://www.w3.org/2000/svg">
    <g fill="none" fill-rule="evenodd">
        <path d="M0 24h46V0H0z"/>
        <path d="M15.042 2.89c.49-.094.813-.093.93.031.068.078.088.207-.002.368a2.256 2.256 0 0 1-.205.28c-4.15 4.87-7.31 12.051-8.21 14.126a4.946 4.946 0 0 1-.19.377c-.08.146-.193.268-.392.28-.111.007-.26-.02-.49-.158-2.754-1.69-4.392-3.798-4.392-6.083 0-4.126 5.33-7.672 12.951-9.22m3.75 3.123c.39-.887 1.065-2.787 2.612-3.542.47-.229 1.047-.338 1.566-.352.116-.005.2 0 .232 0 4.333 0 8.365.587 11.744 1.597.024.007.103.038.127.047.312.101.472.241.472.416 0 .15-.083.265-.194.373a3.866 3.866 0 0 1-.214.185c-.778.639-3.126 2.302-7.546 3.96-1.552.583-3.49 1.305-5.521 1.726-1.195.247-5.612.905-3.279-4.41m20.54-.086c.084-.146.196-.267.397-.28.11-.008.261.02.488.16 2.757 1.688 4.39 3.795 4.39 6.08 0 4.126-5.33 7.67-12.948 9.221-.49.095-.815.093-.927-.03-.075-.076-.096-.208 0-.37.048-.084.103-.16.204-.281 4.15-4.87 7.31-12.049 8.209-14.122.068-.144.135-.285.188-.378M27.906 17.983c-.391.89-1.065 2.79-2.613 3.546-.468.226-1.047.337-1.567.352-.116.003-.199 0-.234 0-4.334 0-8.365-.59-11.74-1.596-.029-.008-.107-.039-.13-.048-.311-.1-.47-.243-.47-.416 0-.154.08-.267.192-.374.046-.047.119-.106.212-.186.781-.636 3.128-2.304 7.55-3.961 1.551-.58 3.49-1.304 5.523-1.724 1.19-.246 5.61-.908 3.277 4.407M23 24c12.703 0 23-5.372 23-12.002C46 5.372 35.703 0 23 0S0 5.372 0 11.998C0 18.628 10.297 24 23 24" fill="#000"/>
    </g>
</svg>
