<?xml version="1.0" encoding="UTF-8"?>
<svg width="24px" height="24px" viewBox="0 0 24 24" version="1.1" xmlns="http://www.w3.org/2000/svg" xmlns:xlink="http://www.w3.org/1999/xlink">
    <title>800A4531-A071-439A-935A-CDC81BA4F22B</title>
    <g id="home-&gt;-common-1019" stroke="none" stroke-width="1" fill="none" fill-rule="evenodd">
        <g id="PC-JP-DS-FE-CO-Main_01basic-2quickmenu_1105" transform="translate(-1716.000000, -640.000000)">
            <g id="Group-20" transform="translate(1696.000000, 560.000000)">
                <g id="Group-14-Copy" transform="translate(0.000000, 64.000000)">
                    <g id="Group-9" transform="translate(20.000000, 16.000000)">
                        <rect id="Rectangle-Copy-3" x="0" y="0" width="24" height="24"></rect>
                        <g id="ic_guide" transform="translate(1.500000, 0.750000)">
                            <path d="M3,11.25 L3,2.93478261 C3,2.93478261 3,2.93478261 3,2.93478261 C3,1.31394693 4.31394693,7.41831894e-16 5.93478261,0 C5.94336384,0 5.95194508,0 5.96052632,0 L18.7894737,0 C18.9354067,0 19.0813397,0 19.2272727,0 C20.6205365,1.88150802e-16 21.75,1.12946347 21.75,2.52272727 C21.75,2.66007905 21.75,2.79743083 21.75,2.93478261 L21.75,22.5 L9.25,22.5" id="Path" stroke="#FFFFFF"></path>
                            <line x1="8.25" y1="4.8759752" x2="16.5" y2="4.87417483" id="Path-45" stroke="#FFFFFF"></line>
                            <line x1="8.25" y1="7.5" x2="16.5" y2="7.5" id="Path-45-Copy" stroke="#FFFFFF"></line>
                            <path d="M4.875,12.75 C7.5673,12.75 9.75,14.9327763 9.75,17.625 C9.75,20.3172237 7.5673,22.5 4.875,22.5 C2.1827,22.5 0,20.3172237 0,17.625 C0,14.9327763 2.1827,12.75 4.875,12.75 Z" id="Stroke-1" stroke="#FFFFFF"></path>
                            <polygon id="Path" fill="#FFFFFF" fill-rule="nonzero" points="5.25 16.5 5.25 20.25 4.5 20.25 4.5 16.5"></polygon>
                            <circle id="Oval" fill="#FFFFFF" cx="4.875" cy="15.375" r="1"></circle>
                        </g>
                    </g>
                </g>
            </g>
        </g>
    </g>
</svg>