<?xml version="1.0" encoding="UTF-8"?>
<svg width="30px" height="33px" viewBox="0 0 30 33" version="1.1" xmlns="http://www.w3.org/2000/svg" xmlns:xlink="http://www.w3.org/1999/xlink">
    <title>2CACF46C-0403-4587-82B5-E2F4AA241F22</title>
    <g id="home-&gt;-common-+-main" stroke="none" stroke-width="1" fill="none" fill-rule="evenodd">
        <g id="PC-JP-DS-FE-CO-Main_01basic-2quickmenu_1019" transform="translate(-1707.000000, -867.000000)" stroke="#FAFAFA">
            <g id="ic_event" transform="translate(1707.000000, 867.000000)">
                <path d="M28.0869565,9.5 C28.4771577,9.5 28.8304186,9.65816028 29.0861291,9.91387085 C29.3418397,10.1695814 29.5,10.5228423 29.5,10.9130435 L29.5,10.9130435 L29.5,15.5 L0.5,15.5 L0.5,10.9130435 C0.5,10.5228423 0.658160279,10.1695814 0.913870853,9.91387085 C1.16958143,9.65816028 1.5228423,9.5 1.91304348,9.5 L1.91304348,9.5 Z" id="Path-4"></path>
                <path d="M10.8743161,3.10643469 C11.4233131,2.86061405 12.019975,2.8605902 12.5408428,3.05927075 C13.0617107,3.25795129 13.5067845,3.65533622 13.7526051,4.20433314 C13.8872732,4.50509044 13.9568869,4.830904 13.9568869,5.16043463 C13.9568869,5.80648777 13.6950221,6.39137911 13.2716441,6.81475717 C12.848266,7.23813523 12.2633747,7.5 11.6173215,7.5 L11.6173215,7.5 L7.04213005,7.5 L10.0654051,3.73144289 C10.2816485,3.46189232 10.5589198,3.24765755 10.8743161,3.10643469 Z" id="Path-18" transform="translate(11.000000, 4.000000) scale(-1, 1) translate(-11.000000, -4.000000) "></path>
                <path d="M18.8743161,3.10643469 C19.4233131,2.86061405 20.019975,2.8605902 20.5408428,3.05927075 C21.0617107,3.25795129 21.5067845,3.65533622 21.7526051,4.20433314 C21.8872732,4.50509044 21.9568869,4.830904 21.9568869,5.16043463 C21.9568869,5.80648777 21.6950221,6.39137911 21.2716441,6.81475717 C20.848266,7.23813523 20.2633747,7.5 19.6173215,7.5 L19.6173215,7.5 L15.0421301,7.5 L18.0654051,3.73144289 C18.2816485,3.46189232 18.5589198,3.24765755 18.8743161,3.10643469 Z" id="Path-18"></path>
                <line x1="15" y1="9" x2="15" y2="32" id="Path-3"></line>
                <polyline id="Path-31" stroke-linecap="square" points="2 19 2 32 28 32 28 19"></polyline>
            </g>
        </g>
    </g>
</svg>