<?xml version="1.0" encoding="UTF-8"?>
<svg width="24px" height="24px" viewBox="0 0 24 24" version="1.1" xmlns="http://www.w3.org/2000/svg" xmlns:xlink="http://www.w3.org/1999/xlink">
    <title>C422FD19-13E4-4589-8C93-8DC2A1BF914A</title>
    <g id="home-&gt;-common-1019" stroke="none" stroke-width="1" fill="none" fill-rule="evenodd">
        <g id="PC-JP-DS-FE-CO-Main_01basic-2quickmenu_1105" transform="translate(-1716.000000, -808.000000)">
            <g id="Group-20" transform="translate(1696.000000, 560.000000)">
                <g id="Group-17-Copy" transform="translate(0.000000, 232.000000)">
                    <g id="Group-12" transform="translate(20.000000, 16.000000)">
                        <rect id="Rectangle-Copy-8" x="0" y="0.727272727" width="24" height="23.2727273"></rect>
                        <g id="ic_event" transform="translate(0.750000, 0.000000)" stroke="#FAFAFA">
                            <path d="M20.5869565,7.04545455 C20.9771577,7.04545455 21.3304186,7.20361482 21.5861291,7.4593254 C21.8418397,7.71503597 22,8.06829684 22,8.45849802 L22,8.45849802 L22,11.1363636 L0.5,11.1363636 L0.5,8.45849802 C0.5,8.06829684 0.658160279,7.71503597 0.913870853,7.4593254 C1.16958143,7.20361482 1.5228423,7.04545455 1.91304348,7.04545455 L1.91304348,7.04545455 Z" id="Path-4"></path>
                            <path d="M8.18914877,2.37725132 C8.56954448,2.20160139 8.98512436,2.19676604 9.34951779,2.3309421 C9.71391123,2.46511816 10.0271182,2.73830564 10.2027682,3.11870134 C10.2968191,3.32238236 10.3455273,3.54405467 10.3455273,3.76840156 C10.3455273,4.19636156 10.1720622,4.58380662 9.89160716,4.86426169 C9.61115209,5.14471675 9.22370703,5.31818182 8.79574703,5.31818182 L8.79574703,5.31818182 L5.56258251,5.31818182 L7.65615205,2.78759718 C7.80087862,2.61266016 7.98301957,2.47243268 8.18914877,2.37725132 Z" id="Path-18" transform="translate(8.250000, 2.909091) scale(-1, 1) translate(-8.250000, -2.909091) "></path>
                            <path d="M14.1891488,2.37725132 C14.5695445,2.20160139 14.9851244,2.19676604 15.3495178,2.3309421 C15.7139112,2.46511816 16.0271182,2.73830564 16.2027682,3.11870134 C16.2968191,3.32238236 16.3455273,3.54405467 16.3455273,3.76840156 C16.3455273,4.19636156 16.1720622,4.58380662 15.8916072,4.86426169 C15.6111521,5.14471675 15.223707,5.31818182 14.795747,5.31818182 L14.795747,5.31818182 L11.5625825,5.31818182 L13.6561521,2.78759718 C13.8008786,2.61266016 13.9830196,2.47243268 14.1891488,2.37725132 Z" id="Path-18"></path>
                            <line x1="11.25" y1="6.54545455" x2="11.25" y2="23.2727273" id="Path-3"></line>
                            <polyline id="Path-31" stroke-linecap="square" points="1.5 13.8181818 1.5 23.2727273 21 23.2727273 21 13.8181818"></polyline>
                        </g>
                    </g>
                </g>
            </g>
        </g>
    </g>
</svg>