<svg width="24" height="24" viewBox="0 0 25 24" xmlns="http://www.w3.org/2000/svg">
    <g fill="none" fill-rule="evenodd">
        <path d="M.5 0h24v24H.5z"/>
        <path d="M11.49 22H5a2 2 0 0 1-2-2V1.5h16a2 2 0 0 1 2 2v7.01" stroke="#fff"/>
        <g stroke="#fff" stroke-linejoin="round">
            <path d="M17.79 22.5H15v-2.624c0-.106.042-.207.117-.282l5.977-5.977a.398.398 0 0 1 .563 0l2.226 2.226a.398.398 0 0 1 0 .563L17.79 22.5z" stroke-linecap="round"/>
            <path stroke-linecap="square" d="m19.765 15.088 2.361 2.362"/>
        </g>
        <path fill="#fff" d="M7.5 6h9v1h-9zM7.5 9h9v1h-9zM7.5 12h9v1h-9z"/>
    </g>
</svg>
