<?xml version="1.0" encoding="UTF-8"?>
<svg width="31px" height="32px" viewBox="0 0 31 32" version="1.1" xmlns="http://www.w3.org/2000/svg" xmlns:xlink="http://www.w3.org/1999/xlink">
    <title>6E87DE30-8870-4020-B173-4C6E2D10959B</title>
    <g id="home-&gt;-common-+-main" stroke="none" stroke-width="1" fill="none" fill-rule="evenodd">
        <g id="PC-JP-DS-FE-CO-Main_01basic-2quickmenu_1019" transform="translate(-1707.000000, -683.000000)">
            <g id="ic_guide" transform="translate(1708.000000, 684.000000)">
                <path d="M4,15 L4,3.91304348 C4,3.60869565 4,3.30434783 4,3 C4,1.34314575 5.34314575,3.04359188e-16 7,0 C7.31578947,0 7.63157895,0 7.94736842,0 L25.0526316,0 C25.527512,0 26.0023923,0 26.4772727,0 C27.8705365,2.21899527e-15 29,1.12946347 29,2.52272727 C29,2.98616601 29,3.44960474 29,3.91304348 L29,30 L12.3333333,30" id="Path" stroke="#FFFFFF"></path>
                <line x1="11" y1="6.50130026" x2="22" y2="6.49889978" id="Path-45" stroke="#FFFFFF"></line>
                <line x1="11" y1="10" x2="22" y2="10" id="Path-45-Copy" stroke="#FFFFFF"></line>
                <path d="M6.5,17 C10.0897333,17 13,19.9103683 13,23.5 C13,27.0896317 10.0897333,30 6.5,30 C2.91026667,30 0,27.0896317 0,23.5 C0,19.9103683 2.91026667,17 6.5,17 Z" id="Stroke-1" stroke="#FFFFFF"></path>
                <polygon id="Path" fill="#FFFFFF" fill-rule="nonzero" points="7 22 7 27 6 27 6 22"></polygon>
                <circle id="Oval" fill="#FFFFFF" cx="6.5" cy="20.5" r="1"></circle>
            </g>
        </g>
    </g>
</svg>