<?xml version="1.0" encoding="UTF-8"?>
<svg width="24px" height="24px" viewBox="0 0 24 24" version="1.1" xmlns="http://www.w3.org/2000/svg" xmlns:xlink="http://www.w3.org/1999/xlink">
    <title>949AE273-479E-40BC-B558-CFE5DEAC9146</title>
    <g id="home-&gt;-common-1019" stroke="none" stroke-width="1" fill="none" fill-rule="evenodd">
        <g id="PC-JP-DS-FE-CO-Main_01basic-2quickmenu_1105" transform="translate(-1716.000000, -584.000000)">
            <g id="Group-20" transform="translate(1696.000000, 560.000000)">
                <g id="Group-13-Copy" transform="translate(0.000000, 8.000000)">
                    <g id="Group-7" transform="translate(20.000000, 16.000000)">
                        <rect id="Rectangle" x="0" y="0" width="24" height="24"></rect>
                        <g id="ic_simulator" transform="translate(0.750000, 0.750000)">
                            <path d="M8.53055368,13.5 C9.64264011,13.5 10.5116475,12.906956 10.5116475,11.9580856 C10.5116475,11.3650416 10.1956448,10.896849 9.63048616,10.7033294 C10.0133356,10.4661118 10.2564146,10.07283 10.2564146,9.66082045 C10.2564146,8.77437574 9.61833221,8.25 8.56701553,8.25 C7.8681634,8.25 7.3090817,8.6245541 6.993079,9.04280618 L7.54000675,9.63585018 C7.72839298,9.36117717 8.0383187,9.13020214 8.56701553,9.13020214 C8.98024983,9.13020214 9.31448346,9.3362069 9.31448346,9.73573127 C9.31448346,10.0665874 9.07748143,10.3662307 8.54270763,10.3662307 L8.05654963,10.3662307 L8.05654963,11.1964923 L8.54270763,11.1964923 C9.23548278,11.1964923 9.57579338,11.4399524 9.57579338,11.8769322 C9.57579338,12.35761 9.13825118,12.6260404 8.53055368,12.6260404 C7.92285618,12.6260404 7.5278528,12.3014269 7.2847738,12.0017836 L6.75,12.6510107 C7.07207968,13.0255648 7.65546928,13.5 8.53055368,13.5 Z M13.307056,13.3938763 C14.7229912,13.3938763 15.75,12.5074316 15.75,10.8718787 C15.75,9.24256837 14.7229912,8.34988109 13.307056,8.34988109 L11.3259622,8.34988109 L11.3259622,13.3938763 L13.307056,13.3938763 Z M13.2584402,12.5573722 L12.2618163,12.5573722 L12.2618163,9.19262782 L13.2584402,9.19262782 C14.1942944,9.19262782 14.783761,9.77942925 14.783761,10.8718787 C14.783761,11.9705707 14.1942944,12.5573722 13.2584402,12.5573722 Z" id="3D" fill="#FFFFFF" fill-rule="nonzero"></path>
                            <polyline id="Path" stroke="#FAFAFA" stroke-linejoin="round" points="11.25 15.7599828 11.25 22.5 1.51441359e-14 18.0066552 1.51441359e-14 3.77772992 11.25 2.54675279e-14 22.5 3.77772992 15.75 6.02440233"></polyline>
                            <polyline id="Path-17" stroke="#FAFAFA" stroke-linejoin="round" points="22.5 7.5 22.5 18 11.25 22.5"></polyline>
                            <line x1="0" y1="3.75" x2="6.75" y2="6" id="Path" stroke="#FAFAFA"></line>
                        </g>
                    </g>
                </g>
            </g>
        </g>
    </g>
</svg>