<svg width="360" height="156" xmlns="http://www.w3.org/2000/svg" xmlns:xlink="http://www.w3.org/1999/xlink">
    <defs>
        <filter x="-1.4%" y="-4%" width="102.8%" height="106.7%" filterUnits="objectBoundingBox" id="a">
            <feOffset dy="-1" in="SourceAlpha" result="shadowOffsetOuter1"/>
            <feGaussianBlur stdDeviation="1.5" in="shadowOffsetOuter1" result="shadowBlurOuter1"/>
            <feComposite in="shadowBlurOuter1" in2="SourceAlpha" operator="out" result="shadowBlurOuter1"/>
            <feColorMatrix values="0 0 0 0 0 0 0 0 0 0 0 0 0 0 0 0 0 0 0.05 0" in="shadowBlurOuter1"/>
        </filter>
        <path d="M212.876 0a8 8 0 0 1 7.759 6.052L224.889 23H360v127H0V23h134.11l4.255-16.948A8 8 0 0 1 146.125 0h66.75z" id="b"/>
    </defs>
    <g transform="translate(0 4)" fill="none" fill-rule="evenodd">
        <use fill="#000" filter="url(#a)" xlink:href="#b"/>
        <path stroke="#E9E9E9" d="M212.876.5c1.719 0 3.328.585 4.612 1.586a7.488 7.488 0 0 1 2.662 4.088l4.349 17.326H359.5v126H.5v-126h134l4.35-17.326a7.488 7.488 0 0 1 2.662-4.088A7.488 7.488 0 0 1 146.124.5z" stroke-linejoin="square" fill="#FFF"/>
    </g>
</svg>
