<svg width="24" height="32" viewBox="0 0 24 32" fill="none" xmlns="http://www.w3.org/2000/svg">
<mask id="path-1-inside-1_2472_5765" fill="white">
<path fill-rule="evenodd" clip-rule="evenodd" d="M0 0V32L12 25.7053L24 32V0H12.0008H11.9992H0Z"/>
</mask>
<path d="M0 32H-1.5V34.4807L0.696786 33.3283L0 32ZM0 0V-1.5H-1.5V0H0ZM12 25.7053L12.6968 24.377L12 24.0115L11.3032 24.377L12 25.7053ZM24 32L23.3032 33.3283L25.5 34.4807V32H24ZM24 0H25.5V-1.5H24V0ZM1.5 32V0H-1.5V32H1.5ZM11.3032 24.377L-0.696786 30.6717L0.696786 33.3283L12.6968 27.0337L11.3032 24.377ZM11.3032 27.0337L23.3032 33.3283L24.6968 30.6717L12.6968 24.377L11.3032 27.0337ZM25.5 32V0H22.5V32H25.5ZM24 -1.5H12.0008V1.5H24V-1.5ZM12.0008 -1.5H11.9992V1.5H12.0008V-1.5ZM0 1.5H11.9992V-1.5H0V1.5Z" fill="#333333" mask="url(#path-1-inside-1_2472_5765)"/>
</svg>
