<svg width="498" height="43" viewBox="0 0 498 43" xmlns="http://www.w3.org/2000/svg">
    <g fill="#FFF" fill-rule="nonzero">
        <path d="M62.238.002H18.397C6.785.002 0 6.776 0 18.366v24.578h8.445V18.366c0-7.047 3.082-10.124 10.14-10.124H36.1v34.702h8.445V8.242h17.513c7.062 0 10.144 3.077 10.144 10.124v24.578h8.444V18.366C80.637 6.776 73.852.002 62.238.002zM148.277 42.998h-39.16c-11.612 0-18.396-6.774-18.396-18.366v-6.266C90.72 6.774 97.505 0 109.117 0h39.16c11.611 0 18.398 6.772 18.398 18.366v6.266c-.002 11.592-6.787 18.366-18.398 18.366zM109.302 8.242c-7.06 0-10.14 3.077-10.14 10.124v6.266c0 7.047 3.08 10.126 10.33 10.126h38.785c6.872 0 9.953-3.077 9.953-10.126v-6.266c0-7.047-3.081-10.124-10.143-10.124h-38.785zM245.659 42.998h-50.88c-11.612 0-18.397-6.774-18.397-18.366v-6.266C176.382 6.774 183.167 0 194.78 0h50.88v8.24h-50.69c-7.06 0-10.142 3.076-10.142 10.123v6.267c0 7.047 3.082 10.126 10.141 10.126h50.69v8.242zM498 42.944h-8.445V18.366c0-7.047-3.082-10.124-10.143-10.124h-35.163c-7.06 0-10.143 3.077-10.143 10.124v24.578h-8.445V18.366c0-11.592 6.785-18.364 18.397-18.364h35.541c11.612 0 18.399 6.772 18.399 18.364L498 42.944zM274.415 8.075h52.54V.002h-52.731c-11.612 0-18.397 6.772-18.397 18.366v6.266c0 11.592 6.785 18.366 18.397 18.366h52.73v-8.072h-52.539c-6.81 0-9.82-3.047-10.028-9.485h62.358v-7.881h-62.358c.209-6.443 3.214-9.487 10.028-9.487zM412.928 42.944h-8.445V18.366c0-7.047-3.082-10.124-10.143-10.124h-35.636c-7.059 0-10.14 3.077-10.14 10.124v24.578h-8.445V18.366c0-11.592 6.784-18.364 18.396-18.364h36.016c11.612 0 18.397 6.772 18.397 18.364v24.578z"/>
        <path d="M357.466 17.609h38.117v7.782h-38.117z"/>
    </g>
</svg>
